# Blender v2.78 (sub 0) OBJ File: 'n64.blend'
# www.blender.org
o n64_Cube_Cube.002
v 0.250000 0.000000 -0.250000
v 0.250000 -0.500000 -0.500000
v 0.250000 -0.500000 -0.250000
v 0.250000 0.000000 -0.500000
v 0.500000 -0.500000 -0.500000
v 0.500000 0.000000 -0.500000
v 0.500000 -0.500000 -0.250000
v 0.250000 0.500000 0.250000
v 0.500000 0.000000 -0.250000
v 0.500000 0.500000 -0.500000
v 0.250000 0.500000 -0.500000
v 0.500000 0.500000 -0.250000
v -0.250000 -0.500000 -0.500000
v 0.250000 0.500000 -0.250000
v -0.250000 0.000000 -0.250000
v -0.500000 -0.500000 0.250000
v -0.500000 0.000000 -0.250000
v -0.250000 -0.500000 -0.250000
v -0.250000 0.000000 -0.500000
v -0.500000 -0.500000 -0.250000
v -0.500000 0.000000 -0.500000
v -0.500000 -0.500000 -0.500000
v -0.250000 0.500000 -0.500000
v -0.500000 0.500000 -0.250000
v -0.250000 0.500000 -0.250000
v -0.500000 0.500000 -0.500000
v -0.250000 -0.000000 0.250000
v 0.250000 -0.500000 0.500000
v -0.250000 -0.000000 0.500000
v -0.500000 -0.000000 0.250000
v -0.250000 -0.500000 0.250000
v -0.250000 -0.500000 0.500000
v -0.500000 -0.000000 0.500000
v -0.500000 -0.500000 0.500000
v -0.500000 0.500000 0.250000
v -0.250000 0.500000 0.500000
v -0.250000 0.500000 0.250000
v -0.500000 0.500000 0.500000
v 0.500000 -0.000000 0.250000
v 0.500000 0.500000 0.500000
v 0.500000 -0.000000 0.500000
v 0.250000 -0.000000 0.500000
v 0.250000 -0.000000 0.250000
v 0.250000 -0.500000 0.250000
v 0.500000 -0.500000 0.250000
v 0.500000 -0.500000 0.500000
v 0.250000 0.500000 0.500000
v 0.500000 0.500000 0.250000
vt 0.0000 0.0000
vt 1.0000 0.0000
vt 1.0000 1.0000
vt 0.0000 0.0000
vt 1.0000 0.0000
vt 1.0000 1.0000
vt 0.0000 0.0000
vt 1.0000 0.0000
vt 1.0000 1.0000
vt 0.0000 0.0000
vt 1.0000 0.0000
vt 1.0000 1.0000
vt 1.0000 0.0000
vt 1.0000 1.0000
vt 1.0000 0.0000
vt 1.0000 1.0000
vt 1.0000 0.0000
vt 1.0000 1.0000
vt 1.0000 0.0000
vt 1.0000 1.0000
vt 0.0000 0.0000
vt 1.0000 0.0000
vt 1.0000 1.0000
vt 0.0000 0.0000
vt 1.0000 0.0000
vt 1.0000 1.0000
vt 0.0000 0.0000
vt 1.0000 0.0000
vt 0.0000 0.0000
vt 1.0000 0.0000
vt 0.0000 0.0000
vt 1.0000 0.0000
vt 1.0000 1.0000
vt 0.0000 0.0000
vt 1.0000 0.0000
vt 1.0000 1.0000
vt 0.0000 0.0000
vt 1.0000 0.0000
vt 0.0000 0.0000
vt 1.0000 1.0000
vt 1.0000 0.0000
vt 1.0000 1.0000
vt 1.0000 0.0000
vt 1.0000 1.0000
vt 1.0000 0.0000
vt 1.0000 1.0000
vt 1.0000 0.0000
vt 1.0000 1.0000
vt 1.0000 0.0000
vt 1.0000 1.0000
vt 1.0000 0.0000
vt 1.0000 1.0000
vt 1.0000 0.0000
vt 1.0000 1.0000
vt 1.0000 0.0000
vt 1.0000 1.0000
vt 1.0000 0.0000
vt 0.0000 0.0000
vt 1.0000 1.0000
vt 1.0000 0.0000
vt 1.0000 1.0000
vt 0.0000 0.0000
vt 1.0000 0.0000
vt 0.0000 0.0000
vt 1.0000 1.0000
vt 0.0000 0.0000
vt 1.0000 0.0000
vt 1.0000 1.0000
vt 0.0000 0.0000
vt 1.0000 1.0000
vt 0.0000 0.0000
vt 1.0000 0.0000
vt 1.0000 1.0000
vt 0.0000 0.0000
vt 1.0000 0.0000
vt 0.0000 0.0000
vt 1.0000 1.0000
vt 0.0000 0.0000
vt 1.0000 0.0000
vt 0.0000 0.0000
vt 1.0000 0.0000
vt 0.0000 0.0000
vt 1.0000 0.0000
vt 1.0000 1.0000
vt 0.0000 0.0000
vt 1.0000 0.0000
vt 1.0000 1.0000
vt 0.0000 0.0000
vt 1.0000 0.0000
vt 1.0000 0.0000
vt 1.0000 0.0000
vt 1.0000 0.0000
vt 1.0000 0.0000
vt 1.0000 1.0000
vt 1.0000 0.0000
vt 1.0000 0.0000
vt 1.0000 0.0000
vt 1.0000 1.0000
vt 1.0000 1.0000
vt 1.0000 1.0000
vt 1.0000 1.0000
vt 1.0000 0.0000
vt 1.0000 0.0000
vt 1.0000 1.0000
vt 0.0000 0.0000
vt 1.0000 0.0000
vt 1.0000 1.0000
vt 1.0000 1.0000
vt 1.0000 1.0000
vt 1.0000 1.0000
vt 0.0000 0.0000
vt 1.0000 1.0000
vt 0.0000 0.0000
vt 0.0000 0.0000
vt 0.0000 0.0000
vt 0.0000 0.0000
vt 1.0000 0.0000
vt 1.0000 1.0000
vt 0.0000 0.0000
vt 1.0000 1.0000
vt 0.0000 0.0000
vt 0.0000 0.0000
vt 1.0000 0.0000
vt 1.0000 0.0000
vt 1.0000 0.0000
vt 1.0000 1.0000
vt 1.0000 1.0000
vt 1.0000 1.0000
vt 1.0000 1.0000
vt 1.0000 1.0000
vn 0.0000 0.7071 -0.7071
vn 0.7071 -0.7071 -0.0000
vn -0.7071 -0.7071 0.0000
vn 0.0000 0.7071 0.7071
vn 0.0000 -1.0000 -0.0000
vn 0.0000 1.0000 0.0000
vn -1.0000 -0.0000 0.0000
vn 1.0000 0.0000 0.0000
vn -0.7071 0.7071 0.0000
vn 0.7071 0.7071 0.0000
vn 0.0000 0.0000 -1.0000
vn 0.0000 -0.0000 1.0000
vn 0.0000 -0.7071 -0.7071
vn 0.0000 -0.7071 0.7071
s 1
f 8/1/1 9/2/1 1/3/1
f 1/4/2 13/5/2 4/6/2
f 27/7/3 28/8/3 29/9/3
f 24/10/4 27/11/4 25/12/4
f 8/1/1 48/13/1 9/14/1
f 1/4/2 18/15/2 13/16/2
f 27/7/3 44/17/3 28/18/3
f 24/10/4 30/19/4 27/20/4
f 5/21/5 3/22/5 2/23/5
f 11/24/6 12/25/6 10/26/6
f 18/27/5 22/28/5 13/16/5
f 23/29/6 24/30/6 25/12/6
f 31/31/5 34/32/5 16/33/5
f 35/34/6 36/35/6 37/36/6
f 44/37/5 46/38/5 28/18/5
f 47/39/6 48/13/6 8/40/6
f 5/21/5 7/41/5 3/42/5
f 11/24/6 14/43/6 12/44/6
f 18/27/5 20/45/5 22/46/5
f 23/29/6 26/47/6 24/48/6
f 31/31/5 32/49/5 34/50/5
f 35/34/6 38/51/6 36/52/6
f 44/37/5 45/53/5 46/54/5
f 47/39/6 40/55/6 48/56/6
f 1/4/7 2/57/7 3/42/7
f 6/58/8 7/41/8 5/59/8
f 6/58/8 12/25/8 9/14/8
f 11/24/9 15/60/9 14/61/9
f 20/62/7 21/63/7 22/46/7
f 17/64/7 26/47/7 21/65/7
f 19/66/8 25/67/8 15/68/8
f 17/64/7 30/19/7 24/48/7
f 15/69/8 27/11/8 31/70/8
f 27/7/8 32/49/8 31/70/8
f 16/71/7 33/72/7 30/73/7
f 33/74/7 35/75/7 30/73/7
f 39/76/8 40/55/8 41/77/8
f 36/78/10 43/79/10 37/36/10
f 45/80/8 41/81/8 46/54/8
f 42/82/7 8/83/7 43/84/7
f 9/85/8 39/86/8 7/87/8
f 43/88/7 1/89/7 3/42/7
f 1/4/7 4/90/7 2/23/7
f 6/58/8 9/2/8 7/87/8
f 6/58/8 10/91/8 12/44/8
f 11/24/9 19/92/9 15/68/9
f 20/62/7 17/93/7 21/65/7
f 17/64/7 24/30/7 26/94/7
f 19/66/8 23/95/8 25/12/8
f 17/64/7 16/96/7 30/73/7
f 15/69/8 25/67/8 27/20/8
f 27/7/8 29/97/8 32/98/8
f 16/71/7 34/32/7 33/99/7
f 33/74/7 38/51/7 35/100/7
f 39/76/8 48/13/8 40/101/8
f 36/78/10 42/102/10 43/84/10
f 45/80/8 39/86/8 41/77/8
f 42/82/7 47/103/7 8/40/7
f 9/85/8 48/13/8 39/104/8
f 43/88/7 8/83/7 1/3/7
f 4/105/11 5/106/11 2/23/11
f 4/105/11 10/91/11 6/107/11
f 9/85/12 14/43/12 1/3/12
f 15/69/13 16/96/13 17/108/13
f 1/4/12 15/60/12 18/109/12
f 4/105/11 19/92/11 11/110/11
f 13/111/11 21/63/11 19/112/11
f 15/69/12 20/45/12 18/109/12
f 21/113/11 23/95/11 19/112/11
f 32/114/12 33/72/12 34/50/12
f 29/115/12 38/51/12 33/99/12
f 30/116/11 37/117/11 27/20/11
f 29/115/12 42/102/12 36/52/12
f 27/7/11 43/79/11 44/118/11
f 43/88/11 45/53/11 44/118/11
f 28/119/12 41/81/12 42/120/12
f 41/121/12 47/103/12 42/120/12
f 7/122/14 43/79/14 3/42/14
f 4/105/11 6/123/11 5/59/11
f 4/105/11 11/124/11 10/26/11
f 9/85/12 12/25/12 14/61/12
f 15/69/13 31/125/13 16/33/13
f 1/4/12 14/43/12 15/68/12
f 4/105/11 13/5/11 19/112/11
f 13/111/11 22/28/11 21/65/11
f 15/69/12 17/93/12 20/126/12
f 21/113/11 26/47/11 23/127/11
f 32/114/12 29/97/12 33/99/12
f 29/115/12 36/35/12 38/128/12
f 30/116/11 35/75/11 37/36/11
f 29/115/12 28/8/12 42/120/12
f 27/7/11 37/117/11 43/84/11
f 43/88/11 39/86/11 45/129/11
f 28/119/12 46/38/12 41/77/12
f 41/121/12 40/55/12 47/130/12
f 7/122/14 39/86/14 43/84/14
