# Blender v2.78 (sub 0) OBJ File: ''
# www.blender.org
mtllib planet_rings.mtl
o Torus
v 1.750000 0.000000 0.000000
v 1.625000 0.108253 0.000000
v 1.375000 0.108253 0.000000
v 1.250000 0.000000 0.000000
v 1.375000 -0.108253 0.000000
v 1.625000 -0.108253 0.000000
v 1.690370 0.000000 -0.452933
v 1.569630 0.108253 -0.420581
v 1.328148 0.108253 -0.355876
v 1.207407 0.000000 -0.323524
v 1.328148 -0.108253 -0.355876
v 1.569630 -0.108253 -0.420581
v 1.515544 0.000000 -0.875000
v 1.407291 0.108253 -0.812500
v 1.190785 0.108253 -0.687500
v 1.082532 0.000000 -0.625000
v 1.190785 -0.108253 -0.687500
v 1.407291 -0.108253 -0.812500
v 1.237437 0.000000 -1.237437
v 1.149048 0.108253 -1.149049
v 0.972272 0.108253 -0.972272
v 0.883883 0.000000 -0.883884
v 0.972272 -0.108253 -0.972272
v 1.149048 -0.108253 -1.149049
v 0.875000 0.000000 -1.515544
v 0.812500 0.108253 -1.407291
v 0.687500 0.108253 -1.190785
v 0.625000 0.000000 -1.082532
v 0.687500 -0.108253 -1.190785
v 0.812500 -0.108253 -1.407291
v 0.452933 0.000000 -1.690370
v 0.420581 0.108253 -1.569629
v 0.355876 0.108253 -1.328148
v 0.323524 0.000000 -1.207407
v 0.355876 -0.108253 -1.328148
v 0.420581 -0.108253 -1.569629
v 0.000000 0.000000 -1.750000
v 0.000000 0.108253 -1.625000
v 0.000000 0.108253 -1.375000
v 0.000000 0.000000 -1.250000
v 0.000000 -0.108253 -1.375000
v 0.000000 -0.108253 -1.625000
v -0.452933 0.000000 -1.690370
v -0.420581 0.108253 -1.569630
v -0.355876 0.108253 -1.328148
v -0.323524 0.000000 -1.207407
v -0.355876 -0.108253 -1.328148
v -0.420581 -0.108253 -1.569630
v -0.875000 0.000000 -1.515545
v -0.812500 0.108253 -1.407291
v -0.687500 0.108253 -1.190785
v -0.625000 0.000000 -1.082532
v -0.687500 -0.108253 -1.190785
v -0.812500 -0.108253 -1.407291
v -1.237437 0.000000 -1.237437
v -1.149049 0.108253 -1.149048
v -0.972272 0.108253 -0.972272
v -0.883884 0.000000 -0.883883
v -0.972272 -0.108253 -0.972272
v -1.149049 -0.108253 -1.149048
v -1.515544 0.000000 -0.875000
v -1.407291 0.108253 -0.812500
v -1.190785 0.108253 -0.687500
v -1.082532 0.000000 -0.625000
v -1.190785 -0.108253 -0.687500
v -1.407291 -0.108253 -0.812500
v -1.690370 0.000000 -0.452933
v -1.569630 0.108253 -0.420581
v -1.328148 0.108253 -0.355876
v -1.207407 0.000000 -0.323524
v -1.328148 -0.108253 -0.355876
v -1.569630 -0.108253 -0.420581
v -1.750000 0.000000 -0.000000
v -1.625000 0.108253 -0.000000
v -1.375000 0.108253 -0.000000
v -1.250000 0.000000 -0.000000
v -1.375000 -0.108253 -0.000000
v -1.625000 -0.108253 -0.000000
v -1.690370 0.000000 0.452933
v -1.569630 0.108253 0.420581
v -1.328148 0.108253 0.355876
v -1.207407 0.000000 0.323524
v -1.328148 -0.108253 0.355876
v -1.569630 -0.108253 0.420581
v -1.515545 0.000000 0.875000
v -1.407292 0.108253 0.812500
v -1.190785 0.108253 0.687500
v -1.082532 0.000000 0.625000
v -1.190785 -0.108253 0.687500
v -1.407292 -0.108253 0.812500
v -1.237437 0.000000 1.237437
v -1.149049 0.108253 1.149048
v -0.972272 0.108253 0.972272
v -0.883884 0.000000 0.883883
v -0.972272 -0.108253 0.972272
v -1.149049 -0.108253 1.149048
v -0.875000 0.000000 1.515545
v -0.812500 0.108253 1.407291
v -0.687500 0.108253 1.190785
v -0.625000 0.000000 1.082532
v -0.687500 -0.108253 1.190785
v -0.812500 -0.108253 1.407291
v -0.452934 0.000000 1.690370
v -0.420582 0.108253 1.569629
v -0.355877 0.108253 1.328148
v -0.323524 0.000000 1.207407
v -0.355877 -0.108253 1.328148
v -0.420582 -0.108253 1.569629
v 0.000000 0.000000 1.750000
v 0.000000 0.108253 1.625000
v 0.000000 0.108253 1.375000
v 0.000000 0.000000 1.250000
v 0.000000 -0.108253 1.375000
v 0.000000 -0.108253 1.625000
v 0.452933 0.000000 1.690370
v 0.420580 0.108253 1.569630
v 0.355876 0.108253 1.328148
v 0.323523 0.000000 1.207407
v 0.355876 -0.108253 1.328148
v 0.420580 -0.108253 1.569630
v 0.875000 0.000000 1.515544
v 0.812500 0.108253 1.407291
v 0.687500 0.108253 1.190785
v 0.625000 0.000000 1.082532
v 0.687500 -0.108253 1.190785
v 0.812500 -0.108253 1.407291
v 1.237436 0.000000 1.237438
v 1.149048 0.108253 1.149049
v 0.972271 0.108253 0.972272
v 0.883883 0.000000 0.883884
v 0.972271 -0.108253 0.972272
v 1.149048 -0.108253 1.149049
v 1.515544 0.000000 0.875000
v 1.407291 0.108253 0.812500
v 1.190785 0.108253 0.687500
v 1.082532 0.000000 0.625000
v 1.190785 -0.108253 0.687500
v 1.407291 -0.108253 0.812500
v 1.690370 0.000000 0.452933
v 1.569630 0.108253 0.420581
v 1.328148 0.108253 0.355876
v 1.207407 0.000000 0.323523
v 1.328148 -0.108253 0.355876
v 1.569630 -0.108253 0.420581
vt 0.0000 0.0000
vt 1.0000 1.0000
vt 0.0000 1.0000
vt 0.0000 0.0000
vt 1.0000 1.0000
vt 0.0000 1.0000
vt 1.0000 0.0000
vt 0.0000 1.0000
vt 0.0000 0.0000
vt 1.0000 0.0000
vt 0.0000 1.0000
vt 0.0000 0.0000
vt 1.0000 0.0000
vt 0.0000 1.0000
vt 0.0000 0.0000
vt 1.0000 0.0000
vt 0.0000 1.0000
vt 1.0000 0.0000
vt 0.0000 1.0000
vt 0.0000 0.0000
vt 1.0000 0.0000
vt 0.0000 1.0000
vt 0.0000 0.0000
vt 1.0000 0.0000
vt 0.0000 1.0000
vt 0.0000 0.0000
vt 1.0000 0.0000
vt 0.0000 1.0000
vt 0.0000 0.0000
vt 1.0000 0.0000
vt 0.0000 1.0000
vt 0.0000 0.0000
vt 0.0000 0.0000
vt 1.0000 1.0000
vt 1.0000 0.0000
vt 0.0000 1.0000
vt 0.0000 0.0000
vt 1.0000 0.0000
vt 0.0000 1.0000
vt 0.0000 0.0000
vt 1.0000 0.0000
vt 0.0000 1.0000
vt 0.0000 0.0000
vt 1.0000 0.0000
vt 0.0000 1.0000
vt 0.0000 0.0000
vt 1.0000 0.0000
vt 0.0000 1.0000
vt 0.0000 0.0000
vt 1.0000 0.0000
vt 0.0000 1.0000
vt 0.0000 0.0000
vt 0.0000 0.0000
vt 1.0000 1.0000
vt 0.0000 1.0000
vt 0.0000 0.0000
vt 1.0000 1.0000
vt 0.0000 1.0000
vt 0.0000 0.0000
vt 1.0000 1.0000
vt 0.0000 1.0000
vt 0.0000 0.0000
vt 1.0000 1.0000
vt 0.0000 1.0000
vt 1.0000 0.0000
vt 0.0000 1.0000
vt 0.0000 0.0000
vt 1.0000 0.0000
vt 0.0000 1.0000
vt 0.0000 0.0000
vt 0.0000 0.0000
vt 1.0000 1.0000
vt 0.0000 1.0000
vt 1.0000 0.0000
vt 0.0000 1.0000
vt 0.0000 0.0000
vt 0.0000 0.0000
vt 1.0000 1.0000
vt 0.0000 1.0000
vt 1.0000 0.0000
vt 0.0000 1.0000
vt 0.0000 0.0000
vt 1.0000 0.0000
vt 0.0000 1.0000
vt 0.0000 0.0000
vt 1.0000 0.0000
vt 0.0000 1.0000
vt 0.0000 0.0000
vt 1.0000 0.0000
vt 0.0000 1.0000
vt 0.0000 0.0000
vt 1.0000 0.0000
vt 0.0000 1.0000
vt 0.0000 0.0000
vt 1.0000 0.0000
vt 0.0000 1.0000
vt 0.0000 0.0000
vt 0.0000 0.0000
vt 1.0000 1.0000
vt 0.0000 1.0000
vt 1.0000 0.0000
vt 0.0000 1.0000
vt 0.0000 0.0000
vt 0.0000 0.0000
vt 1.0000 1.0000
vt 0.0000 1.0000
vt 1.0000 0.0000
vt 0.0000 1.0000
vt 0.0000 0.0000
vt 1.0000 0.0000
vt 0.0000 1.0000
vt 0.0000 0.0000
vt 1.0000 0.0000
vt 0.0000 1.0000
vt 0.0000 0.0000
vt 0.0000 0.0000
vt 1.0000 1.0000
vt 0.0000 1.0000
vt 1.0000 0.0000
vt 0.0000 1.0000
vt 0.0000 0.0000
vt 1.0000 0.0000
vt 0.0000 1.0000
vt 0.0000 0.0000
vt 1.0000 0.0000
vt 0.0000 1.0000
vt 0.0000 0.0000
vt 0.0000 0.0000
vt 1.0000 1.0000
vt 0.0000 1.0000
vt 1.0000 0.0000
vt 0.0000 1.0000
vt 0.0000 0.0000
vt 1.0000 0.0000
vt 0.0000 1.0000
vt 0.0000 0.0000
vt 1.0000 0.0000
vt 0.0000 1.0000
vt 0.0000 0.0000
vt 0.0000 0.0000
vt 1.0000 1.0000
vt 0.0000 1.0000
vt 1.0000 0.0000
vt 0.0000 1.0000
vt 0.0000 0.0000
vt 1.0000 0.0000
vt 0.0000 1.0000
vt 0.0000 0.0000
vt 0.0000 0.0000
vt 1.0000 1.0000
vt 0.0000 1.0000
vt 1.0000 0.0000
vt 0.0000 1.0000
vt 0.0000 0.0000
vt 0.0000 0.0000
vt 1.0000 1.0000
vt 0.0000 1.0000
vt 1.0000 0.0000
vt 0.0000 1.0000
vt 0.0000 0.0000
vt 0.0000 0.0000
vt 1.0000 1.0000
vt 0.0000 1.0000
vt 0.0000 0.0000
vt 1.0000 1.0000
vt 0.0000 1.0000
vt 0.0000 0.0000
vt 1.0000 1.0000
vt 0.0000 1.0000
vt 1.0000 0.0000
vt 0.0000 1.0000
vt 0.0000 0.0000
vt 1.0000 0.0000
vt 0.0000 1.0000
vt 0.0000 0.0000
vt 1.0000 0.0000
vt 0.0000 1.0000
vt 0.0000 0.0000
vt 1.0000 0.0000
vt 0.0000 1.0000
vt 0.0000 0.0000
vt 1.0000 0.0000
vt 0.0000 1.0000
vt 0.0000 0.0000
vt 0.0000 0.0000
vt 1.0000 1.0000
vt 0.0000 1.0000
vt 1.0000 0.0000
vt 0.0000 1.0000
vt 0.0000 0.0000
vt 1.0000 0.0000
vt 0.0000 1.0000
vt 0.0000 0.0000
vt 1.0000 0.0000
vt 0.0000 1.0000
vt 0.0000 0.0000
vt 1.0000 0.0000
vt 0.0000 1.0000
vt 0.0000 0.0000
vt 1.0000 0.0000
vt 0.0000 1.0000
vt 0.0000 0.0000
vt 1.0000 0.0000
vt 0.0000 1.0000
vt 0.0000 0.0000
vt 1.0000 0.0000
vt 0.0000 1.0000
vt 0.0000 0.0000
vt 1.0000 0.0000
vt 0.0000 1.0000
vt 0.0000 0.0000
vt 1.0000 0.0000
vt 0.0000 1.0000
vt 0.0000 0.0000
vt 1.0000 0.0000
vt 0.0000 1.0000
vt 0.0000 0.0000
vt 0.0000 0.0000
vt 1.0000 1.0000
vt 0.0000 1.0000
vt 1.0000 0.0000
vt 0.0000 1.0000
vt 0.0000 0.0000
vt 1.0000 0.0000
vt 0.0000 1.0000
vt 0.0000 0.0000
vt 1.0000 0.0000
vt 0.0000 1.0000
vt 0.0000 0.0000
vt 1.0000 0.0000
vt 0.0000 1.0000
vt 0.0000 0.0000
vt 1.0000 0.0000
vt 0.0000 1.0000
vt 0.0000 0.0000
vt 0.0000 0.0000
vt 1.0000 1.0000
vt 0.0000 1.0000
vt 0.0000 0.0000
vt 1.0000 1.0000
vt 0.0000 1.0000
vt 1.0000 0.0000
vt 0.0000 1.0000
vt 0.0000 0.0000
vt 1.0000 0.0000
vt 0.0000 1.0000
vt 0.0000 0.0000
vt 1.0000 0.0000
vt 0.0000 1.0000
vt 0.0000 0.0000
vt 1.0000 0.0000
vt 0.0000 1.0000
vt 0.0000 0.0000
vt 1.0000 0.0000
vt 0.0000 1.0000
vt 0.0000 0.0000
vt 1.0000 0.0000
vt 0.0000 1.0000
vt 0.0000 0.0000
vt 1.0000 0.0000
vt 0.0000 1.0000
vt 0.0000 0.0000
vt 0.0000 0.0000
vt 1.0000 1.0000
vt 0.0000 1.0000
vt 1.0000 0.0000
vt 0.0000 1.0000
vt 0.0000 0.0000
vt 1.0000 0.0000
vt 0.0000 1.0000
vt 0.0000 0.0000
vt 0.0000 0.0000
vt 1.0000 1.0000
vt 0.0000 1.0000
vt 1.0000 0.0000
vt 0.0000 1.0000
vt 0.0000 0.0000
vt 0.0000 0.0000
vt 1.0000 1.0000
vt 0.0000 1.0000
vt 1.0000 0.0000
vt 0.0000 1.0000
vt 0.0000 0.0000
vt 1.0000 0.0000
vt 0.0000 1.0000
vt 0.0000 0.0000
vt 0.0000 0.0000
vt 1.0000 1.0000
vt 0.0000 1.0000
vt 1.0000 0.0000
vt 0.0000 1.0000
vt 0.0000 0.0000
vt 1.0000 0.0000
vt 0.0000 1.0000
vt 0.0000 0.0000
vt 0.0000 0.0000
vt 1.0000 1.0000
vt 0.0000 1.0000
vt 0.0000 0.0000
vt 1.0000 1.0000
vt 0.0000 1.0000
vt 1.0000 0.0000
vt 0.0000 1.0000
vt 0.0000 0.0000
vt 0.0000 0.0000
vt 1.0000 1.0000
vt 0.0000 1.0000
vt 1.0000 0.0000
vt 0.0000 1.0000
vt 0.0000 0.0000
vt 1.0000 0.0000
vt 0.0000 1.0000
vt 0.0000 0.0000
vt 1.0000 0.0000
vt 0.0000 1.0000
vt 0.0000 0.0000
vt 0.0000 0.0000
vt 1.0000 1.0000
vt 0.0000 1.0000
vt 1.0000 0.0000
vt 0.0000 1.0000
vt 0.0000 0.0000
vt 1.0000 0.0000
vt 0.0000 1.0000
vt 0.0000 0.0000
vt 0.0000 0.0000
vt 1.0000 1.0000
vt 0.0000 1.0000
vt 1.0000 0.0000
vt 0.0000 1.0000
vt 0.0000 0.0000
vt 1.0000 0.0000
vt 0.0000 1.0000
vt 0.0000 0.0000
vt 1.0000 0.0000
vt 0.0000 1.0000
vt 0.0000 0.0000
vt 1.0000 0.0000
vt 0.0000 1.0000
vt 0.0000 0.0000
vt 1.0000 0.0000
vt 0.0000 1.0000
vt 0.0000 0.0000
vt 1.0000 0.0000
vt 0.0000 1.0000
vt 0.0000 0.0000
vt 1.0000 0.0000
vt 0.0000 1.0000
vt 0.0000 0.0000
vt 1.0000 0.0000
vt 0.0000 1.0000
vt 0.0000 0.0000
vt 1.0000 0.0000
vt 0.0000 1.0000
vt 0.0000 0.0000
vt 1.0000 0.0000
vt 0.0000 1.0000
vt 0.0000 0.0000
vt 0.0000 0.0000
vt 1.0000 1.0000
vt 0.0000 1.0000
vt 0.0000 0.0000
vt 1.0000 1.0000
vt 0.0000 1.0000
vt 1.0000 0.0000
vt 0.0000 1.0000
vt 0.0000 0.0000
vt 1.0000 0.0000
vt 0.0000 1.0000
vt 0.0000 0.0000
vt 1.0000 0.0000
vt 0.0000 1.0000
vt 0.0000 0.0000
vt 1.0000 0.0000
vt 0.0000 1.0000
vt 0.0000 0.0000
vt 0.0000 0.0000
vt 1.0000 1.0000
vt 0.0000 1.0000
vt 1.0000 0.0000
vt 0.0000 1.0000
vt 0.0000 0.0000
vt 0.0000 0.0000
vt 1.0000 1.0000
vt 0.0000 1.0000
vt 1.0000 0.0000
vt 0.0000 1.0000
vt 0.0000 0.0000
vt 0.0000 0.0000
vt 1.0000 1.0000
vt 0.0000 1.0000
vt 0.0000 0.0000
vt 1.0000 1.0000
vt 0.0000 1.0000
vt 0.0000 0.0000
vt 1.0000 1.0000
vt 0.0000 1.0000
vt 1.0000 0.0000
vt 0.0000 1.0000
vt 0.0000 0.0000
vt 0.0000 0.0000
vt 1.0000 1.0000
vt 0.0000 1.0000
vt 1.0000 0.0000
vt 0.0000 1.0000
vt 0.0000 0.0000
vt 0.0000 0.0000
vt 1.0000 1.0000
vt 0.0000 1.0000
vt 1.0000 0.0000
vt 0.0000 1.0000
vt 0.0000 0.0000
vt 1.0000 0.0000
vt 0.0000 1.0000
vt 0.0000 0.0000
vt 1.0000 0.0000
vt 0.0000 1.0000
vt 0.0000 0.0000
vt 1.0000 0.0000
vt 0.0000 1.0000
vt 0.0000 0.0000
vt 1.0000 0.0000
vt 0.0000 1.0000
vt 0.0000 0.0000
vt 1.0000 0.0000
vt 0.0000 1.0000
vt 0.0000 0.0000
vt 0.0000 1.0000
vt 0.0000 0.0000
vt 1.0000 0.0000
vt 1.0000 0.0000
vt 1.0000 1.0000
vt 1.0000 1.0000
vt 1.0000 1.0000
vt 1.0000 1.0000
vt 1.0000 1.0000
vt 1.0000 1.0000
vt 1.0000 1.0000
vt 1.0000 1.0000
vt 1.0000 0.0000
vt 1.0000 1.0000
vt 1.0000 1.0000
vt 1.0000 1.0000
vt 1.0000 1.0000
vt 1.0000 1.0000
vt 1.0000 1.0000
vt 1.0000 0.0000
vt 1.0000 0.0000
vt 1.0000 0.0000
vt 1.0000 0.0000
vt 1.0000 1.0000
vt 1.0000 1.0000
vt 1.0000 0.0000
vt 1.0000 1.0000
vt 1.0000 0.0000
vt 1.0000 1.0000
vt 1.0000 1.0000
vt 1.0000 1.0000
vt 1.0000 1.0000
vt 1.0000 1.0000
vt 1.0000 1.0000
vt 1.0000 0.0000
vt 1.0000 1.0000
vt 1.0000 0.0000
vt 1.0000 1.0000
vt 1.0000 1.0000
vt 1.0000 1.0000
vt 1.0000 0.0000
vt 1.0000 1.0000
vt 1.0000 1.0000
vt 1.0000 1.0000
vt 1.0000 0.0000
vt 1.0000 1.0000
vt 1.0000 1.0000
vt 1.0000 1.0000
vt 1.0000 0.0000
vt 1.0000 1.0000
vt 1.0000 1.0000
vt 1.0000 0.0000
vt 1.0000 1.0000
vt 1.0000 0.0000
vt 1.0000 1.0000
vt 1.0000 0.0000
vt 1.0000 0.0000
vt 1.0000 0.0000
vt 1.0000 1.0000
vt 1.0000 1.0000
vt 1.0000 1.0000
vt 1.0000 1.0000
vt 1.0000 1.0000
vt 1.0000 0.0000
vt 1.0000 1.0000
vt 1.0000 1.0000
vt 1.0000 1.0000
vt 1.0000 1.0000
vt 1.0000 1.0000
vt 1.0000 1.0000
vt 1.0000 1.0000
vt 1.0000 1.0000
vt 1.0000 1.0000
vt 1.0000 1.0000
vt 1.0000 0.0000
vt 1.0000 1.0000
vt 1.0000 1.0000
vt 1.0000 1.0000
vt 1.0000 1.0000
vt 1.0000 1.0000
vt 1.0000 0.0000
vt 1.0000 0.0000
vt 1.0000 1.0000
vt 1.0000 1.0000
vt 1.0000 1.0000
vt 1.0000 1.0000
vt 1.0000 1.0000
vt 1.0000 1.0000
vt 1.0000 1.0000
vt 1.0000 0.0000
vt 1.0000 1.0000
vt 1.0000 1.0000
vt 1.0000 0.0000
vt 1.0000 1.0000
vt 1.0000 0.0000
vt 1.0000 1.0000
vt 1.0000 1.0000
vt 1.0000 0.0000
vt 1.0000 1.0000
vt 1.0000 1.0000
vt 1.0000 0.0000
vt 1.0000 0.0000
vt 1.0000 1.0000
vt 1.0000 0.0000
vt 1.0000 1.0000
vt 1.0000 1.0000
vt 1.0000 1.0000
vt 1.0000 0.0000
vt 1.0000 1.0000
vt 1.0000 1.0000
vt 1.0000 0.0000
vt 1.0000 1.0000
vt 1.0000 1.0000
vt 1.0000 1.0000
vt 1.0000 1.0000
vt 1.0000 1.0000
vt 1.0000 1.0000
vt 1.0000 1.0000
vt 1.0000 1.0000
vt 1.0000 1.0000
vt 1.0000 1.0000
vt 1.0000 0.0000
vt 1.0000 0.0000
vt 1.0000 1.0000
vt 1.0000 1.0000
vt 1.0000 1.0000
vt 1.0000 1.0000
vt 1.0000 0.0000
vt 1.0000 1.0000
vt 1.0000 0.0000
vt 1.0000 1.0000
vt 1.0000 0.0000
vt 1.0000 0.0000
vt 1.0000 0.0000
vt 1.0000 1.0000
vt 1.0000 0.0000
vt 1.0000 1.0000
vt 1.0000 0.0000
vt 1.0000 1.0000
vt 1.0000 1.0000
vt 1.0000 1.0000
vt 1.0000 1.0000
vt 1.0000 1.0000
vt 1.0000 1.0000
vt 1.0000 1.0000
vn 0.6522 0.7531 -0.0859
vn 0.0000 1.0000 0.0000
vn -0.6522 0.7531 0.0859
vn -0.6522 -0.7531 0.0859
vn 0.0000 -1.0000 0.0000
vn 0.6522 -0.7531 -0.0859
vn 0.6078 0.7531 -0.2518
vn -0.6078 0.7531 0.2518
vn -0.6078 -0.7531 0.2518
vn 0.6078 -0.7531 -0.2518
vn 0.5219 0.7531 -0.4005
vn -0.5219 0.7531 0.4005
vn -0.5219 -0.7531 0.4005
vn 0.5219 -0.7531 -0.4005
vn 0.4005 0.7531 -0.5219
vn -0.4005 0.7531 0.5219
vn -0.4005 -0.7531 0.5219
vn 0.4005 -0.7531 -0.5219
vn 0.2518 0.7531 -0.6078
vn -0.2518 0.7531 0.6078
vn -0.2518 -0.7531 0.6078
vn 0.2518 -0.7531 -0.6078
vn 0.0859 0.7531 -0.6522
vn -0.0859 0.7531 0.6522
vn -0.0859 -0.7531 0.6522
vn 0.0859 -0.7531 -0.6522
vn -0.0859 0.7531 -0.6522
vn 0.0859 0.7531 0.6522
vn 0.0859 -0.7531 0.6522
vn -0.0859 -0.7531 -0.6522
vn -0.2518 0.7531 -0.6078
vn 0.2518 0.7531 0.6078
vn 0.2518 -0.7531 0.6078
vn -0.2518 -0.7531 -0.6078
vn -0.4005 0.7531 -0.5219
vn 0.4005 0.7531 0.5219
vn 0.4005 -0.7531 0.5219
vn -0.4005 -0.7531 -0.5219
vn -0.5219 0.7531 -0.4005
vn 0.5219 0.7531 0.4005
vn 0.5219 -0.7531 0.4005
vn -0.5219 -0.7531 -0.4005
vn -0.6078 0.7531 -0.2518
vn 0.6078 0.7531 0.2518
vn 0.6078 -0.7531 0.2518
vn -0.6078 -0.7531 -0.2518
vn -0.6522 0.7531 -0.0859
vn 0.6522 0.7531 0.0859
vn 0.6522 -0.7531 0.0859
vn -0.6522 -0.7531 -0.0859
usemtl None
s off
f 1/1/1 8/2/1 2/3/1
f 2/4/2 9/5/2 3/6/2
f 9/7/3 4/8/3 3/9/3
f 10/10/4 5/11/4 4/12/4
f 11/13/5 6/14/5 5/15/5
f 6/16/6 7/17/6 1/1/6
f 13/18/7 8/19/7 7/20/7
f 14/21/2 9/22/2 8/23/2
f 15/24/8 10/25/8 9/26/8
f 16/27/9 11/28/9 10/29/9
f 17/30/5 12/31/5 11/32/5
f 12/33/10 13/34/10 7/17/10
f 19/35/11 14/36/11 13/37/11
f 20/38/2 15/39/2 14/40/2
f 21/41/12 16/42/12 15/43/12
f 22/44/13 17/45/13 16/46/13
f 23/47/5 18/48/5 17/49/5
f 24/50/14 13/51/14 18/52/14
f 19/53/15 26/54/15 20/55/15
f 20/56/2 27/57/2 21/58/2
f 21/59/16 28/60/16 22/61/16
f 22/62/17 29/63/17 23/64/17
f 29/65/5 24/66/5 23/67/5
f 30/68/18 19/69/18 24/70/18
f 25/71/19 32/72/19 26/73/19
f 32/74/2 27/75/2 26/76/2
f 27/77/20 34/78/20 28/79/20
f 34/80/21 29/81/21 28/82/21
f 35/83/5 30/84/5 29/85/5
f 36/86/22 25/87/22 30/88/22
f 37/89/23 32/90/23 31/91/23
f 38/92/2 33/93/2 32/94/2
f 39/95/24 34/96/24 33/97/24
f 34/98/25 41/99/25 35/100/25
f 41/101/5 36/102/5 35/103/5
f 36/104/26 37/105/26 31/106/26
f 43/107/27 38/108/27 37/109/27
f 44/110/2 39/111/2 38/112/2
f 45/113/28 40/114/28 39/115/28
f 40/116/29 47/117/29 41/118/29
f 47/119/5 42/120/5 41/121/5
f 48/122/30 37/123/30 42/124/30
f 49/125/31 44/126/31 43/127/31
f 44/128/2 51/129/2 45/130/2
f 51/131/32 46/132/32 45/133/32
f 52/134/33 47/135/33 46/136/33
f 53/137/5 48/138/5 47/139/5
f 48/140/34 49/141/34 43/142/34
f 55/143/35 50/144/35 49/145/35
f 56/146/2 51/147/2 50/148/2
f 51/149/36 58/150/36 52/151/36
f 58/152/37 53/153/37 52/154/37
f 53/155/5 60/156/5 54/157/5
f 60/158/38 49/159/38 54/160/38
f 55/161/39 62/162/39 56/163/39
f 56/164/2 63/165/2 57/166/2
f 57/167/40 64/168/40 58/169/40
f 64/170/41 59/171/41 58/172/41
f 65/173/5 60/174/5 59/175/5
f 66/176/42 55/177/42 60/178/42
f 67/179/43 62/180/43 61/181/43
f 68/182/2 63/183/2 62/184/2
f 63/185/44 70/186/44 64/187/44
f 70/188/45 65/189/45 64/190/45
f 71/191/5 66/192/5 65/193/5
f 72/194/46 61/195/46 66/196/46
f 73/197/47 68/198/47 67/199/47
f 74/200/2 69/201/2 68/202/2
f 75/203/48 70/204/48 69/205/48
f 76/206/49 71/207/49 70/208/49
f 77/209/5 72/210/5 71/211/5
f 78/212/50 67/213/50 72/214/50
f 79/215/3 74/216/3 73/217/3
f 74/218/2 81/219/2 75/220/2
f 81/221/1 76/222/1 75/223/1
f 82/224/6 77/225/6 76/226/6
f 83/227/5 78/228/5 77/229/5
f 84/230/4 73/231/4 78/232/4
f 85/233/8 80/234/8 79/235/8
f 80/236/2 87/237/2 81/238/2
f 81/239/7 88/240/7 82/241/7
f 88/242/10 83/243/10 82/244/10
f 89/245/5 84/246/5 83/247/5
f 90/248/9 79/249/9 84/250/9
f 91/251/12 86/252/12 85/253/12
f 92/254/2 87/255/2 86/256/2
f 93/257/11 88/258/11 87/259/11
f 94/260/14 89/261/14 88/262/14
f 89/263/5 96/264/5 90/265/5
f 96/266/13 85/267/13 90/268/13
f 97/269/16 92/270/16 91/271/16
f 92/272/2 99/273/2 93/274/2
f 99/275/15 94/276/15 93/277/15
f 94/278/18 101/279/18 95/280/18
f 101/281/5 96/282/5 95/283/5
f 102/284/17 91/285/17 96/286/17
f 97/287/20 104/288/20 98/289/20
f 104/290/2 99/291/2 98/292/2
f 105/293/19 100/294/19 99/295/19
f 100/296/22 107/297/22 101/298/22
f 101/299/5 108/300/5 102/301/5
f 108/302/21 97/303/21 102/304/21
f 103/305/24 110/306/24 104/307/24
f 110/308/2 105/309/2 104/310/2
f 111/311/23 106/312/23 105/313/23
f 112/314/26 107/315/26 106/316/26
f 107/317/5 114/318/5 108/319/5
f 114/320/25 103/321/25 108/322/25
f 115/323/28 110/324/28 109/325/28
f 110/326/2 117/327/2 111/328/2
f 117/329/27 112/330/27 111/331/27
f 118/332/30 113/333/30 112/334/30
f 119/335/5 114/336/5 113/337/5
f 120/338/29 109/339/29 114/340/29
f 121/341/32 116/342/32 115/343/32
f 122/344/2 117/345/2 116/346/2
f 123/347/31 118/348/31 117/349/31
f 124/350/34 119/351/34 118/352/34
f 125/353/5 120/354/5 119/355/5
f 126/356/33 115/357/33 120/358/33
f 121/359/36 128/360/36 122/361/36
f 122/362/2 129/363/2 123/364/2
f 129/365/35 124/366/35 123/367/35
f 130/368/38 125/369/38 124/370/38
f 131/371/5 126/372/5 125/373/5
f 132/374/37 121/375/37 126/376/37
f 127/377/40 134/378/40 128/379/40
f 134/380/2 129/381/2 128/382/2
f 129/383/39 136/384/39 130/385/39
f 136/386/42 131/387/42 130/388/42
f 131/389/5 138/390/5 132/391/5
f 132/392/41 133/393/41 127/394/41
f 133/395/44 140/396/44 134/397/44
f 140/398/2 135/399/2 134/400/2
f 135/401/43 142/402/43 136/403/43
f 142/404/46 137/405/46 136/406/46
f 137/407/5 144/408/5 138/409/5
f 144/410/45 133/411/45 138/412/45
f 1/413/48 140/414/48 139/415/48
f 2/416/2 141/417/2 140/418/2
f 3/419/47 142/420/47 141/421/47
f 4/422/50 143/423/50 142/424/50
f 5/425/5 144/426/5 143/427/5
f 6/16/49 139/428/49 144/429/49
f 1/1/1 7/430/1 8/2/1
f 2/4/2 8/431/2 9/5/2
f 9/7/3 10/432/3 4/8/3
f 10/10/4 11/433/4 5/11/4
f 11/13/5 12/434/5 6/14/5
f 6/16/6 12/434/6 7/17/6
f 13/18/7 14/435/7 8/19/7
f 14/21/2 15/436/2 9/22/2
f 15/24/8 16/437/8 10/25/8
f 16/27/9 17/438/9 11/28/9
f 17/30/5 18/439/5 12/31/5
f 12/33/10 18/440/10 13/34/10
f 19/35/11 20/441/11 14/36/11
f 20/38/2 21/442/2 15/39/2
f 21/41/12 22/443/12 16/42/12
f 22/44/13 23/444/13 17/45/13
f 23/47/5 24/445/5 18/48/5
f 24/50/14 19/446/14 13/51/14
f 19/53/15 25/447/15 26/54/15
f 20/56/2 26/448/2 27/57/2
f 21/59/16 27/449/16 28/60/16
f 22/62/17 28/450/17 29/63/17
f 29/65/5 30/451/5 24/66/5
f 30/68/18 25/452/18 19/69/18
f 25/71/19 31/453/19 32/72/19
f 32/74/2 33/454/2 27/75/2
f 27/77/20 33/455/20 34/78/20
f 34/80/21 35/456/21 29/81/21
f 35/83/5 36/457/5 30/84/5
f 36/86/22 31/458/22 25/87/22
f 37/89/23 38/459/23 32/90/23
f 38/92/2 39/460/2 33/93/2
f 39/95/24 40/461/24 34/96/24
f 34/98/25 40/462/25 41/99/25
f 41/101/5 42/463/5 36/102/5
f 36/104/26 42/464/26 37/105/26
f 43/107/27 44/465/27 38/108/27
f 44/110/2 45/466/2 39/111/2
f 45/113/28 46/467/28 40/114/28
f 40/116/29 46/468/29 47/117/29
f 47/119/5 48/469/5 42/120/5
f 48/122/30 43/470/30 37/123/30
f 49/125/31 50/471/31 44/126/31
f 44/128/2 50/472/2 51/129/2
f 51/131/32 52/473/32 46/132/32
f 52/134/33 53/474/33 47/135/33
f 53/137/5 54/475/5 48/138/5
f 48/140/34 54/476/34 49/141/34
f 55/143/35 56/477/35 50/144/35
f 56/146/2 57/478/2 51/147/2
f 51/149/36 57/479/36 58/150/36
f 58/152/37 59/480/37 53/153/37
f 53/155/5 59/481/5 60/156/5
f 60/158/38 55/482/38 49/159/38
f 55/161/39 61/483/39 62/162/39
f 56/164/2 62/484/2 63/165/2
f 57/167/40 63/485/40 64/168/40
f 64/170/41 65/486/41 59/171/41
f 65/173/5 66/487/5 60/174/5
f 66/176/42 61/488/42 55/177/42
f 67/179/43 68/489/43 62/180/43
f 68/182/2 69/490/2 63/183/2
f 63/185/44 69/491/44 70/186/44
f 70/188/45 71/492/45 65/189/45
f 71/191/5 72/493/5 66/192/5
f 72/194/46 67/494/46 61/195/46
f 73/197/47 74/495/47 68/198/47
f 74/200/2 75/496/2 69/201/2
f 75/203/48 76/497/48 70/204/48
f 76/206/49 77/498/49 71/207/49
f 77/209/5 78/499/5 72/210/5
f 78/212/50 73/500/50 67/213/50
f 79/215/3 80/501/3 74/216/3
f 74/218/2 80/502/2 81/219/2
f 81/221/1 82/503/1 76/222/1
f 82/224/6 83/504/6 77/225/6
f 83/227/5 84/505/5 78/228/5
f 84/230/4 79/506/4 73/231/4
f 85/233/8 86/507/8 80/234/8
f 80/236/2 86/508/2 87/237/2
f 81/239/7 87/509/7 88/240/7
f 88/242/10 89/510/10 83/243/10
f 89/245/5 90/511/5 84/246/5
f 90/248/9 85/512/9 79/249/9
f 91/251/12 92/513/12 86/252/12
f 92/254/2 93/514/2 87/255/2
f 93/257/11 94/515/11 88/258/11
f 94/260/14 95/516/14 89/261/14
f 89/263/5 95/517/5 96/264/5
f 96/266/13 91/518/13 85/267/13
f 97/269/16 98/519/16 92/270/16
f 92/272/2 98/520/2 99/273/2
f 99/275/15 100/521/15 94/276/15
f 94/278/18 100/522/18 101/279/18
f 101/281/5 102/523/5 96/282/5
f 102/284/17 97/524/17 91/285/17
f 97/287/20 103/525/20 104/288/20
f 104/290/2 105/526/2 99/291/2
f 105/293/19 106/527/19 100/294/19
f 100/296/22 106/528/22 107/297/22
f 101/299/5 107/529/5 108/300/5
f 108/302/21 103/530/21 97/303/21
f 103/305/24 109/531/24 110/306/24
f 110/308/2 111/532/2 105/309/2
f 111/311/23 112/533/23 106/312/23
f 112/314/26 113/534/26 107/315/26
f 107/317/5 113/535/5 114/318/5
f 114/320/25 109/536/25 103/321/25
f 115/323/28 116/537/28 110/324/28
f 110/326/2 116/538/2 117/327/2
f 117/329/27 118/539/27 112/330/27
f 118/332/30 119/540/30 113/333/30
f 119/335/5 120/541/5 114/336/5
f 120/338/29 115/542/29 109/339/29
f 121/341/32 122/543/32 116/342/32
f 122/344/2 123/544/2 117/345/2
f 123/347/31 124/545/31 118/348/31
f 124/350/34 125/546/34 119/351/34
f 125/353/5 126/547/5 120/354/5
f 126/356/33 121/548/33 115/357/33
f 121/359/36 127/549/36 128/360/36
f 122/362/2 128/550/2 129/363/2
f 129/365/35 130/551/35 124/366/35
f 130/368/38 131/552/38 125/369/38
f 131/371/5 132/553/5 126/372/5
f 132/374/37 127/554/37 121/375/37
f 127/377/40 133/555/40 134/378/40
f 134/380/2 135/556/2 129/381/2
f 129/383/39 135/557/39 136/384/39
f 136/386/42 137/558/42 131/387/42
f 131/389/5 137/559/5 138/390/5
f 132/392/41 138/560/41 133/393/41
f 133/395/44 139/561/44 140/396/44
f 140/398/2 141/562/2 135/399/2
f 135/401/43 141/563/43 142/402/43
f 142/404/46 143/564/46 137/405/46
f 137/407/5 143/565/5 144/408/5
f 144/410/45 139/566/45 133/411/45
f 1/413/48 2/567/48 140/414/48
f 2/416/2 3/568/2 141/417/2
f 3/419/47 4/569/47 142/420/47
f 4/422/50 5/570/50 143/423/50
f 5/425/5 6/571/5 144/426/5
f 6/16/49 1/572/49 139/428/49
