# Blender v2.78 (sub 0) OBJ File: 'letter.blend'
# www.blender.org
o A
v 0.145363 0.100000 0.061545
v -0.230637 0.100000 0.262545
v -0.037637 0.100000 -0.423455
v 0.336363 0.100000 0.262545
v 0.105363 0.100000 -0.026455
v -0.106637 0.100000 -0.026455
v 0.236363 -0.100000 0.262545
v 0.105363 -0.100000 -0.026455
v 0.236363 0.100000 0.262545
v 0.145363 -0.100000 0.061545
v -0.144637 -0.100000 0.061545
v -0.144637 0.100000 0.061545
v -0.230637 -0.100000 0.262545
v -0.330637 -0.100000 0.262545
v -0.330637 0.100000 0.262545
v -0.037637 -0.100000 -0.423455
v 0.031363 -0.100000 -0.423455
v 0.031363 0.100000 -0.423455
v 0.336363 -0.100000 0.262545
v -0.004637 -0.100000 -0.273455
v -0.004637 0.100000 -0.273455
v -0.106637 -0.100000 -0.026455
vt 0.0000 0.0000
vt 1.0000 0.0000
vt 1.0000 1.0000
vt 1.0000 0.0000
vt 1.0000 1.0000
vt 0.0000 0.0000
vt 1.0000 0.0000
vt 1.0000 0.0000
vt 1.0000 1.0000
vt 0.0000 0.0000
vt 1.0000 0.0000
vt 1.0000 1.0000
vt 0.0000 0.0000
vt 1.0000 0.0000
vt 1.0000 0.0000
vt 1.0000 1.0000
vt 0.0000 0.0000
vt 1.0000 0.0000
vt 1.0000 1.0000
vt 0.0000 0.0000
vt 1.0000 1.0000
vt 0.0000 0.0000
vt 1.0000 0.0000
vt 1.0000 1.0000
vt 0.0000 0.0000
vt 1.0000 1.0000
vt 0.0000 0.0000
vt 1.0000 0.0000
vt 0.0000 0.0000
vt 1.0000 1.0000
vt 1.0000 0.0000
vt 0.0000 0.0000
vt 1.0000 1.0000
vt 0.0000 0.0000
vt 1.0000 0.0000
vt 0.0000 0.0000
vt 1.0000 1.0000
vt 1.0000 0.0000
vt 0.0000 0.0000
vt 1.0000 1.0000
vt 1.0000 0.0000
vt 1.0000 1.0000
vt 1.0000 1.0000
vt 0.0000 0.0000
vt 1.0000 0.0000
vt 1.0000 1.0000
vt 0.0000 0.0000
vt 1.0000 1.0000
vt 0.0000 0.0000
vt 1.0000 0.0000
vt 0.0000 0.0000
vt 1.0000 0.0000
vt 1.0000 0.0000
vt 1.0000 1.0000
vt 0.0000 0.0000
vt 1.0000 0.0000
vt 1.0000 1.0000
vt 1.0000 1.0000
vt 1.0000 1.0000
vt 1.0000 1.0000
vn 0.0000 1.0000 0.0000
vn 0.0000 -1.0000 0.0000
vn -0.2842 0.8515 0.4406
vn -0.4324 -0.6030 0.6703
vn -0.4324 0.6030 0.6703
vn 0.2863 0.8542 0.4340
vn -0.2842 -0.8515 0.4406
vn 0.4399 0.6016 0.6667
vn 0.2863 -0.8542 0.4340
vn -0.6919 0.5590 0.4568
vn 0.4399 -0.6016 0.6667
vn -0.4401 0.6016 -0.6666
vn -0.6919 -0.5590 0.4568
vn 0.4348 0.6026 -0.6692
vn -0.4401 -0.6016 -0.6666
vn 0.6955 0.5585 0.4519
vn 0.4348 -0.6026 -0.6692
vn 0.6955 -0.5585 0.4519
vn 0.0030 0.9753 0.2207
vn -0.2653 -0.9486 -0.1722
vn -0.2653 0.9486 -0.1722
vn 0.2691 0.9461 -0.1800
vn 0.0030 -0.9753 0.2207
vn 0.2691 -0.9461 -0.1800
s off
f 15/1/1 18/2/1 3/3/1
f 15/1/1 21/4/1 18/5/1
f 21/6/1 4/7/1 18/5/1
f 15/1/1 6/8/1 21/9/1
f 5/10/1 4/7/1 21/9/1
f 15/1/1 12/11/1 6/12/1
f 12/13/1 5/14/1 6/12/1
f 12/13/1 1/15/1 5/16/1
f 1/17/1 4/7/1 5/16/1
f 15/1/1 2/18/1 12/19/1
f 9/20/1 4/7/1 1/21/1
f 17/22/2 14/23/2 16/24/2
f 20/25/2 14/23/2 17/26/2
f 19/27/2 20/28/2 17/26/2
f 22/29/2 14/23/2 20/30/2
f 19/27/2 8/31/2 20/30/2
f 11/32/2 14/23/2 22/33/2
f 8/34/2 11/35/2 22/33/2
f 10/36/2 11/35/2 8/37/2
f 19/27/2 10/38/2 8/37/2
f 13/39/2 14/23/2 11/40/2
f 19/27/2 7/41/2 10/42/2
s 1
f 1/17/3 7/41/4 9/43/5
f 12/13/6 10/38/7 1/21/3
f 2/44/8 11/35/9 12/19/6
f 15/1/10 13/45/11 2/46/8
f 3/47/12 14/23/13 15/48/10
f 18/49/14 16/50/15 3/3/12
f 4/51/16 17/52/17 18/5/14
f 9/20/5 19/53/18 4/54/16
f 21/6/19 8/31/20 5/16/21
f 6/55/22 20/28/23 21/9/19
f 5/10/21 22/56/24 6/12/22
f 1/17/3 10/38/7 7/57/4
f 12/13/6 11/35/9 10/42/7
f 2/44/8 13/45/11 11/40/9
f 15/1/10 14/23/13 13/58/11
f 3/47/12 16/50/15 14/59/13
f 18/49/14 17/52/17 16/24/15
f 4/51/16 19/53/18 17/26/17
f 9/20/5 7/41/4 19/60/18
f 21/6/19 20/28/23 8/37/20
f 6/55/22 22/56/24 20/30/23
f 5/10/21 8/31/20 22/33/24
