# Blender v2.78 (sub 0) OBJ File: 'letter.blend'
# www.blender.org
o C
v 0.142895 0.100000 -0.241641
v -0.244730 0.100000 0.002234
v -0.081042 0.100000 0.242280
v 0.031270 0.100000 0.261234
v 0.210426 0.100000 0.217359
v 0.269270 0.100000 0.184234
v 0.269270 0.100000 0.291234
v 0.160770 0.100000 0.334359
v 0.022270 0.100000 0.351234
v -0.143230 0.100000 0.318218
v -0.257730 0.100000 0.234859
v -0.324230 0.100000 0.124687
v -0.345730 0.100000 0.011234
v -0.317808 0.100000 -0.132767
v -0.121715 0.100000 -0.321766
v 0.196317 0.100000 -0.317970
v 0.262270 0.100000 -0.187766
v 0.201223 -0.100000 -0.219532
v 0.027270 -0.100000 -0.258766
v -0.081043 -0.100000 -0.239079
v -0.224167 -0.100000 -0.101829
v -0.224667 -0.100000 0.107249
v -0.168230 -0.100000 0.189109
v -0.081042 -0.100000 0.242280
v 0.031270 -0.100000 0.261234
v 0.150270 -0.100000 0.241484
v 0.210426 -0.100000 0.217359
v 0.217458 -0.100000 0.315374
v 0.160770 -0.100000 0.334359
v 0.022270 -0.100000 0.351234
v -0.143230 -0.100000 0.318218
v -0.257730 -0.100000 0.234859
v -0.324230 -0.100000 0.124687
v -0.317808 -0.100000 -0.132767
v -0.121715 -0.100000 -0.321766
v 0.028270 -0.100000 -0.348767
v 0.081285 -0.100000 -0.345501
v 0.136645 -0.100000 -0.335392
v 0.196317 -0.100000 -0.317970
v 0.262270 -0.100000 -0.292767
v 0.201223 0.100000 -0.219532
v 0.142895 -0.100000 -0.241641
v 0.085504 -0.100000 -0.254563
v 0.085504 0.100000 -0.254563
v 0.027270 0.100000 -0.258766
v -0.081043 0.100000 -0.239079
v -0.167230 -0.100000 -0.184516
v -0.167230 0.100000 -0.184516
v -0.224167 0.100000 -0.101829
v -0.244730 -0.100000 0.002234
v -0.224667 0.100000 0.107249
v -0.168230 0.100000 0.189109
v 0.090114 -0.100000 0.256234
v 0.090114 0.100000 0.256234
v 0.150270 0.100000 0.241484
v 0.269270 -0.100000 0.184234
v 0.269270 -0.100000 0.291234
v 0.217458 0.100000 0.315374
v 0.096582 -0.100000 0.346780
v 0.096582 0.100000 0.346780
v -0.345730 -0.100000 0.011234
v -0.240105 -0.100000 -0.246767
v -0.240105 0.100000 -0.246767
v 0.028270 0.100000 -0.348767
v 0.081285 0.100000 -0.345501
v 0.136645 0.100000 -0.335392
v 0.262270 0.100000 -0.292767
v 0.262270 -0.100000 -0.187766
vt 0.0000 0.0000
vt 1.0000 0.0000
vt 1.0000 1.0000
vt 1.0000 0.0000
vt 1.0000 1.0000
vt 1.0000 0.0000
vt 1.0000 1.0000
vt 0.0000 0.0000
vt 1.0000 1.0000
vt 1.0000 0.0000
vt 1.0000 1.0000
vt 1.0000 0.0000
vt 1.0000 1.0000
vt 0.0000 0.0000
vt 1.0000 0.0000
vt 0.0000 0.0000
vt 1.0000 0.0000
vt 0.0000 0.0000
vt 1.0000 0.0000
vt 0.0000 0.0000
vt 1.0000 0.0000
vt 1.0000 0.0000
vt 1.0000 1.0000
vt 0.0000 0.0000
vt 1.0000 1.0000
vt 1.0000 0.0000
vt 1.0000 1.0000
vt 1.0000 0.0000
vt 1.0000 1.0000
vt 0.0000 0.0000
vt 1.0000 1.0000
vt 1.0000 0.0000
vt 1.0000 1.0000
vt 1.0000 0.0000
vt 1.0000 1.0000
vt 0.0000 0.0000
vt 1.0000 1.0000
vt 1.0000 0.0000
vt 1.0000 1.0000
vt 0.0000 0.0000
vt 1.0000 1.0000
vt 0.0000 0.0000
vt 1.0000 0.0000
vt 1.0000 1.0000
vt 1.0000 0.0000
vt 1.0000 1.0000
vt 0.0000 0.0000
vt 1.0000 1.0000
vt 0.0000 0.0000
vt 1.0000 1.0000
vt 0.0000 0.0000
vt 1.0000 1.0000
vt 1.0000 0.0000
vt 1.0000 1.0000
vt 0.0000 0.0000
vt 1.0000 1.0000
vt 1.0000 1.0000
vt 1.0000 0.0000
vt 1.0000 1.0000
vt 1.0000 0.0000
vt 1.0000 1.0000
vt 0.0000 0.0000
vt 1.0000 1.0000
vt 1.0000 0.0000
vt 1.0000 1.0000
vt 0.0000 0.0000
vt 1.0000 0.0000
vt 1.0000 1.0000
vt 0.0000 0.0000
vt 1.0000 1.0000
vt 0.0000 0.0000
vt 1.0000 1.0000
vt 1.0000 0.0000
vt 1.0000 1.0000
vt 0.0000 0.0000
vt 1.0000 1.0000
vt 0.0000 0.0000
vt 1.0000 1.0000
vt 0.0000 0.0000
vt 1.0000 0.0000
vt 0.0000 0.0000
vt 1.0000 0.0000
vt 0.0000 0.0000
vt 1.0000 0.0000
vt 0.0000 0.0000
vt 1.0000 0.0000
vt 0.0000 0.0000
vt 1.0000 1.0000
vt 1.0000 0.0000
vt 1.0000 1.0000
vt 0.0000 0.0000
vt 1.0000 1.0000
vt 0.0000 0.0000
vt 1.0000 1.0000
vt 1.0000 0.0000
vt 1.0000 1.0000
vt 0.0000 0.0000
vt 1.0000 1.0000
vt 0.0000 0.0000
vt 1.0000 1.0000
vt 1.0000 0.0000
vt 1.0000 1.0000
vt 0.0000 0.0000
vt 1.0000 1.0000
vt 1.0000 0.0000
vt 1.0000 1.0000
vt 0.0000 0.0000
vt 1.0000 0.0000
vt 1.0000 1.0000
vt 0.0000 0.0000
vt 1.0000 1.0000
vt 1.0000 0.0000
vt 1.0000 1.0000
vt 1.0000 0.0000
vt 1.0000 1.0000
vt 1.0000 0.0000
vt 1.0000 1.0000
vt 0.0000 0.0000
vt 1.0000 1.0000
vt 1.0000 0.0000
vt 1.0000 1.0000
vt 1.0000 1.0000
vt 0.0000 0.0000
vt 1.0000 1.0000
vt 0.0000 0.0000
vt 1.0000 1.0000
vt 1.0000 0.0000
vt 1.0000 1.0000
vt 0.0000 0.0000
vt 1.0000 1.0000
vt 1.0000 1.0000
vt 1.0000 1.0000
vt 1.0000 1.0000
vt 0.0000 0.0000
vt 0.0000 0.0000
vt 1.0000 0.0000
vt 0.0000 0.0000
vt 1.0000 0.0000
vt 0.0000 0.0000
vt 1.0000 0.0000
vt 0.0000 0.0000
vt 1.0000 0.0000
vt 0.0000 0.0000
vt 1.0000 0.0000
vt 0.0000 0.0000
vt 1.0000 0.0000
vt 1.0000 0.0000
vt 0.0000 0.0000
vt 0.0000 0.0000
vt 1.0000 0.0000
vt 0.0000 0.0000
vt 1.0000 0.0000
vt 0.0000 0.0000
vt 1.0000 0.0000
vt 0.0000 0.0000
vt 1.0000 0.0000
vt 1.0000 0.0000
vt 1.0000 1.0000
vt 1.0000 1.0000
vt 0.0000 0.0000
vt 0.0000 0.0000
vt 1.0000 0.0000
vt 0.0000 0.0000
vt 1.0000 0.0000
vt 0.0000 0.0000
vt 1.0000 0.0000
vt 0.0000 0.0000
vt 1.0000 0.0000
vt 0.0000 0.0000
vt 1.0000 0.0000
vt 1.0000 0.0000
vt 1.0000 1.0000
vt 1.0000 1.0000
vt 1.0000 1.0000
vt 1.0000 1.0000
vt 1.0000 1.0000
vt 1.0000 1.0000
vt 1.0000 1.0000
vn 0.0000 1.0000 0.0000
vn 0.0000 -1.0000 0.0000
vn -0.1987 0.7233 0.6613
vn -0.2834 -0.7205 0.6328
vn -0.2834 0.7205 0.6328
vn -0.1008 0.7243 0.6821
vn -0.1987 -0.7233 0.6613
vn 0.0364 0.7365 0.6754
vn -0.1008 -0.7243 0.6821
vn 0.2393 0.7527 0.6132
vn 0.0364 -0.7365 0.6754
vn 0.4545 0.7551 0.4724
vn 0.2393 -0.7527 0.6132
vn 0.6035 0.7556 0.2545
vn 0.4545 -0.7551 0.4724
vn 0.6584 0.7526 0.0021
vn 0.6035 -0.7556 0.2545
vn 0.6033 0.7565 -0.2524
vn 0.6584 -0.7526 0.0021
vn 0.4488 0.7571 -0.4747
vn 0.6033 -0.7565 -0.2524
vn 0.2305 0.7522 -0.6172
vn 0.4488 -0.7571 -0.4747
vn 0.0279 0.7365 -0.6758
vn 0.2305 -0.7522 -0.6172
vn -0.1115 0.7250 -0.6796
vn 0.0279 -0.7365 -0.6758
vn -0.2112 0.7233 -0.6574
vn -0.1115 -0.7250 -0.6796
vn -0.2990 0.7222 -0.6237
vn -0.2112 -0.7233 -0.6574
vn 0.4198 0.5551 -0.7181
vn -0.2990 -0.7222 -0.6237
vn 0.6722 0.6038 0.4284
vn 0.4198 -0.5551 -0.7181
vn 0.2665 0.6946 0.6681
vn 0.6722 -0.6038 0.4284
vn 0.1834 0.6926 0.6976
vn 0.2665 -0.6946 0.6681
vn 0.0903 0.6926 0.7156
vn 0.1834 -0.6926 0.6976
vn -0.0502 0.6794 0.7320
vn 0.0903 -0.6926 0.7156
vn -0.3009 0.6619 0.6865
vn -0.0502 -0.6794 0.7320
vn -0.5502 0.6652 0.5047
vn -0.3009 -0.6619 0.6865
vn -0.6939 0.6694 0.2653
vn -0.5502 -0.6652 0.5047
vn -0.7450 0.6671 -0.0016
vn -0.6939 -0.6694 0.2653
vn -0.6899 0.6643 -0.2875
vn -0.7450 -0.6671 -0.0016
vn -0.5196 0.6642 -0.5374
vn -0.6899 -0.6643 -0.2875
vn -0.2706 0.6663 -0.6948
vn -0.5196 -0.6642 -0.5374
vn -0.0426 0.6811 -0.7309
vn -0.2706 -0.6663 -0.6948
vn 0.0869 0.6939 -0.7147
vn -0.0426 -0.6811 -0.7309
vn 0.1654 0.6956 -0.6991
vn 0.0869 -0.6939 -0.7147
vn 0.2283 0.6981 -0.6786
vn 0.1654 -0.6956 -0.6991
vn 0.6596 0.5990 -0.4540
vn 0.2283 -0.6981 -0.6786
vn 0.4312 0.5562 0.7104
vn 0.6596 -0.5990 -0.4540
vn 0.4312 -0.5562 0.7104
s off
f 15/1/1 65/2/1 64/3/1
f 15/1/1 66/4/1 65/5/1
f 15/1/1 16/6/1 66/7/1
f 63/8/1 16/6/1 15/9/1
f 63/8/1 67/10/1 16/11/1
f 63/8/1 45/12/1 67/13/1
f 45/14/1 44/15/1 67/13/1
f 44/16/1 1/17/1 67/13/1
f 1/18/1 41/19/1 67/13/1
f 41/20/1 17/21/1 67/13/1
f 63/8/1 46/22/1 45/23/1
f 14/24/1 46/22/1 63/25/1
f 14/24/1 48/26/1 46/27/1
f 14/24/1 49/28/1 48/29/1
f 13/30/1 49/28/1 14/31/1
f 13/30/1 2/32/1 49/33/1
f 13/30/1 51/34/1 2/35/1
f 12/36/1 51/34/1 13/37/1
f 12/36/1 52/38/1 51/39/1
f 11/40/1 52/38/1 12/41/1
f 5/42/1 7/43/1 6/44/1
f 11/40/1 3/45/1 52/46/1
f 55/47/1 7/43/1 5/48/1
f 10/49/1 3/45/1 11/50/1
f 54/51/1 7/43/1 55/52/1
f 10/49/1 4/53/1 3/54/1
f 4/55/1 7/43/1 54/56/1
f 10/49/1 7/43/1 4/57/1
f 10/49/1 58/58/1 7/59/1
f 10/49/1 8/60/1 58/61/1
f 9/62/1 8/60/1 10/63/1
f 9/62/1 60/64/1 8/65/1
f 37/66/2 35/67/2 36/68/2
f 38/69/2 35/67/2 37/70/2
f 39/71/2 35/67/2 38/72/2
f 39/71/2 62/73/2 35/74/2
f 40/75/2 62/73/2 39/76/2
f 19/77/2 62/73/2 40/78/2
f 43/79/2 19/80/2 40/78/2
f 42/81/2 43/82/2 40/78/2
f 18/83/2 42/84/2 40/78/2
f 68/85/2 18/86/2 40/78/2
f 20/87/2 62/73/2 19/88/2
f 20/87/2 34/89/2 62/90/2
f 47/91/2 34/89/2 20/92/2
f 21/93/2 34/89/2 47/94/2
f 21/93/2 61/95/2 34/96/2
f 50/97/2 61/95/2 21/98/2
f 22/99/2 61/95/2 50/100/2
f 22/99/2 33/101/2 61/102/2
f 23/103/2 33/101/2 22/104/2
f 23/103/2 32/105/2 33/106/2
f 57/107/2 27/108/2 56/109/2
f 24/110/2 32/105/2 23/111/2
f 57/107/2 26/112/2 27/113/2
f 24/110/2 31/114/2 32/115/2
f 57/107/2 53/116/2 26/117/2
f 25/118/2 31/114/2 24/119/2
f 57/107/2 25/120/2 53/121/2
f 57/107/2 31/114/2 25/122/2
f 28/123/2 31/114/2 57/124/2
f 29/125/2 31/114/2 28/126/2
f 29/125/2 30/127/2 31/128/2
f 59/129/2 30/127/2 29/130/2
s 1
f 1/18/3 18/86/4 41/131/5
f 44/16/6 42/84/7 1/132/3
f 45/14/8 43/82/9 44/133/6
f 46/134/10 19/80/11 45/23/8
f 48/135/12 20/136/13 46/27/10
f 49/137/14 47/138/15 48/29/12
f 2/139/16 21/140/17 49/33/14
f 51/141/18 50/142/19 2/35/16
f 52/143/20 22/144/21 51/39/18
f 3/145/22 23/146/23 52/46/20
f 4/55/24 24/147/25 3/54/22
f 54/51/26 25/120/27 4/57/24
f 55/47/28 53/116/29 54/56/26
f 5/42/30 26/112/31 55/52/28
f 6/148/32 27/108/33 5/48/30
f 7/149/34 56/150/35 6/44/32
f 58/151/36 57/152/37 7/59/34
f 8/153/38 28/154/39 58/61/36
f 60/155/40 29/156/41 8/65/38
f 9/62/42 59/157/43 60/158/40
f 10/49/44 30/127/45 9/159/42
f 11/40/46 31/114/47 10/63/44
f 12/36/48 32/105/49 11/50/46
f 13/30/50 33/101/51 12/41/48
f 14/24/52 61/95/53 13/37/50
f 63/8/54 34/89/55 14/31/52
f 15/1/56 62/73/57 63/25/54
f 64/160/58 35/67/59 15/9/56
f 65/161/60 36/162/61 64/3/58
f 66/163/62 37/164/63 65/5/60
f 16/165/64 38/166/65 66/7/62
f 67/167/66 39/168/67 16/11/64
f 17/169/68 40/170/69 67/13/66
f 41/20/5 68/171/70 17/172/68
f 1/18/3 42/84/7 18/173/4
f 44/16/6 43/82/9 42/174/7
f 45/14/8 19/80/11 43/175/9
f 46/134/10 20/136/13 19/88/11
f 48/135/12 47/138/15 20/92/13
f 49/137/14 21/140/17 47/94/15
f 2/139/16 50/142/19 21/98/17
f 51/141/18 22/144/21 50/100/19
f 52/143/20 23/146/23 22/104/21
f 3/145/22 24/147/25 23/111/23
f 4/55/24 25/120/27 24/119/25
f 54/51/26 53/116/29 25/122/27
f 55/47/28 26/112/31 53/121/29
f 5/42/30 27/108/33 26/117/31
f 6/148/32 56/150/35 27/113/33
f 7/149/34 57/152/37 56/109/35
f 58/151/36 28/154/39 57/124/37
f 8/153/38 29/156/41 28/126/39
f 60/155/40 59/157/43 29/130/41
f 9/62/42 30/127/45 59/176/43
f 10/49/44 31/114/47 30/177/45
f 11/40/46 32/105/49 31/128/47
f 12/36/48 33/101/51 32/115/49
f 13/30/50 61/95/53 33/106/51
f 14/24/52 34/89/55 61/102/53
f 63/8/54 62/73/57 34/96/55
f 15/1/56 35/67/59 62/90/57
f 64/160/58 36/162/61 35/74/59
f 65/161/60 37/164/63 36/68/61
f 66/163/62 38/166/65 37/70/63
f 16/165/64 39/168/67 38/72/65
f 67/167/66 40/170/69 39/76/67
f 17/169/68 68/171/70 40/78/69
f 41/20/5 18/86/4 68/178/70
