# Blender v2.78 (sub 0) OBJ File: 'letter.blend'
# www.blender.org
mtllib C.mtl
o Text_Mesh
v 0.067000 0.100000 -0.601000
v -0.205000 0.100000 -0.340000
v 0.071000 0.100000 -0.081000
v 0.309000 0.100000 -0.158000
v 0.309000 0.100000 -0.051000
v 0.062000 0.100000 0.009000
v -0.306000 0.100000 -0.331000
v 0.068000 0.100000 -0.691000
v 0.302000 0.100000 -0.635000
v 0.302000 0.100000 -0.530000
v 0.067000 -0.100000 -0.601000
v -0.205000 -0.100000 -0.340000
v 0.071000 -0.100000 -0.081000
v 0.309000 -0.100000 -0.158000
v 0.309000 -0.100000 -0.051000
v 0.062000 -0.100000 0.009000
v -0.306000 -0.100000 -0.331000
v 0.068000 -0.100000 -0.691000
v 0.302000 -0.100000 -0.635000
v 0.302000 -0.100000 -0.530000
v 0.067000 -0.100000 -0.601000
v 0.067000 0.100000 -0.601000
v -0.205000 -0.100000 -0.340000
v -0.205000 0.100000 -0.340000
v 0.071000 -0.100000 -0.081000
v 0.071000 0.100000 -0.081000
v 0.309000 -0.100000 -0.158000
v 0.309000 0.100000 -0.158000
v 0.309000 -0.100000 -0.051000
v 0.309000 0.100000 -0.051000
v 0.062000 -0.100000 0.009000
v 0.062000 0.100000 0.009000
v -0.306000 -0.100000 -0.331000
v -0.306000 0.100000 -0.331000
v 0.068000 -0.100000 -0.691000
v 0.068000 0.100000 -0.691000
v 0.302000 -0.100000 -0.635000
v 0.302000 0.100000 -0.635000
v 0.302000 -0.100000 -0.530000
v 0.302000 0.100000 -0.530000
vt 0.6927 0.8710
vt 0.8724 0.6228
vt 0.9323 0.6221
vt 0.8950 0.4664
vt 0.8252 0.4664
vt 0.6987 0.8038
vt 0.5263 0.6201
vt 0.4664 0.6261
vt 0.5063 0.4617
vt 0.5775 0.4617
vt 0.4062 0.7100
vt 0.2265 0.4617
vt 0.4661 0.7106
vt 0.4288 0.8664
vt 0.3589 0.8664
vt 0.2325 0.5289
vt 0.0601 0.7126
vt 0.0002 0.7066
vt 0.0401 0.8710
vt 0.1113 0.8710
vt 0.3738 0.3788
vt 0.6767 0.2860
vt 0.6580 0.4614
vt 0.2033 0.4614
vt 0.3655 0.2158
vt 0.0809 0.4489
vt 0.1875 0.3872
vt 0.0316 0.4085
vt 0.1274 0.3746
vt 0.0002 0.2424
vt 0.1047 0.3533
vt 0.3034 0.0002
vt 0.1141 0.2904
vt 0.8152 0.0512
vt 0.3460 0.1625
vt 0.9998 0.2869
vt 0.7172 0.2326
vt 0.9566 0.4457
vt 0.8084 0.3051
vt 0.7893 0.3428
vn 0.0000 1.0000 0.0000
vn 0.0000 -1.0000 0.0000
vn 1.0000 0.0000 -0.0056
vn 0.2335 0.0000 0.9724
vn 0.2186 0.0000 -0.9758
vn 0.5883 0.0000 -0.8086
vn 0.7861 0.0000 0.6180
vn -0.2510 0.0000 0.9680
vn -0.9999 0.0000 0.0102
vn -0.2626 0.0000 -0.9649
vn 0.7851 0.0000 -0.6194
vn 0.5961 0.0000 0.8029
usemtl None
s off
f 7/1/1 1/2/1 8/3/1
f 1/2/1 9/4/1 8/3/1
f 1/2/1 10/5/1 9/4/1
f 7/1/1 2/6/1 1/2/1
f 7/1/1 3/7/1 2/6/1
f 6/8/1 3/7/1 7/1/1
f 3/7/1 5/9/1 4/10/1
f 6/8/1 5/9/1 3/7/1
f 11/11/2 17/12/2 18/13/2
f 19/14/2 11/11/2 18/13/2
f 20/15/2 11/11/2 19/14/2
f 12/16/2 17/12/2 11/11/2
f 13/17/2 17/12/2 12/16/2
f 13/17/2 16/18/2 17/12/2
f 15/19/2 13/17/2 14/20/2
f 15/19/2 16/18/2 13/17/2
s 1
f 24/21/3 21/22/4 22/23/4
f 26/24/5 23/25/3 24/21/3
f 28/26/6 25/27/5 26/24/5
f 30/28/7 27/29/6 28/26/6
f 32/30/8 29/31/7 30/28/7
f 34/32/9 31/33/8 32/30/8
f 36/34/10 33/35/9 34/32/9
f 38/36/11 35/37/10 36/34/10
f 40/38/12 37/39/11 38/36/11
f 22/23/4 39/40/12 40/38/12
f 24/21/3 23/25/3 21/22/4
f 26/24/5 25/27/5 23/25/3
f 28/26/6 27/29/6 25/27/5
f 30/28/7 29/31/7 27/29/6
f 32/30/8 31/33/8 29/31/7
f 34/32/9 33/35/9 31/33/8
f 36/34/10 35/37/10 33/35/9
f 38/36/11 37/39/11 35/37/10
f 40/38/12 39/40/12 37/39/11
f 22/23/4 21/22/4 39/40/12
