# Blender v2.78 (sub 0) OBJ File: 'letter.blend'
# www.blender.org
mtllib E.mtl
o Text_Mesh
v -0.077000 0.100000 -0.594000
v -0.077000 0.100000 -0.388000
v 0.202000 0.100000 -0.388000
v 0.202000 0.100000 -0.300000
v -0.077000 0.100000 -0.300000
v -0.077000 0.100000 -0.088000
v 0.221000 0.100000 -0.088000
v 0.221000 0.100000 0.000000
v -0.175000 0.100000 0.000000
v -0.175000 0.100000 -0.682000
v 0.212000 0.100000 -0.682000
v 0.212000 0.100000 -0.594000
v -0.077000 -0.100000 -0.594000
v -0.077000 -0.100000 -0.388000
v 0.202000 -0.100000 -0.388000
v 0.202000 -0.100000 -0.300000
v -0.077000 -0.100000 -0.300000
v -0.077000 -0.100000 -0.088000
v 0.221000 -0.100000 -0.088000
v 0.221000 -0.100000 0.000000
v -0.175000 -0.100000 0.000000
v -0.175000 -0.100000 -0.682000
v 0.212000 -0.100000 -0.682000
v 0.212000 -0.100000 -0.594000
v -0.077000 -0.100000 -0.594000
v -0.077000 0.100000 -0.594000
v -0.077000 -0.100000 -0.388000
v -0.077000 0.100000 -0.388000
v 0.202000 -0.100000 -0.388000
v 0.202000 0.100000 -0.388000
v 0.202000 -0.100000 -0.300000
v 0.202000 0.100000 -0.300000
v -0.077000 -0.100000 -0.300000
v -0.077000 0.100000 -0.300000
v -0.077000 -0.100000 -0.088000
v -0.077000 0.100000 -0.088000
v 0.221000 -0.100000 -0.088000
v 0.221000 0.100000 -0.088000
v 0.221000 -0.100000 0.000000
v 0.221000 0.100000 0.000000
v -0.175000 -0.100000 0.000000
v -0.175000 0.100000 0.000000
v -0.175000 -0.100000 -0.682000
v -0.175000 0.100000 -0.682000
v 0.212000 -0.100000 -0.682000
v 0.212000 0.100000 -0.682000
v 0.212000 -0.100000 -0.594000
v 0.212000 0.100000 -0.594000
vt 0.6594 0.9032
vt 0.5995 0.5401
vt 0.6594 0.4863
vt 0.4228 0.4863
vt 0.4228 0.5401
vt 0.5995 0.6660
vt 0.5995 0.7198
vt 0.4289 0.6660
vt 0.4289 0.7198
vt 0.5995 0.8494
vt 0.4173 0.8494
vt 0.4173 0.9032
vt 0.3633 0.5462
vt 0.0001 0.4863
vt 0.4171 0.4863
vt 0.4171 0.7228
vt 0.3633 0.7228
vt 0.2373 0.5462
vt 0.1835 0.5462
vt 0.2373 0.7167
vt 0.1835 0.7167
vt 0.0539 0.5462
vt 0.0539 0.7283
vt 0.0001 0.7283
vt 0.6343 0.2593
vt 0.8215 0.1857
vt 0.7853 0.3037
vt 0.5492 0.1193
vt 0.7239 0.1341
vt 0.5084 0.1145
vt 0.5754 0.0098
vt 0.3874 0.1335
vt 0.5161 0.0001
vt 0.3172 0.2463
vt 0.3373 0.0421
vt 0.1702 0.2410
vt 0.2466 0.1074
vt 0.1667 0.2787
vt 0.0001 0.2272
vt 0.3603 0.3175
vt 0.0155 0.3457
vt 0.7977 0.3602
vt 0.3280 0.4860
vt 0.9012 0.2857
vt 0.8620 0.4860
vt 0.8947 0.2683
vt 0.9999 0.2566
vt 0.9594 0.2008
vn 0.0000 1.0000 0.0000
vn 0.0000 -1.0000 0.0000
vn 0.7071 0.0000 -0.7071
vn 0.7071 0.0000 0.7071
vn -0.7071 0.0000 0.7071
vn -0.7071 0.0000 -0.7071
usemtl None
s off
f 9/1/1 1/2/1 10/3/1
f 1/2/1 11/4/1 10/3/1
f 1/2/1 12/5/1 11/4/1
f 9/1/1 2/6/1 1/2/1
f 9/1/1 5/7/1 2/6/1
f 5/7/1 3/8/1 2/6/1
f 5/7/1 4/9/1 3/8/1
f 9/1/1 6/10/1 5/7/1
f 9/1/1 7/11/1 6/10/1
f 9/1/1 8/12/1 7/11/1
f 13/13/2 21/14/2 22/15/2
f 23/16/2 13/13/2 22/15/2
f 24/17/2 13/13/2 23/16/2
f 14/18/2 21/14/2 13/13/2
f 17/19/2 21/14/2 14/18/2
f 15/20/2 17/19/2 14/18/2
f 16/21/2 17/19/2 15/20/2
f 18/22/2 21/14/2 17/19/2
f 19/23/2 21/14/2 18/22/2
f 20/24/2 21/14/2 19/23/2
s 1
f 28/25/3 25/26/4 26/27/4
f 30/28/3 27/29/3 28/25/3
f 32/30/4 29/31/3 30/28/3
f 34/32/4 31/33/4 32/30/4
f 36/34/3 33/35/4 34/32/4
f 38/36/3 35/37/3 36/34/3
f 40/38/4 37/39/3 38/36/3
f 42/40/5 39/41/4 40/38/4
f 44/42/6 41/43/5 42/40/5
f 46/44/3 43/45/6 44/42/6
f 48/46/4 45/47/3 46/44/3
f 26/27/4 47/48/4 48/46/4
f 28/25/3 27/29/3 25/26/4
f 30/28/3 29/31/3 27/29/3
f 32/30/4 31/33/4 29/31/3
f 34/32/4 33/35/4 31/33/4
f 36/34/3 35/37/3 33/35/4
f 38/36/3 37/39/3 35/37/3
f 40/38/4 39/41/4 37/39/3
f 42/40/5 41/43/5 39/41/4
f 44/42/6 43/45/6 41/43/5
f 46/44/3 45/47/3 43/45/6
f 48/46/4 47/48/4 45/47/3
f 26/27/4 25/26/4 47/48/4
