# Blender v2.78 (sub 0) OBJ File: 'letter.blend'
# www.blender.org
o F
v -0.086799 0.100000 -0.194400
v -0.086799 0.100000 -0.005400
v 0.179201 0.100000 -0.005400
v 0.179201 0.100000 0.082600
v -0.086799 0.100000 0.399600
v -0.184799 0.100000 0.399600
v -0.184799 0.100000 -0.282400
v -0.086799 -0.100000 0.082600
v -0.086799 -0.100000 0.399600
v -0.184799 -0.100000 0.399600
v 0.179201 -0.100000 -0.282400
v 0.179201 -0.100000 -0.194400
v -0.086799 -0.100000 -0.194400
v -0.086799 -0.100000 -0.005400
v 0.179201 -0.100000 -0.005400
v 0.179201 -0.100000 0.082600
v -0.086799 0.100000 0.082600
v -0.184799 -0.100000 -0.282400
v 0.179201 0.100000 -0.282400
v 0.179201 0.100000 -0.194400
vt 0.0000 0.0000
vt 1.0000 0.0000
vt 1.0000 1.0000
vt 0.0000 0.0000
vt 1.0000 0.0000
vt 1.0000 0.0000
vt 1.0000 1.0000
vt 1.0000 0.0000
vt 1.0000 1.0000
vt 1.0000 0.0000
vt 1.0000 1.0000
vt 0.0000 0.0000
vt 1.0000 0.0000
vt 1.0000 0.0000
vt 1.0000 1.0000
vt 1.0000 0.0000
vt 1.0000 1.0000
vt 0.0000 0.0000
vt 1.0000 0.0000
vt 1.0000 1.0000
vt 0.0000 0.0000
vt 1.0000 0.0000
vt 0.0000 0.0000
vt 1.0000 1.0000
vt 0.0000 0.0000
vt 1.0000 1.0000
vt 0.0000 0.0000
vt 1.0000 1.0000
vt 0.0000 0.0000
vt 1.0000 0.0000
vt 0.0000 0.0000
vt 1.0000 1.0000
vt 0.0000 0.0000
vt 1.0000 1.0000
vt 0.0000 0.0000
vt 0.0000 0.0000
vt 1.0000 0.0000
vt 0.0000 0.0000
vt 1.0000 0.0000
vt 1.0000 0.0000
vt 1.0000 1.0000
vt 0.0000 0.0000
vt 1.0000 0.0000
vt 1.0000 1.0000
vt 0.0000 0.0000
vt 1.0000 1.0000
vt 0.0000 0.0000
vt 1.0000 0.0000
vt 0.0000 0.0000
vt 1.0000 0.0000
vt 1.0000 0.0000
vt 1.0000 1.0000
vt 1.0000 1.0000
vt 1.0000 1.0000
vt 1.0000 1.0000
vt 1.0000 1.0000
vn 0.0000 1.0000 0.0000
vn 0.0000 -1.0000 0.0000
vn 0.3015 0.9045 -0.3015
vn 0.3015 -0.9045 0.3015
vn 0.3015 0.9045 0.3015
vn 0.5773 0.5773 -0.5773
vn 0.3015 -0.9045 -0.3015
vn 0.5773 0.5773 0.5773
vn 0.5773 -0.5773 -0.5773
vn 0.5773 -0.5773 0.5773
vn -0.5773 0.5773 0.5773
vn -0.5773 0.5773 -0.5773
vn -0.5773 -0.5773 0.5773
vn -0.5773 -0.5773 -0.5773
s off
f 6/1/1 1/2/1 7/3/1
f 1/4/1 19/5/1 7/3/1
f 1/4/1 20/6/1 19/7/1
f 6/1/1 2/8/1 1/9/1
f 6/1/1 17/10/1 2/11/1
f 17/12/1 3/13/1 2/11/1
f 17/12/1 4/14/1 3/15/1
f 6/1/1 5/16/1 17/17/1
f 13/18/2 10/19/2 18/20/2
f 11/21/2 13/22/2 18/20/2
f 12/23/2 13/22/2 11/24/2
f 14/25/2 10/19/2 13/26/2
f 8/27/2 10/19/2 14/28/2
f 15/29/2 8/30/2 14/28/2
f 16/31/2 8/30/2 15/32/2
f 9/33/2 10/19/2 8/34/2
s 1
f 2/35/3 13/22/4 1/9/5
f 3/36/6 14/37/7 2/11/3
f 4/38/8 15/39/9 3/15/6
f 17/12/5 16/40/10 4/41/8
f 5/42/8 8/30/4 17/17/5
f 6/1/11 9/43/10 5/44/8
f 7/45/12 10/19/13 6/46/11
f 19/47/6 18/48/14 7/3/12
f 20/49/8 11/50/9 19/7/6
f 1/4/5 12/51/10 20/52/8
f 2/35/3 14/37/7 13/26/4
f 3/36/6 15/39/9 14/28/7
f 4/38/8 16/40/10 15/32/9
f 17/12/5 8/30/4 16/53/10
f 5/42/8 9/43/10 8/34/4
f 6/1/11 10/19/13 9/54/10
f 7/45/12 18/48/14 10/55/13
f 19/47/6 11/50/9 18/20/14
f 20/49/8 12/51/10 11/24/9
f 1/4/5 13/22/4 12/56/10
