# Blender v2.78 (sub 0) OBJ File: 'letter.blend'
# www.blender.org
mtllib F.mtl
o Text_Mesh
v -0.060500 0.100000 -0.594000
v -0.060500 0.100000 -0.405000
v 0.205500 0.100000 -0.405000
v 0.205500 0.100000 -0.317000
v -0.060500 0.100000 -0.317000
v -0.060500 0.100000 0.000000
v -0.158500 0.100000 0.000000
v -0.158500 0.100000 -0.682000
v 0.205500 0.100000 -0.682000
v 0.205500 0.100000 -0.594000
v -0.060500 -0.100000 -0.594000
v -0.060500 -0.100000 -0.405000
v 0.205500 -0.100000 -0.405000
v 0.205500 -0.100000 -0.317000
v -0.060500 -0.100000 -0.317000
v -0.060500 -0.100000 0.000000
v -0.158500 -0.100000 0.000000
v -0.158500 -0.100000 -0.682000
v 0.205500 -0.100000 -0.682000
v 0.205500 -0.100000 -0.594000
v -0.060500 -0.100000 -0.594000
v -0.060500 0.100000 -0.594000
v -0.060500 -0.100000 -0.405000
v -0.060500 0.100000 -0.405000
v 0.205500 -0.100000 -0.405000
v 0.205500 0.100000 -0.405000
v 0.205500 -0.100000 -0.317000
v 0.205500 0.100000 -0.317000
v -0.060500 -0.100000 -0.317000
v -0.060500 0.100000 -0.317000
v -0.060500 -0.100000 0.000000
v -0.060500 0.100000 0.000000
v -0.158500 -0.100000 0.000000
v -0.158500 0.100000 0.000000
v -0.158500 -0.100000 -0.682000
v -0.158500 0.100000 -0.682000
v 0.205500 -0.100000 -0.682000
v 0.205500 0.100000 -0.682000
v 0.205500 -0.100000 -0.594000
v 0.205500 0.100000 -0.594000
vt 0.0489 0.9999
vt 0.2482 0.6635
vt 0.3337 0.6607
vt 0.1527 0.5087
vt 0.1159 0.5525
vt 0.1693 0.7575
vt 0.1325 0.8013
vt 0.0370 0.6464
vt 0.0002 0.6902
vt 0.0001 0.9589
vt 0.7197 0.5723
vt 0.3340 0.5087
vt 0.7768 0.5087
vt 0.7768 0.7451
vt 0.7197 0.7451
vt 0.5970 0.5723
vt 0.5398 0.5723
vt 0.5970 0.7451
vt 0.5398 0.7451
vt 0.3340 0.5723
vt 0.6343 0.1743
vt 0.7893 0.1971
vt 0.6584 0.2855
vt 0.5294 0.1128
vt 0.7117 0.0839
vt 0.4911 0.1055
vt 0.5446 0.0001
vt 0.3715 0.2164
vt 0.4768 0.0001
vt 0.2164 0.1946
vt 0.3301 0.0616
vt 0.2092 0.2475
vt 0.0001 0.1570
vt 0.5978 0.3352
vt 0.0117 0.3279
vt 0.7671 0.3575
vt 0.5911 0.5084
vt 0.7744 0.3239
vt 0.9018 0.4046
vt 0.9041 0.3066
vn 0.0000 1.0000 0.0000
vn 0.0000 -1.0000 0.0000
vn 0.7071 0.0000 -0.7071
vn 0.7071 0.0000 0.7071
vn -0.7071 0.0000 0.7071
vn -0.7071 0.0000 -0.7071
usemtl None
s off
f 7/1/1 1/2/1 8/3/1
f 1/2/1 9/4/1 8/3/1
f 1/2/1 10/5/1 9/4/1
f 7/1/1 2/6/1 1/2/1
f 7/1/1 5/7/1 2/6/1
f 5/7/1 3/8/1 2/6/1
f 5/7/1 4/9/1 3/8/1
f 7/1/1 6/10/1 5/7/1
f 11/11/2 17/12/2 18/13/2
f 19/14/2 11/11/2 18/13/2
f 20/15/2 11/11/2 19/14/2
f 12/16/2 17/12/2 11/11/2
f 15/17/2 17/12/2 12/16/2
f 13/18/2 15/17/2 12/16/2
f 14/19/2 15/17/2 13/18/2
f 16/20/2 17/12/2 15/17/2
s 1
f 24/21/3 21/22/4 22/23/4
f 26/24/3 23/25/3 24/21/3
f 28/26/4 25/27/3 26/24/3
f 30/28/4 27/29/4 28/26/4
f 32/30/4 29/31/4 30/28/4
f 34/32/5 31/33/4 32/30/4
f 36/34/6 33/35/5 34/32/5
f 38/36/3 35/37/6 36/34/6
f 40/38/4 37/39/3 38/36/3
f 22/23/4 39/40/4 40/38/4
f 24/21/3 23/25/3 21/22/4
f 26/24/3 25/27/3 23/25/3
f 28/26/4 27/29/4 25/27/3
f 30/28/4 29/31/4 27/29/4
f 32/30/4 31/33/4 29/31/4
f 34/32/5 33/35/5 31/33/4
f 36/34/6 35/37/6 33/35/5
f 38/36/3 37/39/3 35/37/6
f 40/38/4 39/40/4 37/39/3
f 22/23/4 21/22/4 39/40/4
