# Blender v2.78 (sub 0) OBJ File: 'letter.blend'
# www.blender.org
mtllib G.mtl
o Text_Mesh
v 0.043000 0.100000 0.009000
v -0.320000 0.100000 -0.337000
v 0.046000 0.100000 -0.691000
v 0.289000 0.100000 -0.633000
v 0.289000 0.100000 -0.534000
v 0.044000 0.100000 -0.601000
v -0.219000 0.100000 -0.340000
v 0.057000 0.100000 -0.081000
v 0.205000 0.100000 -0.108000
v 0.205000 0.100000 -0.248000
v 0.074000 0.100000 -0.248000
v 0.074000 0.100000 -0.336000
v 0.303000 0.100000 -0.336000
v 0.303000 0.100000 -0.047000
v 0.043000 -0.100000 0.009000
v -0.320000 -0.100000 -0.337000
v 0.046000 -0.100000 -0.691000
v 0.289000 -0.100000 -0.633000
v 0.289000 -0.100000 -0.534000
v 0.044000 -0.100000 -0.601000
v -0.219000 -0.100000 -0.340000
v 0.057000 -0.100000 -0.081000
v 0.205000 -0.100000 -0.108000
v 0.205000 -0.100000 -0.248000
v 0.074000 -0.100000 -0.248000
v 0.074000 -0.100000 -0.336000
v 0.303000 -0.100000 -0.336000
v 0.303000 -0.100000 -0.047000
v 0.043000 -0.100000 0.009000
v 0.043000 0.100000 0.009000
v -0.320000 -0.100000 -0.337000
v -0.320000 0.100000 -0.337000
v 0.046000 -0.100000 -0.691000
v 0.046000 0.100000 -0.691000
v 0.289000 -0.100000 -0.633000
v 0.289000 0.100000 -0.633000
v 0.289000 -0.100000 -0.534000
v 0.289000 0.100000 -0.534000
v 0.044000 -0.100000 -0.601000
v 0.044000 0.100000 -0.601000
v -0.219000 -0.100000 -0.340000
v -0.219000 0.100000 -0.340000
v 0.057000 -0.100000 -0.081000
v 0.057000 0.100000 -0.081000
v 0.205000 -0.100000 -0.108000
v 0.205000 0.100000 -0.108000
v 0.205000 -0.100000 -0.248000
v 0.205000 0.100000 -0.248000
v 0.074000 -0.100000 -0.248000
v 0.074000 0.100000 -0.248000
v 0.074000 -0.100000 -0.336000
v 0.074000 0.100000 -0.336000
v 0.303000 -0.100000 -0.336000
v 0.303000 0.100000 -0.336000
v 0.303000 -0.100000 -0.047000
v 0.303000 0.100000 -0.047000
vt 0.2067 0.9561
vt 0.3643 0.7388
vt 0.4180 0.7376
vt 0.3834 0.5925
vt 0.3243 0.5925
vt 0.2085 0.8958
vt 0.0539 0.7310
vt 0.0002 0.7394
vt 0.1536 0.7208
vt 0.2061 0.5841
vt 0.2061 0.7208
vt 0.1536 0.6426
vt 0.0336 0.5841
vt 0.0700 0.6426
vt 0.7825 0.8014
vt 0.6249 0.5841
vt 0.8362 0.8026
vt 0.8016 0.9477
vt 0.7425 0.9477
vt 0.6267 0.6444
vt 0.4721 0.8092
vt 0.4183 0.8008
vt 0.6243 0.9561
vt 0.5718 0.8193
vt 0.6243 0.8193
vt 0.5718 0.8976
vt 0.4518 0.9561
vt 0.4882 0.8976
vt 0.7066 0.3273
vt 0.4545 0.5647
vt 0.4207 0.4223
vt 0.8685 0.1901
vt 0.7777 0.4345
vt 0.8457 0.1156
vt 0.9998 0.1830
vt 0.8100 0.1050
vt 0.8927 0.0159
vt 0.7322 0.1345
vt 0.8193 0.0002
vt 0.6771 0.2954
vt 0.6801 0.0686
vt 0.4155 0.3651
vt 0.6054 0.1941
vt 0.2841 0.3664
vt 0.4214 0.2295
vt 0.1857 0.3143
vt 0.3378 0.2085
vt 0.1584 0.2625
vt 0.2476 0.1624
vt 0.1247 0.2750
vt 0.0961 0.1237
vt 0.1423 0.3676
vt 0.0002 0.1880
vt 0.2652 0.4347
vt 0.0002 0.4568
vt 0.2396 0.5838
vn 0.0000 1.0000 0.0000
vn 0.0000 -1.0000 0.0000
vn -1.0000 0.0000 0.0036
vn -0.2712 0.0000 0.9625
vn -0.2640 0.0000 -0.9645
vn 0.7849 0.0000 -0.6196
vn 0.6067 0.0000 0.7949
vn 0.2545 0.0000 0.9671
vn 0.9999 0.0000 -0.0139
vn 0.2827 0.0000 -0.9592
vn -0.7679 0.0000 -0.6405
vn -0.7071 0.0000 0.7071
vn -0.7071 0.0000 -0.7071
vn 0.7071 0.0000 -0.7071
vn 0.7780 0.0000 0.6283
usemtl None
s off
f 2/1/1 6/2/1 3/3/1
f 6/2/1 4/4/1 3/3/1
f 6/2/1 5/5/1 4/4/1
f 2/1/1 7/6/1 6/2/1
f 2/1/1 8/7/1 7/6/1
f 1/8/1 8/7/1 2/1/1
f 11/9/1 13/10/1 12/11/1
f 11/9/1 10/12/1 13/10/1
f 10/12/1 14/13/1 13/10/1
f 9/14/1 14/13/1 10/12/1
f 8/7/1 14/13/1 9/14/1
f 1/8/1 14/13/1 8/7/1
f 20/15/2 16/16/2 17/17/2
f 18/18/2 20/15/2 17/17/2
f 19/19/2 20/15/2 18/18/2
f 21/20/2 16/16/2 20/15/2
f 22/21/2 16/16/2 21/20/2
f 22/21/2 15/22/2 16/16/2
f 27/23/2 25/24/2 26/25/2
f 24/26/2 25/24/2 27/23/2
f 28/27/2 24/26/2 27/23/2
f 28/27/2 23/28/2 24/26/2
f 28/27/2 22/21/2 23/28/2
f 28/27/2 15/22/2 22/21/2
s 1
f 32/29/3 29/30/4 30/31/4
f 34/32/5 31/33/3 32/29/3
f 36/34/6 33/35/5 34/32/5
f 38/36/7 35/37/6 36/34/6
f 40/38/8 37/39/7 38/36/7
f 42/40/9 39/41/8 40/38/8
f 44/42/10 41/43/9 42/40/9
f 46/44/11 43/45/10 44/42/10
f 48/46/12 45/47/11 46/44/11
f 50/48/12 47/49/12 48/46/12
f 52/50/13 49/51/12 50/48/12
f 54/52/14 51/53/13 52/50/13
f 56/54/15 53/55/14 54/52/14
f 30/31/4 55/56/15 56/54/15
f 32/29/3 31/33/3 29/30/4
f 34/32/5 33/35/5 31/33/3
f 36/34/6 35/37/6 33/35/5
f 38/36/7 37/39/7 35/37/6
f 40/38/8 39/41/8 37/39/7
f 42/40/9 41/43/9 39/41/8
f 44/42/10 43/45/10 41/43/9
f 46/44/11 45/47/11 43/45/10
f 48/46/12 47/49/12 45/47/11
f 50/48/12 49/51/12 47/49/12
f 52/50/13 51/53/13 49/51/12
f 54/52/14 53/55/14 51/53/13
f 56/54/15 55/56/15 53/55/14
f 30/31/4 29/30/4 55/56/15
