# Blender v2.78 (sub 0) OBJ File: 'letter.blend'
# www.blender.org
mtllib J.mtl
o Text_Mesh
v -0.139000 0.100000 0.230000
v -0.169000 0.100000 0.228000
v -0.187000 0.100000 0.137000
v -0.162000 0.100000 0.137000
v -0.049000 0.100000 -0.021000
v -0.049000 0.100000 -0.682000
v 0.049000 0.100000 -0.682000
v 0.049000 0.100000 0.008000
v -0.139000 -0.100000 0.230000
v -0.169000 -0.100000 0.228000
v -0.187000 -0.100000 0.137000
v -0.162000 -0.100000 0.137000
v -0.049000 -0.100000 -0.021000
v -0.049000 -0.100000 -0.682000
v 0.049000 -0.100000 -0.682000
v 0.049000 -0.100000 0.008000
v -0.139000 -0.100000 0.230000
v -0.139000 0.100000 0.230000
v -0.169000 -0.100000 0.228000
v -0.169000 0.100000 0.228000
v -0.187000 -0.100000 0.137000
v -0.187000 0.100000 0.137000
v -0.162000 -0.100000 0.137000
v -0.162000 0.100000 0.137000
v -0.049000 -0.100000 -0.021000
v -0.049000 0.100000 -0.021000
v -0.049000 -0.100000 -0.682000
v -0.049000 0.100000 -0.682000
v 0.049000 -0.100000 -0.682000
v 0.049000 0.100000 -0.682000
v 0.049000 -0.100000 0.008000
v 0.049000 0.100000 0.008000
vt 0.2132 0.7259
vt 0.7495 0.7365
vt 0.7364 0.8140
vt 0.2033 0.6445
vt 0.0731 0.7943
vt 0.0026 0.7637
vt 0.0001 0.7877
vt 0.0698 0.8140
vt 0.7406 0.6073
vt 0.2060 0.5641
vt 0.7353 0.5289
vt 0.1880 0.6442
vt 0.0734 0.4821
vt 0.0001 0.5055
vt 0.0001 0.4813
vt 0.0721 0.4621
vt 0.0001 0.2482
vt 0.1481 0.2473
vt 0.0048 0.2790
vt 0.0307 0.1285
vt 0.1439 0.2327
vt 0.0452 0.1078
vt 0.1597 0.2080
vt 0.2468 0.0001
vt 0.1732 0.2044
vt 0.9224 0.0001
vt 0.2997 0.2004
vt 0.9999 0.2402
vt 0.6611 0.1687
vt 0.2719 0.4618
vt 0.6667 0.2230
vt 0.3077 0.2739
vn 0.0000 1.0000 0.0000
vn 0.0000 -1.0000 0.0000
vn -0.6601 0.0000 0.7511
vn 0.3901 0.0000 0.9207
vn -0.7727 0.0000 -0.6348
vn -0.4573 0.0000 -0.8893
vn -0.9522 0.0000 -0.3055
vn -0.7071 0.0000 -0.7071
vn 0.7071 0.0000 -0.7071
vn 0.9389 0.0000 0.3441
usemtl None
s off
f 5/1/1 7/2/1 6/3/1
f 5/1/1 8/4/1 7/2/1
f 4/5/1 8/4/1 5/1/1
f 4/5/1 1/6/1 8/4/1
f 2/7/1 4/5/1 3/8/1
f 2/7/1 1/6/1 4/5/1
f 15/9/2 13/10/2 14/11/2
f 16/12/2 13/10/2 15/9/2
f 16/12/2 12/13/2 13/10/2
f 9/14/2 12/13/2 16/12/2
f 12/13/2 10/15/2 11/16/2
f 9/14/2 10/15/2 12/13/2
s 1
f 20/17/3 17/18/4 18/19/4
f 22/20/5 19/21/3 20/17/3
f 24/22/6 21/23/5 22/20/5
f 26/24/7 23/25/6 24/22/6
f 28/26/8 25/27/7 26/24/7
f 30/28/9 27/29/8 28/26/8
f 32/30/10 29/31/9 30/28/9
f 18/19/4 31/32/10 32/30/10
f 20/17/3 19/21/3 17/18/4
f 22/20/5 21/23/5 19/21/3
f 24/22/6 23/25/6 21/23/5
f 26/24/7 25/27/7 23/25/6
f 28/26/8 27/29/8 25/27/7
f 30/28/9 29/31/9 27/29/8
f 32/30/10 31/32/10 29/31/9
f 18/19/4 17/18/4 31/32/10
