# Blender v2.78 (sub 0) OBJ File: 'letter.blend'
# www.blender.org
mtllib K.mtl
o Text_Mesh
v 0.192000 0.100000 0.000000
v -0.155000 0.100000 -0.337000
v -0.155000 0.100000 0.000000
v -0.253000 0.100000 0.000000
v -0.253000 0.100000 -0.682000
v -0.155000 0.100000 -0.682000
v -0.155000 0.100000 -0.370000
v 0.132000 0.100000 -0.682000
v 0.254000 0.100000 -0.682000
v -0.043000 0.100000 -0.359000
v 0.327000 0.100000 0.000000
v 0.192000 -0.100000 0.000000
v -0.155000 -0.100000 -0.337000
v -0.155000 -0.100000 0.000000
v -0.253000 -0.100000 0.000000
v -0.253000 -0.100000 -0.682000
v -0.155000 -0.100000 -0.682000
v -0.155000 -0.100000 -0.370000
v 0.132000 -0.100000 -0.682000
v 0.254000 -0.100000 -0.682000
v -0.043000 -0.100000 -0.359000
v 0.327000 -0.100000 0.000000
v 0.192000 -0.100000 0.000000
v 0.192000 0.100000 0.000000
v -0.155000 -0.100000 -0.337000
v -0.155000 0.100000 -0.337000
v -0.155000 -0.100000 0.000000
v -0.155000 0.100000 0.000000
v -0.253000 -0.100000 0.000000
v -0.253000 0.100000 0.000000
v -0.253000 -0.100000 -0.682000
v -0.253000 0.100000 -0.682000
v -0.155000 -0.100000 -0.682000
v -0.155000 0.100000 -0.682000
v -0.155000 -0.100000 -0.370000
v -0.155000 0.100000 -0.370000
v 0.132000 -0.100000 -0.682000
v 0.132000 0.100000 -0.682000
v 0.254000 -0.100000 -0.682000
v 0.254000 0.100000 -0.682000
v -0.043000 -0.100000 -0.359000
v -0.043000 0.100000 -0.359000
v 0.327000 -0.100000 0.000000
v 0.327000 0.100000 0.000000
vt 0.0002 0.9999
vt 0.3820 0.9450
vt 0.3820 0.9999
vt 0.2073 0.9450
vt 0.3820 0.7159
vt 0.3820 0.7843
vt 0.2012 0.8823
vt 0.1889 0.9450
vt 0.0001 0.6751
vt 0.0002 0.9450
vt 0.0001 0.7507
vt 0.7642 0.7299
vt 0.3823 0.6751
vt 0.7642 0.6751
vt 0.5895 0.7299
vt 0.7642 0.9590
vt 0.7642 0.8907
vt 0.5834 0.7927
vt 0.5711 0.7299
vt 0.3823 0.9999
vt 0.3823 0.7299
vt 0.3823 0.9243
vt 0.0001 0.4885
vt 0.2310 0.5730
vt 0.2112 0.6748
vt 0.0804 0.2116
vt 0.1260 0.4603
vt 0.1257 0.1312
vt 0.2426 0.3310
vt 0.5136 0.0001
vt 0.2214 0.1960
vt 0.5952 0.0490
vt 0.4779 0.1277
vt 0.7040 0.2636
vt 0.5111 0.1620
vt 0.8522 0.4886
vt 0.5740 0.3327
vt 0.8277 0.5920
vt 0.7328 0.4891
vt 0.5566 0.5627
vt 0.7260 0.5190
vt 0.3002 0.6748
vt 0.5533 0.4057
vt 0.2904 0.5719
vn 0.0000 1.0000 0.0000
vn 0.0000 -1.0000 0.0000
vn 0.3894 0.0000 0.9210
vn -0.3759 0.0000 0.9266
vn 0.7071 0.0000 0.7071
vn -0.7071 0.0000 0.7071
vn -0.7071 0.0000 -0.7071
vn 0.7071 0.0000 -0.7071
vn 0.3633 0.0000 -0.9316
vn -0.4018 0.0000 -0.9157
vn 0.9156 0.0000 -0.4019
vn 0.9996 0.0000 -0.0285
vn 0.9267 0.0000 0.3757
usemtl None
s off
f 4/1/1 6/2/1 5/3/1
f 4/1/1 7/4/1 6/2/1
f 7/4/1 9/5/1 8/6/1
f 7/4/1 10/7/1 9/5/1
f 4/1/1 2/8/1 7/4/1
f 2/8/1 10/7/1 7/4/1
f 2/8/1 11/9/1 10/7/1
f 4/1/1 3/10/1 2/8/1
f 1/11/1 11/9/1 2/8/1
f 17/12/2 15/13/2 16/14/2
f 18/15/2 15/13/2 17/12/2
f 20/16/2 18/15/2 19/17/2
f 21/18/2 18/15/2 20/16/2
f 13/19/2 15/13/2 18/15/2
f 21/18/2 13/19/2 18/15/2
f 22/20/2 13/19/2 21/18/2
f 14/21/2 15/13/2 13/19/2
f 22/20/2 12/22/2 13/19/2
s 1
f 26/23/3 23/24/4 24/25/4
f 28/26/5 25/27/3 26/23/3
f 30/28/6 27/29/5 28/26/5
f 32/30/7 29/31/6 30/28/6
f 34/32/8 31/33/7 32/30/7
f 36/34/9 33/35/8 34/32/8
f 38/36/10 35/37/9 36/34/9
f 40/38/11 37/39/10 38/36/10
f 42/40/12 39/41/11 40/38/11
f 44/42/13 41/43/12 42/40/12
f 24/25/4 43/44/13 44/42/13
f 26/23/3 25/27/3 23/24/4
f 28/26/5 27/29/5 25/27/3
f 30/28/6 29/31/6 27/29/5
f 32/30/7 31/33/7 29/31/6
f 34/32/8 33/35/8 31/33/7
f 36/34/9 35/37/9 33/35/8
f 38/36/10 37/39/10 35/37/9
f 40/38/11 39/41/11 37/39/10
f 42/40/12 41/43/12 39/41/11
f 44/42/13 43/44/13 41/43/12
f 24/25/4 23/24/4 43/44/13
