# Blender v2.78 (sub 0) OBJ File: 'letter.blend'
# www.blender.org
o L
v 0.238000 0.100000 0.168667
v 0.238000 0.100000 0.256667
v -0.168000 0.100000 -0.425333
v -0.168000 -0.100000 0.256667
v -0.168000 -0.100000 -0.425333
v -0.070000 -0.100000 0.168667
v 0.238000 -0.100000 0.168667
v 0.238000 -0.100000 0.256667
v -0.168000 0.100000 0.256667
v -0.070000 -0.100000 -0.425333
v -0.070000 0.100000 -0.425333
v -0.070000 0.100000 0.168667
vt 0.0000 0.0000
vt 1.0000 0.0000
vt 1.0000 1.0000
vt 1.0000 0.0000
vt 1.0000 1.0000
vt 1.0000 0.0000
vt 1.0000 1.0000
vt 1.0000 0.0000
vt 1.0000 1.0000
vt 0.0000 0.0000
vt 1.0000 0.0000
vt 1.0000 1.0000
vt 0.0000 0.0000
vt 1.0000 1.0000
vt 0.0000 0.0000
vt 1.0000 1.0000
vt 0.0000 0.0000
vt 1.0000 1.0000
vt 0.0000 0.0000
vt 1.0000 0.0000
vt 1.0000 0.0000
vt 1.0000 1.0000
vt 0.0000 0.0000
vt 1.0000 1.0000
vt 0.0000 0.0000
vt 1.0000 0.0000
vt 0.0000 0.0000
vt 1.0000 0.0000
vt 0.0000 0.0000
vt 1.0000 0.0000
vt 1.0000 1.0000
vt 1.0000 1.0000
vn 0.0000 1.0000 0.0000
vn 0.0000 -1.0000 0.0000
vn 0.5773 0.5773 0.5773
vn 0.5773 -0.5773 -0.5773
vn 0.5773 0.5773 -0.5773
vn -0.5773 0.5773 0.5773
vn 0.5773 -0.5773 0.5773
vn -0.5773 0.5773 -0.5773
vn -0.5773 -0.5773 0.5773
vn -0.5773 -0.5773 -0.5773
vn 0.3015 0.9045 -0.3015
vn 0.3015 -0.9045 -0.3015
s off
f 9/1/1 11/2/1 3/3/1
f 9/1/1 12/4/1 11/5/1
f 9/1/1 1/6/1 12/7/1
f 9/1/1 2/8/1 1/9/1
f 10/10/2 4/11/2 5/12/2
f 6/13/2 4/11/2 10/14/2
f 7/15/2 4/11/2 6/16/2
f 8/17/2 4/11/2 7/18/2
s 1
f 2/19/3 7/20/4 1/9/5
f 9/1/6 8/21/7 2/22/3
f 3/23/8 4/11/9 9/24/6
f 11/25/5 5/26/10 3/3/8
f 12/27/11 10/28/4 11/5/5
f 1/29/5 6/30/12 12/7/11
f 2/19/3 8/21/7 7/18/4
f 9/1/6 4/11/9 8/31/7
f 3/23/8 5/26/10 4/32/9
f 11/25/5 10/28/4 5/12/10
f 12/27/11 6/30/12 10/14/4
f 1/29/5 7/20/4 6/16/12
