# Blender v2.78 (sub 0) OBJ File: 'letter.blend'
# www.blender.org
o M
v 0.219933 0.100000 -0.145133
v 0.007933 0.100000 0.118867
v -0.220067 0.100000 -0.145133
v -0.220067 0.100000 0.385867
v -0.318067 0.100000 0.385867
v -0.318067 0.100000 -0.296133
v -0.226067 0.100000 -0.296133
v 0.226933 0.100000 -0.296133
v 0.317933 0.100000 -0.296133
v 0.217933 -0.100000 -0.145133
v 0.007933 -0.100000 0.118867
v -0.008067 -0.100000 0.118867
v -0.220067 -0.100000 -0.145133
v -0.000067 -0.100000 -0.016133
v 0.317933 -0.100000 0.385867
v 0.219933 -0.100000 0.385867
v 0.219933 0.100000 0.385867
v 0.219933 -0.100000 -0.145133
v 0.217933 0.100000 -0.145133
v -0.008067 0.100000 0.118867
v -0.218067 -0.100000 -0.145133
v -0.218067 0.100000 -0.145133
v -0.220067 -0.100000 0.385867
v -0.318067 -0.100000 0.385867
v -0.318067 -0.100000 -0.296133
v -0.226067 -0.100000 -0.296133
v -0.000067 0.100000 -0.016133
v 0.226933 -0.100000 -0.296133
v 0.317933 -0.100000 -0.296133
v 0.317933 0.100000 0.385867
vt 0.0000 0.0000
vt 1.0000 0.0000
vt 1.0000 1.0000
vt 1.0000 0.0000
vt 1.0000 1.0000
vt 0.0000 0.0000
vt 1.0000 0.0000
vt 0.0000 0.0000
vt 1.0000 0.0000
vt 0.0000 0.0000
vt 1.0000 0.0000
vt 1.0000 1.0000
vt 1.0000 0.0000
vt 1.0000 1.0000
vt 0.0000 0.0000
vt 1.0000 0.0000
vt 0.0000 0.0000
vt 1.0000 0.0000
vt 1.0000 0.0000
vt 1.0000 1.0000
vt 0.0000 0.0000
vt 1.0000 1.0000
vt 1.0000 0.0000
vt 1.0000 1.0000
vt 0.0000 0.0000
vt 1.0000 1.0000
vt 1.0000 1.0000
vt 0.0000 0.0000
vt 1.0000 0.0000
vt 1.0000 1.0000
vt 0.0000 0.0000
vt 1.0000 1.0000
vt 0.0000 0.0000
vt 1.0000 0.0000
vt 0.0000 0.0000
vt 1.0000 0.0000
vt 0.0000 0.0000
vt 1.0000 0.0000
vt 1.0000 1.0000
vt 0.0000 0.0000
vt 1.0000 1.0000
vt 0.0000 0.0000
vt 1.0000 0.0000
vt 0.0000 0.0000
vt 1.0000 0.0000
vt 0.0000 0.0000
vt 1.0000 1.0000
vt 1.0000 0.0000
vt 1.0000 1.0000
vt 0.0000 0.0000
vt 1.0000 1.0000
vt 1.0000 0.0000
vt 1.0000 1.0000
vt 1.0000 1.0000
vt 1.0000 1.0000
vt 0.0000 0.0000
vt 1.0000 0.0000
vt 1.0000 1.0000
vt 1.0000 1.0000
vt 0.0000 0.0000
vt 1.0000 0.0000
vt 1.0000 1.0000
vt 0.0000 0.0000
vt 1.0000 1.0000
vt 0.0000 0.0000
vt 1.0000 0.0000
vt 1.0000 0.0000
vt 0.0000 0.0000
vt 0.0000 0.0000
vt 1.0000 0.0000
vt 0.0000 0.0000
vt 1.0000 0.0000
vt 1.0000 0.0000
vt 1.0000 1.0000
vt 1.0000 1.0000
vt 1.0000 1.0000
vt 1.0000 1.0000
vt 1.0000 1.0000
vt 1.0000 1.0000
vt 1.0000 1.0000
vn 0.0000 1.0000 0.0000
vn 0.0000 -1.0000 0.0000
vn -0.3015 0.9045 0.3015
vn -0.5773 -0.5773 0.5773
vn -0.5773 0.5773 0.5773
vn 0.2492 0.8191 0.5167
vn -0.3015 -0.9045 0.3015
vn 0.3405 0.6211 0.7059
vn 0.2492 -0.8191 0.5167
vn -0.3405 0.6211 0.7059
vn 0.3405 -0.6211 0.7059
vn -0.2492 0.8191 0.5167
vn -0.3405 -0.6211 0.7059
vn 0.3015 0.9045 0.3015
vn -0.2492 -0.8191 0.5167
vn 0.5773 0.5773 0.5773
vn 0.3015 -0.9045 0.3015
vn 0.5773 -0.5773 0.5773
vn -0.5773 0.5773 -0.5773
vn 0.3377 0.6217 -0.7067
vn -0.5773 -0.5773 -0.5773
vn 0.0004 0.9280 -0.3724
vn 0.3377 -0.6217 -0.7067
vn -0.3369 0.6219 -0.7069
vn 0.0004 -0.9280 -0.3724
vn 0.5773 0.5773 -0.5773
vn -0.3369 -0.6219 -0.7069
vn 0.5773 -0.5773 -0.5773
s off
f 5/1/1 7/2/1 6/3/1
f 5/1/1 3/4/1 7/5/1
f 3/6/1 22/7/1 7/5/1
f 22/8/1 27/9/1 7/5/1
f 27/10/1 9/11/1 8/12/1
f 27/10/1 19/13/1 9/14/1
f 19/15/1 1/16/1 9/14/1
f 1/17/1 30/18/1 9/14/1
f 5/1/1 4/19/1 3/20/1
f 20/21/1 27/9/1 22/22/1
f 27/10/1 2/23/1 19/24/1
f 17/25/1 30/18/1 1/26/1
f 20/21/1 2/23/1 27/27/1
f 26/28/2 24/29/2 25/30/2
f 13/31/2 24/29/2 26/32/2
f 21/33/2 13/34/2 26/32/2
f 14/35/2 21/36/2 26/32/2
f 29/37/2 14/38/2 28/39/2
f 10/40/2 14/38/2 29/41/2
f 18/42/2 10/43/2 29/41/2
f 15/44/2 18/45/2 29/41/2
f 23/46/2 24/29/2 13/47/2
f 14/35/2 12/48/2 21/49/2
f 11/50/2 14/38/2 10/51/2
f 15/44/2 16/52/2 18/53/2
f 11/50/2 12/48/2 14/54/2
s 1
f 1/17/3 16/52/4 17/55/5
f 19/15/6 18/45/7 1/26/3
f 2/56/8 10/43/9 19/24/6
f 20/21/10 11/57/11 2/58/8
f 22/8/12 12/48/13 20/59/10
f 3/6/14 21/36/15 22/22/12
f 4/60/16 13/34/17 3/20/14
f 5/1/5 23/61/18 4/62/16
f 6/63/19 24/29/4 5/64/5
f 7/65/20 25/66/21 6/3/19
f 27/10/22 26/67/23 7/5/20
f 8/68/24 14/38/25 27/27/22
f 9/69/26 28/70/27 8/12/24
f 30/71/16 29/72/28 9/14/26
f 17/25/5 15/73/18 30/74/16
f 1/17/3 18/45/7 16/75/4
f 19/15/6 10/43/9 18/53/7
f 2/56/8 11/57/11 10/51/9
f 20/21/10 12/48/13 11/76/11
f 22/8/12 21/36/15 12/77/13
f 3/6/14 13/34/17 21/49/15
f 4/60/16 23/61/18 13/47/17
f 5/1/5 24/29/4 23/78/18
f 6/63/19 25/66/21 24/79/4
f 7/65/20 26/67/23 25/30/21
f 27/10/22 14/38/25 26/32/23
f 8/68/24 28/70/27 14/54/25
f 9/69/26 29/72/28 28/39/27
f 30/71/16 15/73/18 29/41/28
f 17/25/5 16/52/4 15/80/18
