# Blender v2.78 (sub 0) OBJ File: 'letter.blend'
# www.blender.org
o N
v 0.232600 0.100000 0.340700
v -0.223400 0.100000 -0.184300
v -0.223400 0.100000 0.340700
v -0.315400 0.100000 0.340700
v -0.315400 0.100000 -0.341300
v 0.224600 0.100000 0.186700
v 0.316600 0.100000 0.340700
v -0.315400 -0.100000 -0.341300
v -0.237400 -0.100000 -0.341300
v 0.224600 -0.100000 -0.341300
v 0.316600 -0.100000 -0.341300
v 0.316600 -0.100000 0.340700
v 0.232600 -0.100000 0.340700
v -0.223400 -0.100000 -0.184300
v -0.223400 -0.100000 0.340700
v -0.315400 -0.100000 0.340700
v -0.237400 0.100000 -0.341300
v 0.224600 -0.100000 0.186700
v 0.224600 0.100000 -0.341300
v 0.316600 0.100000 -0.341300
vt 0.0000 0.0000
vt 1.0000 0.0000
vt 1.0000 1.0000
vt 1.0000 0.0000
vt 1.0000 1.0000
vt 0.0000 0.0000
vt 1.0000 0.0000
vt 0.0000 0.0000
vt 1.0000 0.0000
vt 1.0000 1.0000
vt 1.0000 0.0000
vt 1.0000 1.0000
vt 1.0000 0.0000
vt 1.0000 1.0000
vt 0.0000 0.0000
vt 1.0000 1.0000
vt 0.0000 0.0000
vt 1.0000 0.0000
vt 1.0000 1.0000
vt 0.0000 0.0000
vt 1.0000 1.0000
vt 0.0000 0.0000
vt 1.0000 0.0000
vt 0.0000 0.0000
vt 1.0000 0.0000
vt 1.0000 1.0000
vt 0.0000 0.0000
vt 1.0000 1.0000
vt 0.0000 0.0000
vt 1.0000 1.0000
vt 1.0000 0.0000
vt 1.0000 1.0000
vt 1.0000 1.0000
vt 0.0000 0.0000
vt 1.0000 0.0000
vt 1.0000 1.0000
vt 0.0000 0.0000
vt 1.0000 1.0000
vt 0.0000 0.0000
vt 1.0000 0.0000
vt 1.0000 0.0000
vt 0.0000 0.0000
vt 0.0000 0.0000
vt 1.0000 0.0000
vt 0.0000 0.0000
vt 1.0000 0.0000
vt 1.0000 0.0000
vt 1.0000 1.0000
vt 1.0000 1.0000
vt 1.0000 1.0000
vt 1.0000 1.0000
vt 1.0000 1.0000
vn 0.0000 1.0000 0.0000
vn 0.0000 -1.0000 0.0000
vn 0.0678 0.9810 0.1815
vn -0.3240 -0.6246 0.7106
vn -0.3240 0.6246 0.7106
vn 0.5773 0.5773 0.5773
vn 0.0678 -0.9810 0.1815
vn -0.5773 0.5773 0.5773
vn 0.5773 -0.5773 0.5773
vn -0.5773 0.5773 -0.5773
vn -0.5773 -0.5773 0.5773
vn 0.3226 0.6248 -0.7110
vn -0.5773 -0.5773 -0.5773
vn -0.0685 0.9808 -0.1823
vn 0.3226 -0.6248 -0.7110
vn -0.0685 -0.9808 -0.1823
vn 0.5773 0.5773 -0.5773
vn 0.5773 -0.5773 -0.5773
s off
f 4/1/1 17/2/1 5/3/1
f 4/1/1 2/4/1 17/5/1
f 2/6/1 6/7/1 17/5/1
f 6/8/1 20/9/1 19/10/1
f 6/8/1 7/11/1 20/12/1
f 4/1/1 3/13/1 2/14/1
f 1/15/1 6/7/1 2/14/1
f 1/15/1 7/11/1 6/16/1
f 9/17/2 16/18/2 8/19/2
f 14/20/2 16/18/2 9/21/2
f 18/22/2 14/23/2 9/21/2
f 11/24/2 18/25/2 10/26/2
f 12/27/2 18/25/2 11/28/2
f 15/29/2 16/18/2 14/30/2
f 18/22/2 13/31/2 14/30/2
f 12/27/2 13/31/2 18/32/2
s 1
f 2/6/3 13/31/4 1/33/5
f 3/34/6 14/23/7 2/14/3
f 4/1/8 15/35/9 3/36/6
f 5/37/10 16/18/11 4/38/8
f 17/39/12 8/40/13 5/3/10
f 6/8/14 9/41/15 17/5/12
f 19/42/10 18/25/16 6/16/14
f 20/43/17 10/44/13 19/10/10
f 7/45/6 11/46/18 20/12/17
f 1/15/5 12/47/9 7/48/6
f 2/6/3 14/23/7 13/49/4
f 3/34/6 15/35/9 14/30/7
f 4/1/8 16/18/11 15/50/9
f 5/37/10 8/40/13 16/51/11
f 17/39/12 9/41/15 8/19/13
f 6/8/14 18/25/16 9/21/15
f 19/42/10 10/44/13 18/32/16
f 20/43/17 11/46/18 10/26/13
f 7/45/6 12/47/9 11/28/18
f 1/15/5 13/31/4 12/52/9
