# Blender v2.78 (sub 0) OBJ File: 'letter.blend'
# www.blender.org
mtllib P.mtl
o Text_Mesh
v 0.245000 0.100000 -0.486000
v 0.015000 0.100000 -0.295000
v -0.087000 0.100000 -0.295000
v -0.087000 0.100000 0.000000
v -0.185000 0.100000 0.000000
v -0.185000 0.100000 -0.682000
v 0.028000 0.100000 -0.682000
v 0.024000 0.100000 -0.383000
v 0.144000 0.100000 -0.490000
v 0.028000 0.100000 -0.594000
v -0.087000 0.100000 -0.594000
v -0.087000 0.100000 -0.383000
v 0.245000 -0.100000 -0.486000
v 0.015000 -0.100000 -0.295000
v -0.087000 -0.100000 -0.295000
v -0.087000 -0.100000 0.000000
v -0.185000 -0.100000 0.000000
v -0.185000 -0.100000 -0.682000
v 0.028000 -0.100000 -0.682000
v 0.024000 -0.100000 -0.383000
v 0.144000 -0.100000 -0.490000
v 0.028000 -0.100000 -0.594000
v -0.087000 -0.100000 -0.594000
v -0.087000 -0.100000 -0.383000
v 0.245000 -0.100000 -0.486000
v 0.245000 0.100000 -0.486000
v 0.015000 -0.100000 -0.295000
v 0.015000 0.100000 -0.295000
v -0.087000 -0.100000 -0.295000
v -0.087000 0.100000 -0.295000
v -0.087000 -0.100000 0.000000
v -0.087000 0.100000 0.000000
v -0.185000 -0.100000 0.000000
v -0.185000 0.100000 0.000000
v -0.185000 -0.100000 -0.682000
v -0.185000 0.100000 -0.682000
v 0.028000 -0.100000 -0.682000
v 0.028000 0.100000 -0.682000
v 0.024000 -0.100000 -0.383000
v 0.024000 0.100000 -0.383000
v 0.144000 -0.100000 -0.490000
v 0.144000 0.100000 -0.490000
v 0.028000 -0.100000 -0.594000
v 0.028000 0.100000 -0.594000
v -0.087000 -0.100000 -0.594000
v -0.087000 0.100000 -0.594000
v -0.087000 -0.100000 -0.383000
v -0.087000 0.100000 -0.383000
vt 0.7269 0.4543
vt 0.8957 0.0916
vt 0.9825 0.0800
vt 0.8656 0.0002
vt 0.8326 0.0485
vt 0.6731 0.0264
vt 0.8166 0.2074
vt 0.7300 0.0621
vt 0.7557 0.1658
vt 0.7277 0.2174
vt 0.7837 0.2557
vt 0.6731 0.4175
vt 0.3368 0.7352
vt 0.0002 0.9515
vt 0.3365 0.6477
vt 0.4314 0.7527
vt 0.3880 0.7919
vt 0.4314 0.9471
vt 0.2327 0.8292
vt 0.3884 0.8955
vt 0.2822 0.8840
vt 0.2348 0.9187
vt 0.1893 0.8684
vt 0.0438 0.9998
vt 0.0002 0.3964
vt 0.2534 0.4810
vt 0.1843 0.6473
vt 0.0013 0.2793
vt 0.1689 0.3631
vt 0.1940 0.0325
vt 0.1747 0.3074
vt 0.3055 0.0002
vt 0.2704 0.1969
vt 0.6727 0.4134
vt 0.3181 0.1811
vt 0.5135 0.6473
vt 0.4824 0.4078
vt 0.3978 0.4874
vt 0.9877 0.6204
vt 0.7992 0.6246
vt 0.8322 0.4546
vt 0.8507 0.8191
vt 0.8062 0.6361
vt 0.6731 0.8020
vt 0.7954 0.6441
vt 0.6731 0.5056
vt 0.7853 0.6411
vt 0.7898 0.6239
vn 0.0000 1.0000 0.0000
vn 0.0000 -1.0000 0.0000
vn 0.3396 0.0000 0.9405
vn 0.9998 0.0000 0.0208
vn 0.7071 0.0000 0.7071
vn -0.7071 0.0000 0.7071
vn -0.7071 0.0000 -0.7071
vn 0.3591 0.0000 -0.9333
vn -1.0000 0.0000 -0.0013
vn -0.3561 0.0000 -0.9344
vn -0.3574 0.0000 0.9340
vn 0.7071 0.0000 -0.7071
usemtl None
s off
f 5/1/1 11/2/1 6/3/1
f 11/2/1 7/4/1 6/3/1
f 11/2/1 10/5/1 7/4/1
f 10/5/1 1/6/1 7/4/1
f 5/1/1 12/7/1 11/2/1
f 9/8/1 1/6/1 10/5/1
f 8/9/1 1/6/1 9/8/1
f 8/9/1 2/10/1 1/6/1
f 5/1/1 3/11/1 12/7/1
f 3/11/1 8/9/1 12/7/1
f 3/11/1 2/10/1 8/9/1
f 5/1/1 4/12/1 3/11/1
f 23/13/2 17/14/2 18/15/2
f 19/16/2 23/13/2 18/15/2
f 22/17/2 23/13/2 19/16/2
f 13/18/2 22/17/2 19/16/2
f 24/19/2 17/14/2 23/13/2
f 13/18/2 21/20/2 22/17/2
f 13/18/2 20/21/2 21/20/2
f 14/22/2 20/21/2 13/18/2
f 15/23/2 17/14/2 24/19/2
f 20/21/2 15/23/2 24/19/2
f 14/22/2 15/23/2 20/21/2
f 16/24/2 17/14/2 15/23/2
s 1
f 28/25/3 25/26/4 26/27/4
f 30/28/5 27/29/3 28/25/3
f 32/30/5 29/31/5 30/28/5
f 34/32/6 31/33/5 32/30/5
f 36/34/7 33/35/6 34/32/6
f 38/36/8 35/37/7 36/34/7
f 26/27/4 37/38/8 38/36/8
f 42/39/9 39/40/10 40/41/10
f 44/42/11 41/43/9 42/39/9
f 46/44/5 43/45/11 44/42/11
f 48/46/12 45/47/5 46/44/5
f 40/41/10 47/48/12 48/46/12
f 28/25/3 27/29/3 25/26/4
f 30/28/5 29/31/5 27/29/3
f 32/30/5 31/33/5 29/31/5
f 34/32/6 33/35/6 31/33/5
f 36/34/7 35/37/7 33/35/6
f 38/36/8 37/38/8 35/37/7
f 26/27/4 25/26/4 37/38/8
f 42/39/9 41/43/9 39/40/10
f 44/42/11 43/45/11 41/43/9
f 46/44/5 45/47/5 43/45/11
f 48/46/12 47/48/12 45/47/5
f 40/41/10 39/40/10 47/48/12
