# Blender v2.78 (sub 0) OBJ File: 'letter.blend'
# www.blender.org
o R
v -0.010316 0.100000 -0.320074
v 0.060215 0.100000 -0.282074
v 0.120465 0.100000 -0.142324
v 0.121496 0.100000 0.154051
v 0.158465 0.100000 0.213676
v 0.178621 0.100000 0.245457
v 0.198215 0.100000 0.274426
v 0.134465 0.100000 0.348676
v 0.044465 0.100000 0.208676
v -0.136535 0.100000 0.052676
v -0.177535 0.100000 0.348676
v -0.103535 0.100000 -0.333324
v -0.114535 0.100000 -0.035324
v -0.007785 0.100000 -0.069449
v 0.013715 0.100000 -0.104933
v 0.011465 0.100000 -0.189418
v -0.012285 0.100000 -0.221824
v -0.177535 0.100000 -0.249324
v 0.060215 -0.100000 -0.282074
v 0.112918 -0.100000 -0.086980
v 0.090840 -0.100000 -0.040074
v 0.006465 -0.100000 0.024676
v 0.121496 -0.100000 0.154051
v 0.158465 -0.100000 0.213676
v 0.251465 -0.100000 0.348676
v -0.061035 -0.100000 0.078176
v -0.275535 -0.100000 0.348676
v -0.049160 -0.100000 -0.044652
v -0.007785 -0.100000 -0.069449
v 0.019465 -0.100000 -0.146324
v 0.011465 -0.100000 -0.189418
v -0.053660 -0.100000 -0.242230
v -0.010316 -0.100000 -0.320074
v 0.104871 -0.100000 -0.221949
v 0.104871 0.100000 -0.221949
v 0.120465 -0.100000 -0.142324
v 0.112918 0.100000 -0.086980
v 0.090840 0.100000 -0.040074
v 0.055074 -0.100000 -0.002543
v 0.055074 0.100000 -0.002543
v 0.006465 0.100000 0.024676
v 0.049059 -0.100000 0.059551
v 0.049059 0.100000 0.059551
v 0.086215 -0.100000 0.102676
v 0.086215 0.100000 0.102676
v 0.178621 -0.100000 0.245457
v 0.198215 -0.100000 0.274426
v 0.221184 -0.100000 0.306770
v 0.221184 0.100000 0.306770
v 0.251465 0.100000 0.348676
v 0.134465 -0.100000 0.348676
v 0.044465 -0.100000 0.208676
v -0.014754 -0.100000 0.125238
v -0.014754 0.100000 0.125238
v -0.061035 0.100000 0.078176
v -0.099816 -0.100000 0.057363
v -0.099816 0.100000 0.057363
v -0.136535 -0.100000 0.052676
v -0.177535 -0.100000 0.052676
v -0.177535 0.100000 0.052676
v -0.177535 -0.100000 0.348676
v -0.275535 0.100000 0.348676
v -0.275535 -0.100000 -0.333324
v -0.275535 0.100000 -0.333324
v -0.103535 -0.100000 -0.333324
v -0.114535 -0.100000 -0.035324
v -0.049160 0.100000 -0.044652
v 0.013715 -0.100000 -0.104933
v 0.019465 0.100000 -0.146324
v -0.012285 -0.100000 -0.221824
v -0.053660 0.100000 -0.242230
v -0.114535 -0.100000 -0.249324
v -0.114535 0.100000 -0.249324
v -0.177535 -0.100000 -0.249324
v -0.177535 -0.100000 -0.035324
v -0.177535 0.100000 -0.035324
vt 0.0000 0.0000
vt 1.0000 0.0000
vt 1.0000 1.0000
vt 0.0000 0.0000
vt 1.0000 0.0000
vt 1.0000 0.0000
vt 1.0000 1.0000
vt 1.0000 0.0000
vt 1.0000 1.0000
vt 1.0000 0.0000
vt 1.0000 1.0000
vt 0.0000 0.0000
vt 1.0000 0.0000
vt 0.0000 0.0000
vt 1.0000 0.0000
vt 1.0000 0.0000
vt 1.0000 1.0000
vt 0.0000 0.0000
vt 1.0000 1.0000
vt 1.0000 0.0000
vt 1.0000 1.0000
vt 0.0000 0.0000
vt 1.0000 1.0000
vt 0.0000 0.0000
vt 1.0000 1.0000
vt 0.0000 0.0000
vt 1.0000 1.0000
vt 1.0000 0.0000
vt 1.0000 1.0000
vt 0.0000 0.0000
vt 1.0000 1.0000
vt 1.0000 0.0000
vt 1.0000 1.0000
vt 0.0000 0.0000
vt 1.0000 1.0000
vt 0.0000 0.0000
vt 1.0000 1.0000
vt 1.0000 0.0000
vt 1.0000 1.0000
vt 1.0000 0.0000
vt 1.0000 1.0000
vt 0.0000 0.0000
vt 1.0000 0.0000
vt 1.0000 1.0000
vt 1.0000 0.0000
vt 1.0000 1.0000
vt 1.0000 0.0000
vt 1.0000 1.0000
vt 0.0000 0.0000
vt 1.0000 0.0000
vt 1.0000 0.0000
vt 1.0000 1.0000
vt 0.0000 0.0000
vt 1.0000 1.0000
vt 0.0000 0.0000
vt 1.0000 1.0000
vt 1.0000 0.0000
vt 1.0000 1.0000
vt 0.0000 0.0000
vt 1.0000 1.0000
vt 1.0000 0.0000
vt 1.0000 1.0000
vt 0.0000 0.0000
vt 1.0000 1.0000
vt 1.0000 0.0000
vt 1.0000 1.0000
vt 0.0000 0.0000
vt 1.0000 1.0000
vt 1.0000 0.0000
vt 1.0000 1.0000
vt 1.0000 0.0000
vt 1.0000 1.0000
vt 1.0000 0.0000
vt 1.0000 1.0000
vt 1.0000 0.0000
vt 1.0000 1.0000
vt 0.0000 0.0000
vt 1.0000 0.0000
vt 1.0000 1.0000
vt 0.0000 0.0000
vt 1.0000 0.0000
vt 0.0000 0.0000
vt 1.0000 1.0000
vt 0.0000 0.0000
vt 1.0000 1.0000
vt 0.0000 0.0000
vt 1.0000 1.0000
vt 0.0000 0.0000
vt 1.0000 0.0000
vt 0.0000 0.0000
vt 1.0000 0.0000
vt 0.0000 0.0000
vt 1.0000 1.0000
vt 1.0000 0.0000
vt 1.0000 1.0000
vt 0.0000 0.0000
vt 1.0000 1.0000
vt 1.0000 0.0000
vt 1.0000 1.0000
vt 1.0000 0.0000
vt 1.0000 1.0000
vt 1.0000 0.0000
vt 1.0000 1.0000
vt 0.0000 0.0000
vt 1.0000 1.0000
vt 1.0000 0.0000
vt 1.0000 1.0000
vt 0.0000 0.0000
vt 1.0000 1.0000
vt 1.0000 0.0000
vt 1.0000 1.0000
vt 1.0000 0.0000
vt 1.0000 1.0000
vt 0.0000 0.0000
vt 1.0000 1.0000
vt 0.0000 0.0000
vt 1.0000 1.0000
vt 0.0000 0.0000
vt 1.0000 0.0000
vt 1.0000 1.0000
vt 0.0000 0.0000
vt 1.0000 1.0000
vt 0.0000 0.0000
vt 1.0000 1.0000
vt 0.0000 0.0000
vt 1.0000 0.0000
vt 0.0000 0.0000
vt 1.0000 1.0000
vt 1.0000 0.0000
vt 1.0000 1.0000
vt 1.0000 0.0000
vt 1.0000 1.0000
vt 0.0000 0.0000
vt 1.0000 1.0000
vt 1.0000 0.0000
vt 1.0000 1.0000
vt 0.0000 0.0000
vt 1.0000 1.0000
vt 1.0000 0.0000
vt 1.0000 1.0000
vt 0.0000 0.0000
vt 1.0000 1.0000
vt 1.0000 0.0000
vt 1.0000 1.0000
vt 0.0000 0.0000
vt 1.0000 1.0000
vt 0.0000 0.0000
vt 1.0000 1.0000
vt 0.0000 0.0000
vt 1.0000 1.0000
vt 0.0000 0.0000
vt 1.0000 1.0000
vt 0.0000 0.0000
vt 1.0000 0.0000
vt 0.0000 0.0000
vt 1.0000 0.0000
vt 0.0000 0.0000
vt 1.0000 0.0000
vt 0.0000 0.0000
vt 1.0000 0.0000
vt 0.0000 0.0000
vt 1.0000 0.0000
vt 0.0000 0.0000
vt 1.0000 0.0000
vt 0.0000 0.0000
vt 1.0000 0.0000
vt 0.0000 0.0000
vt 1.0000 0.0000
vt 0.0000 0.0000
vt 1.0000 0.0000
vt 0.0000 0.0000
vt 1.0000 0.0000
vt 0.0000 0.0000
vt 1.0000 0.0000
vt 0.0000 0.0000
vt 1.0000 0.0000
vt 0.0000 0.0000
vt 1.0000 0.0000
vt 0.0000 0.0000
vt 1.0000 0.0000
vt 0.0000 0.0000
vt 1.0000 0.0000
vt 1.0000 0.0000
vt 1.0000 1.0000
vt 1.0000 1.0000
vt 0.0000 0.0000
vt 1.0000 0.0000
vt 1.0000 1.0000
vt 0.0000 0.0000
vt 1.0000 1.0000
vt 0.0000 0.0000
vt 1.0000 0.0000
vt 0.0000 0.0000
vt 1.0000 0.0000
vt 1.0000 1.0000
vt 0.0000 0.0000
vt 1.0000 0.0000
vt 1.0000 1.0000
vt 1.0000 1.0000
vt 1.0000 1.0000
vt 1.0000 1.0000
vt 1.0000 1.0000
vn 0.0000 1.0000 0.0000
vn 0.0000 -1.0000 0.0000
vn 0.4907 0.6613 -0.5673
vn 0.2320 -0.6696 -0.7055
vn 0.2320 0.6696 -0.7055
vn 0.6867 0.6606 -0.3034
vn 0.4907 -0.6613 -0.5673
vn 0.7402 0.6720 -0.0214
vn 0.6867 -0.6606 -0.3034
vn 0.7079 0.6745 0.2095
vn 0.7402 -0.6720 -0.0214
vn 0.6103 0.6728 0.4181
vn 0.7079 -0.6745 0.2095
vn 0.4523 0.6750 0.5828
vn 0.6103 -0.6728 0.4181
vn 0.3272 0.9445 0.0288
vn 0.4523 -0.6750 0.5828
vn 0.5066 0.6881 -0.5195
vn 0.3272 -0.9445 0.0288
vn 0.5695 0.6950 -0.4388
vn 0.5066 -0.6881 -0.5195
vn 0.5964 0.7019 -0.3894
vn 0.5695 -0.6950 -0.4388
vn 0.5981 0.7082 -0.3750
vn 0.5964 -0.7019 -0.3894
vn 0.5887 0.7104 -0.3856
vn 0.5981 -0.7082 -0.3750
vn 0.5790 0.7097 -0.4013
vn 0.5887 -0.7104 -0.3856
vn 0.5741 0.7080 -0.4112
vn 0.5790 -0.7097 -0.4013
vn 0.7428 0.5514 0.3797
vn 0.5741 -0.7080 -0.4112
vn -0.3784 0.6135 0.6931
vn 0.7428 -0.5514 0.3797
vn -0.5815 0.7123 0.3930
vn -0.3784 -0.6135 0.6931
vn -0.5276 0.7255 0.4418
vn -0.5815 -0.7123 0.3930
vn -0.4017 0.7425 0.5360
vn -0.5276 -0.7255 0.4418
vn -0.2015 0.7504 0.6295
vn -0.4017 -0.7425 0.5360
vn -0.0439 0.7216 0.6908
vn -0.2015 -0.7504 0.6295
vn 0.3015 0.9045 0.3015
vn -0.0439 -0.7216 0.6908
vn 0.5773 0.5773 0.5773
vn 0.3015 -0.9045 0.3015
vn -0.5773 0.5773 0.5773
vn 0.5773 -0.5773 0.5773
vn -0.5773 0.5773 -0.5773
vn -0.5773 -0.5773 0.5773
vn 0.0509 0.6915 -0.7205
vn -0.5773 -0.5773 -0.5773
vn 0.0509 -0.6915 -0.7205
vn -0.2194 0.7544 -0.6186
vn -0.0489 -0.7234 -0.6887
vn -0.0489 0.7234 -0.6887
vn -0.4539 0.7655 -0.4561
vn -0.2194 -0.7544 -0.6186
vn -0.6173 0.7555 -0.2193
vn -0.4539 -0.7655 -0.4561
vn -0.6669 0.7450 0.0152
vn -0.6173 -0.7555 -0.2193
vn -0.5957 0.7608 0.2575
vn -0.6669 -0.7450 0.0152
vn -0.4142 0.7647 0.4935
vn -0.5957 -0.7608 0.2575
vn -0.1881 0.7475 0.6370
vn -0.4142 -0.7647 0.4935
vn -0.0402 0.7204 0.6924
vn -0.1881 -0.7475 0.6370
vn -0.0402 -0.7204 0.6924
vn 0.3015 0.9045 -0.3015
vn 0.3015 -0.9045 -0.3015
s off
f 62/1/1 18/2/1 64/3/1
f 18/4/1 12/5/1 64/3/1
f 18/4/1 1/6/1 12/7/1
f 18/4/1 2/8/1 1/9/1
f 18/4/1 73/10/1 2/11/1
f 73/12/1 71/13/1 2/11/1
f 71/14/1 35/15/1 2/11/1
f 62/1/1 76/16/1 18/17/1
f 17/18/1 35/15/1 71/19/1
f 17/18/1 3/20/1 35/21/1
f 16/22/1 3/20/1 17/23/1
f 69/24/1 3/20/1 16/25/1
f 15/26/1 3/20/1 69/27/1
f 15/26/1 37/28/1 3/29/1
f 14/30/1 37/28/1 15/31/1
f 14/30/1 38/32/1 37/33/1
f 67/34/1 38/32/1 14/35/1
f 13/36/1 38/32/1 67/37/1
f 13/36/1 40/38/1 38/39/1
f 62/1/1 60/40/1 76/41/1
f 60/42/1 13/43/1 76/41/1
f 60/42/1 40/38/1 13/44/1
f 60/42/1 41/45/1 40/46/1
f 60/42/1 10/47/1 41/48/1
f 10/49/1 43/50/1 41/48/1
f 62/1/1 11/51/1 60/52/1
f 57/53/1 43/50/1 10/54/1
f 55/55/1 43/50/1 57/56/1
f 55/55/1 45/57/1 43/58/1
f 54/59/1 45/57/1 55/60/1
f 54/59/1 4/61/1 45/62/1
f 9/63/1 4/61/1 54/64/1
f 9/63/1 5/65/1 4/66/1
f 8/67/1 5/65/1 9/68/1
f 8/67/1 6/69/1 5/70/1
f 8/67/1 7/71/1 6/72/1
f 8/67/1 49/73/1 7/74/1
f 8/67/1 50/75/1 49/76/1
f 74/77/2 27/78/2 63/79/2
f 65/80/2 74/81/2 63/79/2
f 33/82/2 74/81/2 65/83/2
f 19/84/2 74/81/2 33/85/2
f 72/86/2 74/81/2 19/87/2
f 32/88/2 72/89/2 19/87/2
f 34/90/2 32/91/2 19/87/2
f 75/92/2 27/78/2 74/93/2
f 34/90/2 70/94/2 32/95/2
f 36/96/2 70/94/2 34/97/2
f 36/96/2 31/98/2 70/99/2
f 36/96/2 30/100/2 31/101/2
f 36/96/2 68/102/2 30/103/2
f 20/104/2 68/102/2 36/105/2
f 20/104/2 29/106/2 68/107/2
f 21/108/2 29/106/2 20/109/2
f 21/108/2 28/110/2 29/111/2
f 21/108/2 66/112/2 28/113/2
f 39/114/2 66/112/2 21/115/2
f 59/116/2 27/78/2 75/117/2
f 66/118/2 59/119/2 75/117/2
f 39/114/2 59/119/2 66/120/2
f 22/121/2 59/119/2 39/122/2
f 58/123/2 59/119/2 22/124/2
f 42/125/2 58/126/2 22/124/2
f 61/127/2 27/78/2 59/128/2
f 42/125/2 56/129/2 58/130/2
f 42/125/2 26/131/2 56/132/2
f 44/133/2 26/131/2 42/134/2
f 44/133/2 53/135/2 26/136/2
f 23/137/2 53/135/2 44/138/2
f 23/137/2 52/139/2 53/140/2
f 24/141/2 52/139/2 23/142/2
f 24/141/2 51/143/2 52/144/2
f 46/145/2 51/143/2 24/146/2
f 47/147/2 51/143/2 46/148/2
f 48/149/2 51/143/2 47/150/2
f 25/151/2 51/143/2 48/152/2
s 1
f 2/153/3 33/154/4 1/9/5
f 35/155/6 19/156/7 2/11/3
f 3/157/8 34/158/9 35/21/6
f 37/159/10 36/160/11 3/29/8
f 38/161/12 20/162/13 37/33/10
f 40/163/14 21/164/15 38/39/12
f 41/165/16 39/166/17 40/46/14
f 43/167/18 22/168/19 41/48/16
f 45/169/20 42/170/21 43/58/18
f 4/171/22 44/172/23 45/62/20
f 5/173/24 23/174/25 4/66/22
f 6/175/26 24/176/27 5/70/24
f 7/177/28 46/178/29 6/72/26
f 49/179/30 47/180/31 7/74/28
f 50/181/32 48/182/33 49/76/30
f 8/67/34 25/183/35 50/184/32
f 9/63/36 51/143/37 8/185/34
f 54/59/38 52/139/39 9/68/36
f 55/55/40 53/135/41 54/64/38
f 57/53/42 26/131/43 55/60/40
f 10/49/44 56/129/45 57/56/42
f 60/42/46 58/126/47 10/54/44
f 11/186/48 59/119/49 60/52/46
f 62/1/50 61/187/51 11/188/48
f 64/189/52 27/78/53 62/190/50
f 12/191/54 63/192/55 64/3/52
f 1/193/5 65/194/56 12/7/54
f 67/34/57 66/112/58 13/44/59
f 14/30/60 28/110/61 67/37/57
f 15/26/62 29/106/63 14/35/60
f 69/24/64 68/102/65 15/31/62
f 16/22/66 30/100/67 69/27/64
f 17/18/68 31/98/69 16/25/66
f 71/14/70 70/94/71 17/23/68
f 73/12/72 32/91/73 71/19/70
f 18/4/46 72/89/74 73/195/72
f 76/196/75 74/81/49 18/17/46
f 13/36/59 75/197/76 76/41/75
f 2/153/3 19/156/7 33/85/4
f 35/155/6 34/158/9 19/87/7
f 3/157/8 36/160/11 34/97/9
f 37/159/10 20/162/13 36/105/11
f 38/161/12 21/164/15 20/109/13
f 40/163/14 39/166/17 21/115/15
f 41/165/16 22/168/19 39/122/17
f 43/167/18 42/170/21 22/124/19
f 45/169/20 44/172/23 42/134/21
f 4/171/22 23/174/25 44/138/23
f 5/173/24 24/176/27 23/142/25
f 6/175/26 46/178/29 24/146/27
f 7/177/28 47/180/31 46/148/29
f 49/179/30 48/182/33 47/150/31
f 50/181/32 25/183/35 48/152/33
f 8/67/34 51/143/37 25/198/35
f 9/63/36 52/139/39 51/199/37
f 54/59/38 53/135/41 52/144/39
f 55/55/40 26/131/43 53/140/41
f 57/53/42 56/129/45 26/136/43
f 10/49/44 58/126/47 56/132/45
f 60/42/46 59/119/49 58/130/47
f 11/186/48 61/187/51 59/128/49
f 62/1/50 27/78/53 61/200/51
f 64/189/52 63/192/55 27/201/53
f 12/191/54 65/194/56 63/79/55
f 1/193/5 33/154/4 65/83/56
f 67/34/57 28/110/61 66/120/58
f 14/30/60 29/106/63 28/113/61
f 15/26/62 68/102/65 29/111/63
f 69/24/64 30/100/67 68/107/65
f 16/22/66 31/98/69 30/103/67
f 17/18/68 70/94/71 31/101/69
f 71/14/70 32/91/73 70/99/71
f 73/12/72 72/89/74 32/95/73
f 18/4/46 74/81/49 72/202/74
f 76/196/75 75/197/76 74/93/49
f 13/36/59 66/112/58 75/117/76
