# Blender v2.78 (sub 0) OBJ File: 'letter.blend'
# www.blender.org
mtllib S.mtl
o Text_Mesh
v 0.010000 0.100000 -0.603000
v -0.098000 0.100000 -0.522000
v 0.197000 0.100000 -0.176000
v 0.006000 0.100000 0.009000
v -0.185000 0.100000 -0.054000
v -0.185000 0.100000 -0.178000
v -0.005000 0.100000 -0.079000
v 0.106000 0.100000 -0.165000
v -0.189000 0.100000 -0.509000
v 0.018000 0.100000 -0.691000
v 0.170000 0.100000 -0.643000
v 0.170000 0.100000 -0.532000
v 0.010000 -0.100000 -0.603000
v -0.098000 -0.100000 -0.522000
v 0.197000 -0.100000 -0.176000
v 0.006000 -0.100000 0.009000
v -0.185000 -0.100000 -0.054000
v -0.185000 -0.100000 -0.178000
v -0.005000 -0.100000 -0.079000
v 0.106000 -0.100000 -0.165000
v -0.189000 -0.100000 -0.509000
v 0.018000 -0.100000 -0.691000
v 0.170000 -0.100000 -0.643000
v 0.170000 -0.100000 -0.532000
v 0.010000 -0.100000 -0.603000
v 0.010000 0.100000 -0.603000
v -0.098000 -0.100000 -0.522000
v -0.098000 0.100000 -0.522000
v 0.197000 -0.100000 -0.176000
v 0.197000 0.100000 -0.176000
v 0.006000 -0.100000 0.009000
v 0.006000 0.100000 0.009000
v -0.185000 -0.100000 -0.054000
v -0.185000 0.100000 -0.054000
v -0.185000 -0.100000 -0.178000
v -0.185000 0.100000 -0.178000
v -0.005000 -0.100000 -0.079000
v -0.005000 0.100000 -0.079000
v 0.106000 -0.100000 -0.165000
v 0.106000 0.100000 -0.165000
v -0.189000 -0.100000 -0.509000
v -0.189000 0.100000 -0.509000
v 0.018000 -0.100000 -0.691000
v 0.018000 0.100000 -0.691000
v 0.170000 -0.100000 -0.643000
v 0.170000 0.100000 -0.643000
v 0.170000 -0.100000 -0.532000
v 0.170000 0.100000 -0.532000
vt 0.8710 0.8514
vt 0.9370 0.7086
vt 0.9999 0.7023
vt 0.9646 0.5939
vt 0.8852 0.5946
vt 0.8798 0.7863
vt 0.6306 0.5776
vt 0.6233 0.6427
vt 0.5458 0.8514
vt 0.5625 0.7226
vt 0.6344 0.8506
vt 0.4995 0.7153
vt 0.4368 0.7394
vt 0.3779 0.5935
vt 0.4992 0.7487
vt 0.4587 0.8552
vt 0.3795 0.8506
vt 0.3834 0.6590
vt 0.1243 0.8552
vt 0.1202 0.7898
vt 0.0634 0.7071
vt 0.0530 0.5776
vt 0.1415 0.5827
vt 0.0001 0.7113
vt 0.5104 0.1986
vt 0.6493 0.0170
vt 0.6385 0.2109
vt 0.1939 0.1325
vt 0.5242 0.0001
vt 0.1455 0.2350
vt 0.0719 0.0001
vt 0.1798 0.3147
vt 0.0001 0.2629
vt 0.2601 0.3066
vt 0.1082 0.4090
vt 0.3415 0.4165
vt 0.1697 0.4430
vt 0.4126 0.4381
vt 0.2935 0.5421
vt 0.6600 0.3720
vt 0.4036 0.5773
vt 0.7927 0.2516
vt 0.7802 0.5074
vt 0.7921 0.1812
vt 0.9728 0.2547
vt 0.7401 0.1598
vt 0.8961 0.0717
vt 0.7845 0.0168
vn 0.0000 1.0000 0.0000
vn 0.0000 -1.0000 0.0000
vn 0.9939 0.0000 0.1104
vn 0.1127 0.0000 0.9936
vn 0.9988 0.0000 0.0476
vn 0.2235 0.0000 0.9747
vn -0.8103 0.0000 0.5860
vn -0.5090 0.0000 -0.8608
vn -0.0781 0.0000 -0.9969
vn -0.9948 0.0000 -0.1012
vn -0.9975 0.0000 -0.0703
vn -0.2062 0.0000 -0.9785
vn 0.8066 0.0000 -0.5911
vn 0.5452 0.0000 0.8383
usemtl None
s off
f 9/1/1 1/2/1 10/3/1
f 1/2/1 11/4/1 10/3/1
f 1/2/1 12/5/1 11/4/1
f 9/1/1 2/6/1 1/2/1
f 9/1/1 3/7/1 2/6/1
f 8/8/1 3/7/1 9/1/1
f 5/9/1 7/10/1 6/11/1
f 8/8/1 4/12/1 3/7/1
f 7/10/1 4/12/1 8/8/1
f 5/9/1 4/12/1 7/10/1
f 13/13/2 21/14/2 22/15/2
f 23/16/2 13/13/2 22/15/2
f 24/17/2 13/13/2 23/16/2
f 14/18/2 21/14/2 13/13/2
f 15/19/2 21/14/2 14/18/2
f 15/19/2 20/20/2 21/14/2
f 19/21/2 17/22/2 18/23/2
f 16/24/2 20/20/2 15/19/2
f 16/24/2 19/21/2 20/20/2
f 16/24/2 17/22/2 19/21/2
s 1
f 28/25/3 25/26/4 26/27/4
f 30/28/5 27/29/3 28/25/3
f 32/30/6 29/31/5 30/28/5
f 34/32/7 31/33/6 32/30/6
f 36/34/8 33/35/7 34/32/7
f 38/36/9 35/37/8 36/34/8
f 40/38/10 37/39/9 38/36/9
f 42/40/11 39/41/10 40/38/10
f 44/42/12 41/43/11 42/40/11
f 46/44/13 43/45/12 44/42/12
f 48/46/14 45/47/13 46/44/13
f 26/27/4 47/48/14 48/46/14
f 28/25/3 27/29/3 25/26/4
f 30/28/5 29/31/5 27/29/3
f 32/30/6 31/33/6 29/31/5
f 34/32/7 33/35/7 31/33/6
f 36/34/8 35/37/8 33/35/7
f 38/36/9 37/39/9 35/37/8
f 40/38/10 39/41/10 37/39/9
f 42/40/11 41/43/11 39/41/10
f 44/42/12 43/45/12 41/43/11
f 46/44/13 45/47/13 43/45/12
f 48/46/14 47/48/14 45/47/13
f 26/27/4 25/26/4 47/48/14
