# Blender v2.78 (sub 0) OBJ File: 'letter.blend'
# www.blender.org
mtllib T.mtl
o Text_Mesh
v 0.049000 0.100000 -0.594000
v 0.049000 0.100000 0.000000
v -0.049000 0.100000 0.000000
v -0.049000 0.100000 -0.594000
v -0.285000 0.100000 -0.594000
v -0.285000 0.100000 -0.682000
v 0.285000 0.100000 -0.682000
v 0.285000 0.100000 -0.594000
v 0.049000 -0.100000 -0.594000
v 0.049000 -0.100000 0.000000
v -0.049000 -0.100000 0.000000
v -0.049000 -0.100000 -0.594000
v -0.285000 -0.100000 -0.594000
v -0.285000 -0.100000 -0.682000
v 0.285000 -0.100000 -0.682000
v 0.285000 -0.100000 -0.594000
v 0.049000 -0.100000 -0.594000
v 0.049000 0.100000 -0.594000
v 0.049000 -0.100000 0.000000
v 0.049000 0.100000 0.000000
v -0.049000 -0.100000 0.000000
v -0.049000 0.100000 0.000000
v -0.049000 -0.100000 -0.594000
v -0.049000 0.100000 -0.594000
v -0.285000 -0.100000 -0.594000
v -0.285000 0.100000 -0.594000
v -0.285000 -0.100000 -0.682000
v -0.285000 0.100000 -0.682000
v 0.285000 -0.100000 -0.682000
v 0.285000 0.100000 -0.682000
v 0.285000 -0.100000 -0.594000
v 0.285000 0.100000 -0.594000
vt 0.9999 0.0503
vt 0.6751 0.0001
vt 0.9999 0.0001
vt 0.6751 0.0503
vt 0.8375 0.0517
vt 0.8375 0.5438
vt 0.7563 0.0517
vt 0.7563 0.5438
vt 0.6332 0.8908
vt 0.0607 0.9643
vt 0.0629 0.8762
vt 0.6310 0.9789
vt 0.0605 0.9742
vt 0.0605 0.9842
vt 0.0001 0.9742
vt 0.0001 0.9842
vt 0.0001 0.1036
vt 0.3643 0.4862
vt 0.1740 0.5275
vt 0.0441 0.0001
vt 0.1581 0.1451
vt 0.5017 0.0001
vt 0.1769 0.0974
vt 0.6449 0.1995
vt 0.4173 0.1367
vt 0.6748 0.2780
vt 0.4752 0.2740
vt 0.4765 0.8711
vt 0.4992 0.3140
vt 0.2812 0.8760
vt 0.3874 0.6230
vt 0.3273 0.6111
vn 0.0000 1.0000 0.0000
vn 0.0000 0.0000 1.0000
vn 0.0000 -1.0000 0.0000
vn 0.0000 0.0000 -1.0000
vn 0.7071 0.0000 0.7071
vn -0.7071 0.0000 0.7071
vn -0.7071 0.0000 -0.7071
vn 0.7071 0.0000 -0.7071
usemtl None
s off
f 5/1/1 7/2/1 6/3/1
f 5/1/1 8/4/1 7/2/1
f 4/5/2 8/4/2 5/1/2
f 3/6/1 1/7/1 4/5/1
f 1/7/2 8/4/2 4/5/2
f 3/6/1 2/8/1 1/7/1
f 15/9/3 13/10/3 14/11/3
f 16/12/3 13/10/3 15/9/3
f 16/12/2 12/13/2 13/10/2
f 9/14/3 11/15/3 12/13/3
f 16/12/4 9/14/4 12/13/4
f 10/16/3 11/15/3 9/14/3
s 1
f 20/17/5 17/18/5 18/19/5
f 22/20/6 19/21/5 20/17/5
f 24/22/6 21/23/6 22/20/6
f 26/24/6 23/25/6 24/22/6
f 28/26/7 25/27/6 26/24/6
f 30/28/8 27/29/7 28/26/7
f 32/30/5 29/31/8 30/28/8
f 18/19/5 31/32/5 32/30/5
f 20/17/5 19/21/5 17/18/5
f 22/20/6 21/23/6 19/21/5
f 24/22/6 23/25/6 21/23/6
f 26/24/6 25/27/6 23/25/6
f 28/26/7 27/29/7 25/27/6
f 30/28/8 29/31/8 27/29/7
f 32/30/5 31/32/5 29/31/8
f 18/19/5 17/18/5 31/32/5
