# Blender v2.78 (sub 0) OBJ File: 'letter.blend'
# www.blender.org
o U
v 0.274516 0.100000 0.058205
v 0.217937 0.100000 0.145596
v -0.269562 0.100000 0.074658
v -0.293687 0.100000 -0.045529
v -0.195687 0.100000 -0.469529
v -0.195687 0.100000 -0.066529
v -0.174171 0.100000 0.049346
v -0.123562 0.100000 0.098986
v 0.044594 0.100000 0.127236
v 0.124782 0.100000 0.098143
v 0.193516 0.100000 -0.027170
v 0.195313 0.100000 -0.072529
v 0.293313 0.100000 -0.469529
v 0.293313 0.100000 -0.055529
v 0.217937 -0.100000 0.145596
v -0.114812 -0.100000 0.205908
v -0.293687 -0.100000 -0.045529
v -0.293687 -0.100000 -0.469529
v -0.195687 -0.100000 -0.066529
v -0.193640 -0.100000 -0.016529
v -0.186812 -0.100000 0.020721
v -0.174171 -0.100000 0.049346
v -0.123562 -0.100000 0.098986
v -0.050062 -0.100000 0.127893
v -0.007687 -0.100000 0.131471
v 0.044594 -0.100000 0.127236
v 0.088813 -0.100000 0.115596
v 0.173797 -0.100000 0.047424
v 0.186938 -0.100000 0.012846
v 0.195313 -0.100000 -0.469529
v 0.293313 -0.100000 -0.469529
v 0.293313 -0.100000 -0.055529
v 0.274516 -0.100000 0.058205
v 0.123297 -0.100000 0.201674
v 0.123297 0.100000 0.201674
v -0.009687 -0.100000 0.221471
v -0.009687 0.100000 0.221471
v -0.114812 0.100000 0.205908
v -0.205687 -0.100000 0.157721
v -0.205687 0.100000 0.157721
v -0.269562 -0.100000 0.074658
v -0.293687 0.100000 -0.469529
v -0.195687 -0.100000 -0.469529
v -0.193640 0.100000 -0.016529
v -0.186812 0.100000 0.020721
v -0.154687 -0.100000 0.073471
v -0.154687 0.100000 0.073471
v -0.088687 -0.100000 0.117096
v -0.088687 0.100000 0.117096
v -0.050062 0.100000 0.127893
v -0.007687 0.100000 0.131471
v 0.088813 0.100000 0.115596
v 0.124782 -0.100000 0.098143
v 0.152313 -0.100000 0.076471
v 0.152313 0.100000 0.076471
v 0.173797 0.100000 0.047424
v 0.186938 0.100000 0.012846
v 0.193516 -0.100000 -0.027170
v 0.195313 -0.100000 -0.072529
v 0.195313 0.100000 -0.469529
vt 0.0000 0.0000
vt 1.0000 0.0000
vt 1.0000 1.0000
vt 1.0000 0.0000
vt 1.0000 1.0000
vt 0.0000 0.0000
vt 1.0000 0.0000
vt 1.0000 1.0000
vt 1.0000 0.0000
vt 1.0000 1.0000
vt 0.0000 0.0000
vt 1.0000 1.0000
vt 1.0000 0.0000
vt 1.0000 1.0000
vt 1.0000 0.0000
vt 1.0000 1.0000
vt 0.0000 0.0000
vt 1.0000 1.0000
vt 0.0000 0.0000
vt 1.0000 1.0000
vt 1.0000 0.0000
vt 1.0000 1.0000
vt 0.0000 0.0000
vt 1.0000 1.0000
vt 1.0000 0.0000
vt 1.0000 1.0000
vt 0.0000 0.0000
vt 1.0000 1.0000
vt 1.0000 0.0000
vt 1.0000 1.0000
vt 1.0000 0.0000
vt 1.0000 1.0000
vt 1.0000 0.0000
vt 1.0000 1.0000
vt 0.0000 0.0000
vt 1.0000 1.0000
vt 0.0000 0.0000
vt 1.0000 1.0000
vt 0.0000 0.0000
vt 1.0000 1.0000
vt 1.0000 0.0000
vt 1.0000 1.0000
vt 0.0000 0.0000
vt 1.0000 1.0000
vt 1.0000 0.0000
vt 1.0000 1.0000
vt 0.0000 0.0000
vt 1.0000 1.0000
vt 1.0000 0.0000
vt 1.0000 1.0000
vt 1.0000 1.0000
vt 1.0000 0.0000
vt 1.0000 1.0000
vt 0.0000 0.0000
vt 1.0000 1.0000
vt 1.0000 0.0000
vt 1.0000 1.0000
vt 0.0000 0.0000
vt 1.0000 0.0000
vt 1.0000 1.0000
vt 0.0000 0.0000
vt 1.0000 1.0000
vt 0.0000 0.0000
vt 1.0000 0.0000
vt 1.0000 1.0000
vt 0.0000 0.0000
vt 1.0000 1.0000
vt 1.0000 0.0000
vt 1.0000 1.0000
vt 0.0000 0.0000
vt 1.0000 1.0000
vt 0.0000 0.0000
vt 1.0000 1.0000
vt 1.0000 0.0000
vt 1.0000 1.0000
vt 1.0000 0.0000
vt 1.0000 1.0000
vt 0.0000 0.0000
vt 1.0000 1.0000
vt 1.0000 0.0000
vt 1.0000 1.0000
vt 0.0000 0.0000
vt 1.0000 1.0000
vt 1.0000 0.0000
vt 1.0000 1.0000
vt 0.0000 0.0000
vt 1.0000 1.0000
vt 0.0000 0.0000
vt 1.0000 1.0000
vt 0.0000 0.0000
vt 1.0000 1.0000
vt 1.0000 0.0000
vt 1.0000 1.0000
vt 1.0000 0.0000
vt 1.0000 1.0000
vt 1.0000 0.0000
vt 1.0000 1.0000
vt 0.0000 0.0000
vt 1.0000 1.0000
vt 1.0000 0.0000
vt 1.0000 1.0000
vt 0.0000 0.0000
vt 1.0000 1.0000
vt 1.0000 0.0000
vt 1.0000 1.0000
vt 0.0000 0.0000
vt 1.0000 1.0000
vt 1.0000 1.0000
vt 0.0000 0.0000
vt 1.0000 1.0000
vt 1.0000 0.0000
vt 1.0000 1.0000
vt 0.0000 0.0000
vt 1.0000 1.0000
vt 0.0000 0.0000
vt 1.0000 0.0000
vt 0.0000 0.0000
vt 1.0000 0.0000
vt 0.0000 0.0000
vt 1.0000 0.0000
vt 1.0000 0.0000
vt 1.0000 1.0000
vt 1.0000 1.0000
vt 0.0000 0.0000
vt 0.0000 0.0000
vt 1.0000 0.0000
vt 0.0000 0.0000
vt 1.0000 0.0000
vt 0.0000 0.0000
vt 1.0000 0.0000
vt 0.0000 0.0000
vt 1.0000 0.0000
vt 0.0000 0.0000
vt 1.0000 0.0000
vt 0.0000 0.0000
vt 1.0000 0.0000
vt 0.0000 0.0000
vt 1.0000 0.0000
vt 0.0000 0.0000
vt 1.0000 0.0000
vt 0.0000 0.0000
vt 1.0000 0.0000
vt 1.0000 0.0000
vt 0.0000 0.0000
vt 0.0000 0.0000
vt 1.0000 0.0000
vt 0.0000 0.0000
vt 1.0000 0.0000
vt 0.0000 0.0000
vt 1.0000 0.0000
vt 1.0000 1.0000
vt 1.0000 1.0000
vn 0.0000 1.0000 0.0000
vn 0.0000 -1.0000 0.0000
vn 0.5211 0.6591 0.5422
vn 0.6974 -0.6639 0.2698
vn 0.6974 0.6639 0.2698
vn 0.2496 0.6662 0.7027
vn 0.5211 -0.6591 0.5422
vn 0.0003 0.6755 0.7374
vn 0.2496 -0.6662 0.7027
vn -0.2313 0.6709 0.7046
vn 0.0003 -0.6755 0.7374
vn -0.4834 0.6623 0.5723
vn -0.2313 -0.6709 0.7046
vn -0.6843 0.6594 0.3112
vn -0.4834 -0.6623 0.5723
vn -0.7245 0.6855 0.0720
vn -0.6843 -0.6594 0.3112
vn -0.5773 0.5773 -0.5773
vn -0.7245 -0.6855 0.0720
vn 0.5773 0.5773 -0.5773
vn -0.5773 -0.5773 -0.5773
vn 0.7023 0.7117 -0.0143
vn 0.5773 -0.5773 -0.5773
vn 0.6863 0.7232 -0.0766
vn 0.7023 -0.7117 -0.0143
vn 0.6487 0.7344 -0.1996
vn 0.6863 -0.7232 -0.0766
vn 0.5762 0.7379 -0.3514
vn 0.6487 -0.7344 -0.1996
vn 0.4844 0.7308 -0.4808
vn 0.5762 -0.7379 -0.3514
vn 0.3754 0.7312 -0.5695
vn 0.4844 -0.7308 -0.4808
vn 0.2504 0.7310 -0.6347
vn 0.3754 -0.7312 -0.5695
vn 0.1215 0.7289 -0.6738
vn 0.2504 -0.7310 -0.6347
vn 0.0012 0.7261 -0.6875
vn 0.1215 -0.7289 -0.6738
vn -0.1155 0.7275 -0.6763
vn 0.0012 -0.7261 -0.6875
vn -0.2374 0.7296 -0.6413
vn -0.1155 -0.7275 -0.6763
vn -0.3614 0.7321 -0.5774
vn -0.2374 -0.7296 -0.6413
vn -0.4840 0.7383 -0.4696
vn -0.3614 -0.7321 -0.5774
vn -0.5911 0.7391 -0.3229
vn -0.4840 -0.7383 -0.4696
vn -0.6596 0.7303 -0.1776
vn -0.5911 -0.7391 -0.3229
vn -0.6891 0.7212 -0.0700
vn -0.6596 -0.7303 -0.1776
vn -0.7024 0.7116 -0.0139
vn -0.6891 -0.7212 -0.0700
vn -0.7024 -0.7116 -0.0139
vn 0.7222 0.6891 0.0593
vn 0.7222 -0.6891 0.0593
s off
f 4/1/1 5/2/1 42/3/1
f 4/1/1 6/4/1 5/5/1
f 12/6/1 13/7/1 60/8/1
f 12/6/1 14/9/1 13/10/1
f 11/11/1 14/9/1 12/12/1
f 4/1/1 44/13/1 6/14/1
f 11/11/1 1/15/1 14/16/1
f 3/17/1 44/13/1 4/18/1
f 57/19/1 1/15/1 11/20/1
f 3/17/1 45/21/1 44/22/1
f 56/23/1 1/15/1 57/24/1
f 3/17/1 7/25/1 45/26/1
f 55/27/1 1/15/1 56/28/1
f 3/17/1 47/29/1 7/30/1
f 55/27/1 2/31/1 1/32/1
f 3/17/1 8/33/1 47/34/1
f 40/35/1 8/33/1 3/36/1
f 10/37/1 2/31/1 55/38/1
f 52/39/1 2/31/1 10/40/1
f 40/35/1 49/41/1 8/42/1
f 9/43/1 2/31/1 52/44/1
f 40/35/1 50/45/1 49/46/1
f 51/47/1 2/31/1 9/48/1
f 40/35/1 51/49/1 50/50/1
f 40/35/1 2/31/1 51/51/1
f 40/35/1 35/52/1 2/53/1
f 38/54/1 35/52/1 40/55/1
f 38/54/1 37/56/1 35/57/1
f 43/58/2 17/59/2 18/60/2
f 19/61/2 17/59/2 43/62/2
f 31/63/2 59/64/2 30/65/2
f 32/66/2 59/64/2 31/67/2
f 32/66/2 58/68/2 59/69/2
f 20/70/2 17/59/2 19/71/2
f 33/72/2 58/68/2 32/73/2
f 20/70/2 41/74/2 17/75/2
f 33/72/2 29/76/2 58/77/2
f 21/78/2 41/74/2 20/79/2
f 33/72/2 28/80/2 29/81/2
f 22/82/2 41/74/2 21/83/2
f 33/72/2 54/84/2 28/85/2
f 46/86/2 41/74/2 22/87/2
f 15/88/2 54/84/2 33/89/2
f 23/90/2 41/74/2 46/91/2
f 23/90/2 39/92/2 41/93/2
f 15/88/2 53/94/2 54/95/2
f 15/88/2 27/96/2 53/97/2
f 48/98/2 39/92/2 23/99/2
f 15/88/2 26/100/2 27/101/2
f 24/102/2 39/92/2 48/103/2
f 15/88/2 25/104/2 26/105/2
f 25/106/2 39/92/2 24/107/2
f 15/88/2 39/92/2 25/108/2
f 34/109/2 39/92/2 15/110/2
f 34/109/2 16/111/2 39/112/2
f 36/113/2 16/111/2 34/114/2
s 1
f 2/115/3 33/116/4 1/32/5
f 35/117/6 15/118/7 2/53/3
f 37/119/8 34/120/9 35/57/6
f 38/54/10 36/121/11 37/122/8
f 40/35/12 16/111/13 38/123/10
f 3/17/14 39/92/15 40/55/12
f 4/1/16 41/74/17 3/36/14
f 42/124/18 17/59/19 4/18/16
f 5/125/20 18/126/21 42/3/18
f 6/127/22 43/128/23 5/5/20
f 44/129/24 19/130/25 6/14/22
f 45/131/26 20/132/27 44/22/24
f 7/133/28 21/134/29 45/26/26
f 47/135/30 22/136/31 7/30/28
f 8/137/32 46/138/33 47/34/30
f 49/139/34 23/140/35 8/42/32
f 50/141/36 48/142/37 49/46/34
f 51/47/38 24/143/39 50/50/36
f 9/43/40 25/104/41 51/51/38
f 52/39/42 26/100/43 9/48/40
f 10/37/44 27/96/45 52/44/42
f 55/27/46 53/94/47 10/40/44
f 56/23/48 54/84/49 55/38/46
f 57/19/50 28/80/51 56/28/48
f 11/11/52 29/76/53 57/24/50
f 12/6/54 58/68/55 11/20/52
f 60/144/18 59/64/56 12/12/54
f 13/145/20 30/146/21 60/8/18
f 14/147/57 31/148/23 13/10/20
f 1/149/5 32/150/58 14/16/57
f 2/115/3 15/118/7 33/89/4
f 35/117/6 34/120/9 15/110/7
f 37/119/8 36/121/11 34/114/9
f 38/54/10 16/111/13 36/151/11
f 40/35/12 39/92/15 16/152/13
f 3/17/14 41/74/17 39/112/15
f 4/1/16 17/59/19 41/93/17
f 42/124/18 18/126/21 17/75/19
f 5/125/20 43/128/23 18/60/21
f 6/127/22 19/130/25 43/62/23
f 44/129/24 20/132/27 19/71/25
f 45/131/26 21/134/29 20/79/27
f 7/133/28 22/136/31 21/83/29
f 47/135/30 46/138/33 22/87/31
f 8/137/32 23/140/35 46/91/33
f 49/139/34 48/142/37 23/99/35
f 50/141/36 24/143/39 48/103/37
f 51/47/38 25/104/41 24/107/39
f 9/43/40 26/100/43 25/108/41
f 52/39/42 27/96/45 26/105/43
f 10/37/44 53/94/47 27/101/45
f 55/27/46 54/84/49 53/97/47
f 56/23/48 28/80/51 54/95/49
f 57/19/50 29/76/53 28/85/51
f 11/11/52 58/68/55 29/81/53
f 12/6/54 59/64/56 58/77/55
f 60/144/18 30/146/21 59/69/56
f 13/145/20 31/148/23 30/65/21
f 14/147/57 32/150/58 31/67/23
f 1/149/5 33/116/4 32/73/58
