# Blender v2.78 (sub 0) OBJ File: 'letter.blend'
# www.blender.org
mtllib X.mtl
o Text_Mesh
v 0.352000 0.100000 0.000000
v 0.234000 0.100000 0.000000
v 0.002000 0.100000 -0.282000
v -0.233000 0.100000 0.000000
v -0.352000 0.100000 0.000000
v -0.058000 0.100000 -0.353000
v -0.331000 0.100000 -0.682000
v -0.212000 0.100000 -0.682000
v 0.002000 0.100000 -0.422000
v 0.215000 0.100000 -0.682000
v 0.333000 0.100000 -0.682000
v 0.061000 0.100000 -0.353000
v 0.352000 -0.100000 0.000000
v 0.234000 -0.100000 0.000000
v 0.002000 -0.100000 -0.282000
v -0.233000 -0.100000 0.000000
v -0.352000 -0.100000 0.000000
v -0.058000 -0.100000 -0.353000
v -0.331000 -0.100000 -0.682000
v -0.212000 -0.100000 -0.682000
v 0.002000 -0.100000 -0.422000
v 0.215000 -0.100000 -0.682000
v 0.333000 -0.100000 -0.682000
v 0.061000 -0.100000 -0.353000
v 0.352000 -0.100000 0.000000
v 0.352000 0.100000 0.000000
v 0.234000 -0.100000 0.000000
v 0.234000 0.100000 0.000000
v 0.002000 -0.100000 -0.282000
v 0.002000 0.100000 -0.282000
v -0.233000 -0.100000 0.000000
v -0.233000 0.100000 0.000000
v -0.352000 -0.100000 0.000000
v -0.352000 0.100000 0.000000
v -0.058000 -0.100000 -0.353000
v -0.058000 0.100000 -0.353000
v -0.331000 -0.100000 -0.682000
v -0.331000 0.100000 -0.682000
v -0.212000 -0.100000 -0.682000
v -0.212000 0.100000 -0.682000
v 0.002000 -0.100000 -0.422000
v 0.002000 0.100000 -0.422000
v 0.215000 -0.100000 -0.682000
v 0.215000 0.100000 -0.682000
v 0.333000 -0.100000 -0.682000
v 0.333000 0.100000 -0.682000
v 0.061000 -0.100000 -0.353000
v 0.061000 0.100000 -0.353000
vt 0.5195 0.8288
vt 0.4394 0.9999
vt 0.3775 0.9999
vt 0.5507 0.8646
vt 0.7228 0.9999
vt 0.6614 0.9999
vt 0.5814 0.8287
vt 0.3666 0.6452
vt 0.5507 0.7918
vt 0.7327 0.6452
vt 0.4285 0.6452
vt 0.6713 0.6452
vt 0.0730 0.6452
vt 0.1530 0.8163
vt 0.0111 0.6452
vt 0.1843 0.7804
vt 0.3564 0.6452
vt 0.2950 0.6452
vt 0.2149 0.8163
vt 0.0001 0.9999
vt 0.1843 0.8532
vt 0.3663 0.9999
vt 0.0620 0.9999
vt 0.3049 0.9999
vt 0.2495 0.1399
vt 0.3573 0.0001
vt 0.3374 0.0973
vt 0.1140 0.1279
vt 0.2676 0.0001
vt 0.0746 0.1985
vt 0.0562 0.0553
vt 0.0875 0.2278
vt 0.0001 0.2134
vt 0.3322 0.3568
vt 0.0224 0.2678
vt 0.2684 0.5645
vt 0.1812 0.4188
vt 0.2960 0.5659
vt 0.2323 0.6433
vt 0.4095 0.3960
vt 0.3054 0.6449
vt 0.5704 0.4701
vt 0.4335 0.5509
vt 0.6096 0.4317
vt 0.6929 0.5660
vt 0.4247 0.3241
vt 0.7498 0.4321
vt 0.5499 0.2218
vn 0.0000 1.0000 0.0000
vn 0.0000 -1.0000 0.0000
vn -0.4270 0.0000 0.9042
vn 0.9044 0.0000 0.4266
vn -0.0031 0.0000 1.0000
vn 0.4241 0.0000 0.9056
vn -0.9055 0.0000 0.4243
vn -1.0000 0.0000 -0.0009
vn -0.9051 0.0000 -0.4251
vn 0.4269 0.0000 -0.9043
vn -0.0011 0.0000 -1.0000
vn -0.4279 0.0000 -0.9038
vn 0.9048 0.0000 -0.4259
vn 1.0000 0.0000 0.0007
usemtl None
s off
f 6/1/1 8/2/1 7/3/1
f 6/1/1 9/4/1 8/2/1
f 9/4/1 11/5/1 10/6/1
f 9/4/1 12/7/1 11/5/1
f 6/1/1 12/7/1 9/4/1
f 5/8/1 12/7/1 6/1/1
f 5/8/1 3/9/1 12/7/1
f 3/9/1 1/10/1 12/7/1
f 5/8/1 4/11/1 3/9/1
f 2/12/1 1/10/1 3/9/1
f 20/13/2 18/14/2 19/15/2
f 21/16/2 18/14/2 20/13/2
f 23/17/2 21/16/2 22/18/2
f 24/19/2 21/16/2 23/17/2
f 24/19/2 18/14/2 21/16/2
f 24/19/2 17/20/2 18/14/2
f 15/21/2 17/20/2 24/19/2
f 13/22/2 15/21/2 24/19/2
f 16/23/2 17/20/2 15/21/2
f 13/22/2 14/24/2 15/21/2
s 1
f 28/25/3 25/26/4 26/27/4
f 30/28/5 27/29/3 28/25/3
f 32/30/6 29/31/5 30/28/5
f 34/32/7 31/33/6 32/30/6
f 36/34/8 33/35/7 34/32/7
f 38/36/9 35/37/8 36/34/8
f 40/38/10 37/39/9 38/36/9
f 42/40/11 39/41/10 40/38/10
f 44/42/12 41/43/11 42/40/11
f 46/44/13 43/45/12 44/42/12
f 48/46/14 45/47/13 46/44/13
f 26/27/4 47/48/14 48/46/14
f 28/25/3 27/29/3 25/26/4
f 30/28/5 29/31/5 27/29/3
f 32/30/6 31/33/6 29/31/5
f 34/32/7 33/35/7 31/33/6
f 36/34/8 35/37/8 33/35/7
f 38/36/9 37/39/9 35/37/8
f 40/38/10 39/41/10 37/39/9
f 42/40/11 41/43/11 39/41/10
f 44/42/12 43/45/12 41/43/11
f 46/44/13 45/47/13 43/45/12
f 48/46/14 47/48/14 45/47/13
f 26/27/4 25/26/4 47/48/14
