# Blender v2.78 (sub 0) OBJ File: 'letter.blend'
# www.blender.org
o X
v 0.232915 0.100000 0.344833
v -0.213084 0.100000 -0.337167
v 0.213916 0.100000 -0.337167
v 0.059916 0.100000 -0.008167
v -0.234085 -0.100000 0.344833
v -0.353085 -0.100000 0.344833
v -0.332085 -0.100000 -0.337167
v -0.213084 -0.100000 -0.337167
v 0.000916 -0.100000 -0.077167
v 0.213916 -0.100000 -0.337167
v 0.350915 -0.100000 0.344833
v 0.350915 0.100000 0.344833
v 0.232915 -0.100000 0.344833
v 0.000916 -0.100000 0.062833
v 0.000916 0.100000 0.062833
v -0.234085 0.100000 0.344833
v -0.353085 0.100000 0.344833
v -0.059084 -0.100000 -0.008167
v -0.059084 0.100000 -0.008167
v -0.332085 0.100000 -0.337167
v 0.000916 0.100000 -0.077167
v 0.331916 -0.100000 -0.337167
v 0.331916 0.100000 -0.337167
v 0.059916 -0.100000 -0.008167
vt 0.0000 0.0000
vt 1.0000 0.0000
vt 1.0000 1.0000
vt 1.0000 0.0000
vt 1.0000 1.0000
vt 0.0000 0.0000
vt 1.0000 0.0000
vt 1.0000 1.0000
vt 1.0000 0.0000
vt 1.0000 1.0000
vt 1.0000 1.0000
vt 0.0000 0.0000
vt 1.0000 1.0000
vt 1.0000 0.0000
vt 1.0000 1.0000
vt 0.0000 0.0000
vt 1.0000 0.0000
vt 1.0000 0.0000
vt 1.0000 1.0000
vt 0.0000 0.0000
vt 0.0000 0.0000
vt 1.0000 0.0000
vt 1.0000 1.0000
vt 0.0000 0.0000
vt 1.0000 1.0000
vt 0.0000 0.0000
vt 1.0000 0.0000
vt 1.0000 1.0000
vt 0.0000 0.0000
vt 1.0000 1.0000
vt 1.0000 1.0000
vt 1.0000 0.0000
vt 1.0000 1.0000
vt 0.0000 0.0000
vt 1.0000 1.0000
vt 0.0000 0.0000
vt 1.0000 0.0000
vt 0.0000 0.0000
vt 1.0000 1.0000
vt 1.0000 0.0000
vt 1.0000 0.0000
vt 1.0000 1.0000
vt 1.0000 1.0000
vt 0.0000 0.0000
vt 1.0000 0.0000
vt 1.0000 1.0000
vt 1.0000 1.0000
vt 0.0000 0.0000
vt 0.0000 0.0000
vt 1.0000 0.0000
vt 1.0000 0.0000
vt 0.0000 0.0000
vt 0.0000 0.0000
vt 1.0000 0.0000
vt 0.0000 0.0000
vt 1.0000 0.0000
vt 0.0000 0.0000
vt 1.0000 0.0000
vt 1.0000 1.0000
vt 1.0000 1.0000
vt 1.0000 1.0000
vt 1.0000 1.0000
vn 0.0000 1.0000 0.0000
vn 0.0000 -1.0000 0.0000
vn -0.3342 0.6224 0.7077
vn 0.7556 -0.5495 0.3564
vn 0.7556 0.5495 0.3564
vn -0.0012 0.9256 0.3785
vn -0.3342 -0.6224 0.7077
vn 0.3318 0.6229 0.7084
vn -0.0012 -0.9256 0.3785
vn -0.7566 0.5493 0.3545
vn 0.3318 -0.6229 0.7084
vn -0.4707 0.8823 -0.0004
vn -0.7566 -0.5493 0.3545
vn -0.7563 0.5494 -0.3552
vn -0.4707 -0.8823 -0.0004
vn 0.3341 0.6225 -0.7077
vn -0.7563 -0.5494 -0.3552
vn -0.0004 0.9265 -0.3763
vn 0.3341 -0.6225 -0.7077
vn -0.3350 0.6223 -0.7075
vn -0.0004 -0.9265 -0.3763
vn 0.7559 0.5495 -0.3558
vn -0.3350 -0.6223 -0.7075
vn 0.4722 0.8814 0.0003
vn 0.7559 -0.5495 -0.3558
vn 0.4722 -0.8814 0.0003
s off
f 19/1/1 2/2/1 20/3/1
f 19/1/1 21/4/1 2/5/1
f 21/6/1 23/7/1 3/8/1
f 21/6/1 4/9/1 23/10/1
f 19/1/1 4/9/1 21/11/1
f 17/12/1 4/9/1 19/13/1
f 17/12/1 15/14/1 4/15/1
f 15/16/1 12/17/1 4/15/1
f 17/12/1 16/18/1 15/19/1
f 1/20/1 12/17/1 15/19/1
f 8/21/2 18/22/2 7/23/2
f 9/24/2 18/22/2 8/25/2
f 22/26/2 9/27/2 10/28/2
f 24/29/2 9/27/2 22/30/2
f 24/29/2 18/22/2 9/31/2
f 24/29/2 6/32/2 18/33/2
f 14/34/2 6/32/2 24/35/2
f 11/36/2 14/37/2 24/35/2
f 5/38/2 6/32/2 14/39/2
f 11/36/2 13/40/2 14/39/2
s 1
f 1/20/3 11/41/4 12/42/5
f 15/16/6 13/40/7 1/43/3
f 16/44/8 14/37/9 15/19/6
f 17/12/10 5/45/11 16/46/8
f 19/1/12 6/32/13 17/47/10
f 20/48/14 18/22/15 19/13/12
f 2/49/16 7/50/17 20/3/14
f 21/6/18 8/51/19 2/5/16
f 3/52/20 9/27/21 21/11/18
f 23/53/22 10/54/23 3/8/20
f 4/55/24 22/56/25 23/10/22
f 12/57/5 24/58/26 4/15/24
f 1/20/3 13/40/7 11/59/4
f 15/16/6 14/37/9 13/60/7
f 16/44/8 5/45/11 14/39/9
f 17/12/10 6/32/13 5/61/11
f 19/1/12 18/22/15 6/62/13
f 20/48/14 7/50/17 18/33/15
f 2/49/16 8/51/19 7/23/17
f 21/6/18 9/27/21 8/25/19
f 3/52/20 10/54/23 9/31/21
f 23/53/22 22/56/25 10/28/23
f 4/55/24 24/58/26 22/30/25
f 12/57/5 11/41/4 24/35/26
