# Blender v2.78 (sub 0) OBJ File: 'letter.blend'
# www.blender.org
o Y
v 0.049111 0.100000 0.072889
v 0.049111 0.100000 0.432889
v -0.301889 0.100000 -0.249111
v 0.049111 -0.100000 0.432889
v -0.048889 -0.100000 0.071889
v -0.000889 -0.100000 -0.014111
v 0.184111 -0.100000 -0.249111
v 0.302111 -0.100000 -0.249111
v 0.302111 0.100000 -0.249111
v 0.049111 -0.100000 0.072889
v -0.048889 -0.100000 0.432889
v -0.048889 0.100000 0.432889
v -0.048889 0.100000 0.071889
v -0.301889 -0.100000 -0.249111
v -0.183889 -0.100000 -0.249111
v -0.183889 0.100000 -0.249111
v -0.000889 0.100000 -0.014111
v 0.184111 0.100000 -0.249111
vt 0.0000 0.0000
vt 1.0000 0.0000
vt 1.0000 1.0000
vt 1.0000 0.0000
vt 1.0000 1.0000
vt 0.0000 0.0000
vt 1.0000 0.0000
vt 1.0000 1.0000
vt 1.0000 0.0000
vt 1.0000 1.0000
vt 1.0000 1.0000
vt 0.0000 0.0000
vt 1.0000 1.0000
vt 1.0000 0.0000
vt 1.0000 1.0000
vt 0.0000 0.0000
vt 1.0000 0.0000
vt 1.0000 1.0000
vt 0.0000 0.0000
vt 1.0000 1.0000
vt 0.0000 0.0000
vt 1.0000 0.0000
vt 1.0000 1.0000
vt 0.0000 0.0000
vt 1.0000 1.0000
vt 1.0000 1.0000
vt 1.0000 0.0000
vt 1.0000 1.0000
vt 0.0000 0.0000
vt 1.0000 1.0000
vt 0.0000 0.0000
vt 1.0000 0.0000
vt 0.0000 0.0000
vt 1.0000 0.0000
vt 1.0000 0.0000
vt 1.0000 1.0000
vt 1.0000 1.0000
vt 0.0000 0.0000
vt 0.0000 0.0000
vt 1.0000 0.0000
vt 1.0000 0.0000
vt 0.0000 0.0000
vt 0.0000 0.0000
vt 1.0000 0.0000
vt 1.0000 1.0000
vt 1.0000 1.0000
vn 0.0000 1.0000 0.0000
vn 0.0000 -1.0000 0.0000
vn 0.5811 0.7886 0.2010
vn 0.7510 -0.5502 -0.3650
vn 0.7510 0.5502 -0.3650
vn 0.5773 0.5773 0.5773
vn 0.5811 -0.7886 0.2010
vn -0.5773 0.5773 0.5773
vn 0.5773 -0.5773 0.5773
vn -0.5807 0.7888 0.2013
vn -0.5773 -0.5773 0.5773
vn -0.7513 0.5501 -0.3645
vn -0.5807 -0.7888 0.2013
vn 0.3444 0.6203 -0.7047
vn -0.7513 -0.5501 -0.3645
vn 0.0009 0.9314 -0.3641
vn 0.3444 -0.6203 -0.7047
vn -0.3424 0.6207 -0.7053
vn 0.0009 -0.9314 -0.3641
vn -0.3424 -0.6207 -0.7053
s off
f 13/1/1 16/2/1 3/3/1
f 13/1/1 17/4/1 16/5/1
f 17/6/1 9/7/1 18/8/1
f 17/6/1 1/9/1 9/10/1
f 13/1/1 1/9/1 17/11/1
f 12/12/1 1/9/1 13/13/1
f 12/12/1 2/14/1 1/15/1
f 15/16/2 5/17/2 14/18/2
f 6/19/2 5/17/2 15/20/2
f 8/21/2 6/22/2 7/23/2
f 10/24/2 6/22/2 8/25/2
f 10/24/2 5/17/2 6/26/2
f 10/24/2 11/27/2 5/28/2
f 4/29/2 11/27/2 10/30/2
s 1
f 1/31/3 8/32/4 9/10/5
f 2/33/6 10/34/7 1/15/3
f 12/12/8 4/35/9 2/36/6
f 13/1/10 11/27/11 12/37/8
f 3/38/12 5/17/13 13/13/10
f 16/39/14 14/40/15 3/3/12
f 17/6/16 15/41/17 16/5/14
f 18/42/18 6/22/19 17/11/16
f 9/43/5 7/44/20 18/8/18
f 1/31/3 10/34/7 8/25/4
f 2/33/6 4/35/9 10/30/7
f 12/12/8 11/27/11 4/45/9
f 13/1/10 5/17/13 11/46/11
f 3/38/12 14/40/15 5/28/13
f 16/39/14 15/41/17 14/18/15
f 17/6/16 6/22/19 15/20/17
f 18/42/18 7/44/20 6/26/19
f 9/43/5 8/32/4 7/23/20
