# Blender v2.78 (sub 0) OBJ File: 'letter.blend'
# www.blender.org
mtllib Y.mtl
o Text_Mesh
v 0.302000 0.100000 -0.682000
v 0.049000 0.100000 -0.360000
v 0.049000 0.100000 0.000000
v -0.049000 0.100000 0.000000
v -0.049000 0.100000 -0.361000
v -0.302000 0.100000 -0.682000
v -0.184000 0.100000 -0.682000
v -0.001000 0.100000 -0.447000
v 0.184000 0.100000 -0.682000
v 0.302000 -0.100000 -0.682000
v 0.049000 -0.100000 -0.360000
v 0.049000 -0.100000 0.000000
v -0.049000 -0.100000 0.000000
v -0.049000 -0.100000 -0.361000
v -0.302000 -0.100000 -0.682000
v -0.184000 -0.100000 -0.682000
v -0.001000 -0.100000 -0.447000
v 0.184000 -0.100000 -0.682000
v 0.302000 -0.100000 -0.682000
v 0.302000 0.100000 -0.682000
v 0.049000 -0.100000 -0.360000
v 0.049000 0.100000 -0.360000
v 0.049000 -0.100000 0.000000
v 0.049000 0.100000 0.000000
v -0.049000 -0.100000 0.000000
v -0.049000 0.100000 0.000000
v -0.049000 -0.100000 -0.361000
v -0.049000 0.100000 -0.361000
v -0.302000 -0.100000 -0.682000
v -0.302000 0.100000 -0.682000
v -0.184000 -0.100000 -0.682000
v -0.184000 0.100000 -0.682000
v -0.001000 -0.100000 -0.447000
v -0.001000 0.100000 -0.447000
v 0.184000 -0.100000 -0.682000
v 0.184000 0.100000 -0.682000
vt 0.8251 0.1897
vt 0.9049 0.0001
vt 0.9746 0.0001
vt 0.7968 0.1389
vt 0.6178 0.0001
vt 0.6875 0.0001
vt 0.7673 0.1903
vt 0.8251 0.4029
vt 0.7673 0.4029
vt 0.4029 0.7128
vt 0.2134 0.7926
vt 0.4029 0.6431
vt 0.2642 0.8209
vt 0.4029 0.9999
vt 0.4029 0.9302
vt 0.2128 0.8504
vt 0.0001 0.7926
vt 0.0001 0.8504
vt 0.3694 0.2827
vt 0.6175 0.4418
vt 0.5242 0.4427
vt 0.2402 0.1723
vt 0.4739 0.1691
vt 0.1891 0.2019
vt 0.1630 0.0001
vt 0.1581 0.3885
vt 0.0543 0.0743
vt 0.2786 0.5465
vt 0.0001 0.4450
vt 0.3353 0.5249
vt 0.2557 0.6389
vt 0.4309 0.5560
vt 0.3165 0.6428
vt 0.4629 0.4710
vt 0.4869 0.6428
vt 0.5801 0.5211
vn 0.0000 1.0000 0.0000
vn 0.0000 -1.0000 0.0000
vn 0.9451 0.0000 0.3269
vn 0.8994 0.0000 -0.4371
vn 0.7071 0.0000 0.7071
vn -0.7071 0.0000 0.7071
vn -0.9448 0.0000 0.3276
vn -0.8997 0.0000 -0.4364
vn 0.4391 0.0000 -0.8984
vn 0.0026 0.0000 -1.0000
vn -0.4367 0.0000 -0.8996
usemtl None
s off
f 5/1/1 7/2/1 6/3/1
f 5/1/1 8/4/1 7/2/1
f 8/4/1 1/5/1 9/6/1
f 8/4/1 2/7/1 1/5/1
f 5/1/1 2/7/1 8/4/1
f 4/8/1 2/7/1 5/1/1
f 4/8/1 3/9/1 2/7/1
f 16/10/2 14/11/2 15/12/2
f 17/13/2 14/11/2 16/10/2
f 10/14/2 17/13/2 18/15/2
f 11/16/2 17/13/2 10/14/2
f 11/16/2 14/11/2 17/13/2
f 11/16/2 13/17/2 14/11/2
f 12/18/2 13/17/2 11/16/2
s 1
f 22/19/3 19/20/4 20/21/4
f 24/22/5 21/23/3 22/19/3
f 26/24/6 23/25/5 24/22/5
f 28/26/7 25/27/6 26/24/6
f 30/28/8 27/29/7 28/26/7
f 32/30/9 29/31/8 30/28/8
f 34/32/10 31/33/9 32/30/9
f 36/34/11 33/35/10 34/32/10
f 20/21/4 35/36/11 36/34/11
f 22/19/3 21/23/3 19/20/4
f 24/22/5 23/25/5 21/23/3
f 26/24/6 25/27/6 23/25/5
f 28/26/7 27/29/7 25/27/6
f 30/28/8 29/31/8 27/29/7
f 32/30/9 31/33/9 29/31/8
f 34/32/10 33/35/10 31/33/9
f 36/34/11 35/36/11 33/35/10
f 20/21/4 19/20/4 35/36/11
