# Blender v2.78 (sub 0) OBJ File: 'letter.blend'
# www.blender.org
o Z
v 0.300751 0.100000 0.253000
v 0.300751 0.100000 0.341000
v -0.314250 0.100000 0.341000
v 0.119750 0.100000 -0.253000
v -0.287250 0.100000 -0.253000
v -0.133250 -0.100000 0.253000
v -0.287250 -0.100000 -0.341000
v -0.287250 0.100000 -0.341000
v 0.300751 -0.100000 -0.341000
v 0.300751 0.100000 -0.341000
v -0.133250 0.100000 0.253000
v 0.300751 -0.100000 0.253000
v 0.300751 -0.100000 0.341000
v -0.314250 -0.100000 0.341000
v 0.119750 -0.100000 -0.253000
v -0.287250 -0.100000 -0.253000
vt 0.0000 0.0000
vt 1.0000 0.0000
vt 1.0000 1.0000
vt 1.0000 0.0000
vt 1.0000 1.0000
vt 0.0000 0.0000
vt 1.0000 0.0000
vt 0.0000 0.0000
vt 1.0000 1.0000
vt 1.0000 0.0000
vt 1.0000 1.0000
vt 1.0000 0.0000
vt 1.0000 1.0000
vt 0.0000 0.0000
vt 1.0000 0.0000
vt 1.0000 1.0000
vt 0.0000 0.0000
vt 1.0000 1.0000
vt 0.0000 0.0000
vt 1.0000 0.0000
vt 1.0000 0.0000
vt 1.0000 1.0000
vt 0.0000 0.0000
vt 1.0000 1.0000
vt 0.0000 0.0000
vt 1.0000 1.0000
vt 0.0000 0.0000
vt 1.0000 0.0000
vt 0.0000 0.0000
vt 1.0000 0.0000
vt 0.0000 0.0000
vt 1.0000 0.0000
vt 0.0000 0.0000
vt 1.0000 0.0000
vt 1.0000 0.0000
vt 1.0000 1.0000
vt 1.0000 1.0000
vt 0.0000 0.0000
vt 1.0000 1.0000
vt 1.0000 1.0000
vt 1.0000 1.0000
vt 1.0000 1.0000
vn 0.0000 1.0000 0.0000
vn 0.0000 -1.0000 0.0000
vn 0.7439 0.5512 -0.3778
vn -0.5773 -0.5773 -0.5773
vn -0.5773 0.5773 -0.5773
vn 0.2293 0.9663 -0.1165
vn 0.7439 -0.5512 -0.3778
vn 0.5773 0.5773 -0.5773
vn 0.2293 -0.9663 -0.1165
vn 0.5773 0.5773 0.5773
vn 0.5773 -0.5773 -0.5773
vn -0.7439 0.5512 0.3778
vn 0.5773 -0.5773 0.5773
vn -0.2293 0.9663 0.1165
vn -0.7439 -0.5512 0.3778
vn -0.5773 0.5773 0.5773
vn -0.2293 -0.9663 0.1165
vn -0.5773 -0.5773 0.5773
s off
f 5/1/1 10/2/1 8/3/1
f 5/1/1 4/4/1 10/5/1
f 4/6/1 11/7/1 10/5/1
f 3/8/1 11/7/1 4/9/1
f 3/8/1 1/10/1 11/11/1
f 3/8/1 2/12/1 1/13/1
f 9/14/2 16/15/2 7/16/2
f 15/17/2 16/15/2 9/18/2
f 6/19/2 15/20/2 9/18/2
f 6/19/2 14/21/2 15/22/2
f 12/23/2 14/21/2 6/24/2
f 13/25/2 14/21/2 12/26/2
s 1
f 10/27/3 7/28/4 8/3/5
f 11/29/6 9/30/7 10/5/3
f 1/31/8 6/32/9 11/11/6
f 2/33/10 12/34/11 1/13/8
f 3/8/12 13/35/13 2/36/10
f 4/6/14 14/21/15 3/37/12
f 5/1/16 15/20/17 4/9/14
f 8/38/5 16/15/18 5/39/16
f 10/27/3 9/30/7 7/16/4
f 11/29/6 6/32/9 9/18/7
f 1/31/8 12/34/11 6/24/9
f 2/33/10 13/35/13 12/26/11
f 3/8/12 14/21/15 13/40/13
f 4/6/14 15/20/17 14/41/15
f 5/1/16 16/15/18 15/22/17
f 8/38/5 7/28/4 16/42/18
